{"glyphs":{"0":{"ha":694,"x_min":0,"x_max":0,"o":"m 133 813 b 346 925 179 879 253 925 b 524 856 411 925 475 900 b 588 761 550 831 569 801 b 639 444 624 681 639 588 b 579 115 639 292 622 197 b 465 -1 551 58 517 24 b 347 -31 426 -21 388 -31 b 114 115 232 -31 156 33 b 54 444 71 197 54 292 b 133 813 54 614 74 717 m 446 829 b 347 874 421 857 390 874 b 247 829 311 874 275 858 b 192 593 207 788 196 743 b 190 463 192 568 190 517 b 193 276 190 386 192 303 b 251 64 200 147 211 106 b 347 22 275 38 303 22 b 442 64 392 22 418 38 b 500 276 482 106 493 147 b 503 463 501 303 503 386 b 501 593 503 517 501 568 b 446 829 497 743 486 788 "},"1":{"ha":694,"x_min":0,"x_max":0,"o":"m 578 0 b 357 4 554 4 401 4 b 139 0 313 4 163 4 l 122 0 l 122 64 l 158 64 b 263 68 199 64 247 65 b 296 85 279 69 286 78 l 296 803 b 285 799 294 803 290 801 b 142 772 244 783 194 774 l 115 772 l 115 836 l 142 836 b 336 889 219 839 285 857 b 379 921 349 896 372 914 b 396 925 382 925 383 925 b 419 917 414 925 411 924 l 419 501 l 421 85 b 511 64 440 65 469 64 l 557 64 l 593 64 l 593 0 l 578 0 "},"2":{"ha":694,"x_min":0,"x_max":0,"o":"m 153 596 b 69 682 100 596 69 635 b 326 925 69 814 185 925 b 621 692 489 925 597 828 b 624 646 622 679 624 663 b 575 494 624 585 608 543 b 418 335 546 451 510 414 b 279 207 369 293 374 297 l 197 129 l 303 128 b 535 135 443 128 526 131 b 549 164 539 136 544 150 b 568 258 556 183 557 196 l 568 263 l 624 263 l 624 258 b 585 4 619 250 589 13 l 585 0 l 69 0 l 69 26 b 72 58 69 50 69 54 b 189 190 74 60 126 119 b 383 413 346 364 353 374 b 476 644 446 497 476 564 b 294 860 476 761 414 860 b 164 788 232 860 194 832 b 151 764 158 776 151 765 b 158 763 151 763 154 763 b 236 679 207 763 236 722 b 153 596 236 635 204 596 "},"3":{"ha":694,"x_min":0,"x_max":0,"o":"m 176 643 b 96 728 125 643 96 679 b 303 924 96 840 201 911 l 324 924 b 385 922 344 924 372 924 b 478 893 418 917 447 907 b 593 763 539 863 578 818 b 597 725 596 753 597 739 b 419 486 597 613 517 522 b 415 483 417 485 415 485 b 521 438 415 479 463 476 b 635 243 592 392 635 322 b 608 133 635 206 626 169 b 331 -31 565 40 457 -31 b 72 113 208 -31 106 26 b 58 181 63 133 58 160 b 146 268 58 233 99 268 b 235 181 197 268 235 231 b 168 94 235 138 208 104 l 158 92 b 331 29 201 56 263 29 b 446 103 379 29 421 56 b 469 243 464 138 469 174 l 469 271 b 381 447 469 357 436 419 b 296 457 360 456 360 456 l 238 458 l 233 461 b 231 483 231 465 231 467 b 235 504 231 500 231 500 b 242 508 238 507 240 508 b 322 515 246 508 314 514 b 447 729 407 526 447 624 b 399 850 447 790 435 828 b 333 869 378 864 361 869 b 211 832 292 869 244 856 b 183 806 200 825 182 807 b 193 803 183 806 188 804 b 258 722 231 799 258 763 b 176 643 258 679 226 643 "},"4":{"ha":694,"x_min":0,"x_max":0,"o":"m 642 0 b 463 4 622 4 499 4 b 276 0 425 4 296 4 l 264 0 l 264 64 l 307 64 b 381 71 351 65 369 67 b 397 85 388 72 394 79 b 399 160 399 88 399 113 l 399 229 l 39 229 l 39 293 l 249 614 b 464 938 381 814 461 936 b 493 940 467 940 469 940 l 518 940 l 526 932 l 526 293 l 654 293 l 654 229 l 526 229 l 526 158 b 535 75 526 82 526 83 b 614 64 544 67 557 65 l 654 64 l 654 0 l 642 0 m 407 757 l 103 294 l 254 293 l 407 293 "},"5":{"ha":694,"x_min":0,"x_max":0,"o":"m 149 297 b 228 217 193 297 228 264 b 151 140 228 172 188 140 l 142 140 l 146 133 b 311 31 172 78 229 31 b 453 114 382 31 426 63 b 479 292 472 151 479 206 b 442 485 479 399 469 447 b 353 531 419 513 399 531 b 189 436 278 531 221 490 b 158 422 182 424 179 422 b 132 431 139 422 135 424 b 129 674 129 436 129 457 b 128 844 129 749 128 804 b 136 922 128 897 129 922 b 142 925 138 924 140 925 b 167 917 143 925 154 921 b 351 881 222 894 279 881 b 540 919 417 881 482 894 b 558 925 549 924 554 925 b 569 900 567 925 569 917 l 569 882 b 285 747 507 807 418 747 b 207 756 258 747 231 750 l 193 758 l 193 519 b 356 583 236 554 282 583 b 413 576 375 583 394 581 b 624 279 535 546 624 426 b 318 -31 624 113 493 -31 b 169 18 253 -31 210 -14 b 124 64 157 26 133 50 b 71 188 94 99 78 142 b 69 214 71 196 69 206 b 149 297 69 268 103 297 "},"6":{"ha":694,"x_min":0,"x_max":0,"o":"m 518 835 b 432 869 496 857 468 867 b 269 786 354 869 308 836 b 204 506 226 726 204 633 b 206 500 204 501 206 500 b 217 518 207 500 213 511 b 371 601 250 567 293 601 b 483 575 417 601 447 594 b 604 440 528 550 576 496 b 633 292 625 392 633 363 l 633 267 b 626 207 633 242 632 229 b 540 53 615 150 588 101 b 407 -25 499 10 458 -14 b 351 -31 390 -29 371 -31 b 304 -26 335 -31 318 -29 b 140 85 239 -14 179 26 b 58 435 85 172 58 292 b 258 872 58 638 133 790 b 421 925 306 906 358 925 b 600 764 528 925 600 864 b 526 688 600 717 571 688 b 453 761 483 688 453 714 b 518 835 453 807 479 828 m 457 501 b 357 551 432 533 406 551 b 274 519 324 551 296 542 b 206 300 231 476 206 399 b 222 129 206 228 214 153 b 349 29 239 78 283 29 b 457 82 399 29 432 47 b 489 268 488 125 489 181 l 489 290 l 489 313 b 457 501 489 401 488 460 "},"7":{"ha":694,"x_min":0,"x_max":0,"o":"m 76 636 b 122 936 79 642 121 935 b 150 939 122 939 122 939 l 178 939 l 178 933 b 199 910 178 925 186 915 b 506 894 226 896 268 894 l 674 894 l 674 840 l 579 711 b 475 568 528 640 481 576 b 389 267 428 494 399 396 b 382 111 385 221 383 188 b 381 26 382 68 381 31 b 307 -31 374 -6 340 -31 b 233 56 264 -31 233 1 b 239 135 233 78 236 106 b 368 511 253 260 297 388 b 485 679 390 547 419 589 l 549 767 l 419 767 b 165 758 243 767 174 764 b 150 728 163 757 154 740 b 136 663 146 713 140 688 b 132 636 135 651 133 639 l 132 632 l 76 632 l 76 636 "},"8":{"ha":694,"x_min":0,"x_max":0,"o":"m 60 215 b 239 465 60 336 140 411 l 214 483 b 176 511 200 492 182 504 b 100 643 138 544 111 590 b 97 686 97 656 97 661 b 119 786 97 733 103 756 b 344 925 158 867 240 925 b 594 749 469 925 572 853 b 596 715 596 740 596 728 b 593 674 596 700 596 685 b 467 515 579 611 538 560 b 450 504 458 510 450 506 b 531 449 449 504 528 451 b 635 242 586 404 635 335 b 346 -31 635 93 514 -31 b 94 94 228 -31 142 21 b 60 215 72 126 60 163 m 515 713 b 382 867 515 797 450 853 b 336 868 372 868 351 868 b 213 818 281 868 242 847 b 178 742 192 799 178 775 b 228 647 178 701 201 665 b 317 589 232 643 272 617 l 397 536 b 440 567 408 544 425 553 b 515 713 482 600 515 647 m 149 218 b 347 29 149 106 246 29 b 521 114 425 29 490 67 b 544 190 536 138 544 164 b 496 296 544 228 528 265 b 381 375 482 310 481 310 b 292 432 333 406 293 431 b 275 424 290 432 283 428 b 160 285 219 388 178 339 b 149 218 153 263 149 240 "},"9":{"ha":694,"x_min":0,"x_max":0,"o":"m 240 133 b 188 61 240 94 218 67 b 182 60 185 61 182 60 b 207 44 182 58 199 47 b 286 31 229 35 253 31 b 322 33 307 31 313 31 b 435 119 368 44 404 72 b 489 389 472 174 489 283 l 489 399 l 482 388 b 322 293 446 328 390 293 b 133 389 246 293 186 324 b 58 606 82 453 58 506 b 154 842 58 717 86 774 b 326 924 201 889 244 915 b 338 925 328 924 332 925 b 357 924 343 925 350 924 b 397 921 376 924 386 924 b 574 778 479 903 536 847 b 633 464 615 693 633 599 b 550 135 633 319 606 225 b 289 -31 485 31 389 -31 b 94 129 178 -31 94 22 b 168 207 94 181 122 207 b 240 133 210 207 240 181 m 381 865 b 342 868 374 867 356 868 b 251 831 300 868 275 854 b 204 613 214 790 204 751 b 211 463 204 551 208 485 b 339 344 219 393 267 344 l 344 344 b 488 597 451 354 488 475 b 476 753 488 650 483 724 b 381 865 467 806 426 854 "}," ":{"ha":347,"x_min":0,"x_max":0,"o":""},"!":{"ha":386,"x_min":0,"x_max":0,"o":"m 108 918 b 192 994 108 956 143 994 b 276 918 236 994 276 960 b 219 286 276 904 221 292 b 193 275 217 276 211 275 b 165 286 174 275 168 276 b 108 918 164 292 108 904 m 196 168 b 275 85 240 164 275 136 b 238 14 275 47 260 26 b 193 1 224 4 211 1 b 147 14 174 1 161 4 b 110 85 125 26 110 47 b 196 168 110 139 147 168 "},"\"":{"ha":694,"x_min":0,"x_max":0,"o":"m 47 881 b 129 964 47 926 81 964 b 192 938 158 964 174 954 b 233 804 221 904 233 868 b 194 644 233 735 219 693 b 126 547 175 604 156 576 b 101 526 113 533 107 526 b 69 557 94 526 69 553 b 86 579 69 563 78 571 b 182 794 144 639 178 711 b 181 811 182 804 182 811 b 171 806 181 811 176 808 b 131 796 158 799 144 796 b 47 881 83 796 47 833 m 331 881 b 413 964 331 926 364 964 b 475 938 442 964 457 954 b 517 804 504 904 517 868 b 478 644 517 735 503 693 b 410 547 458 604 439 576 b 385 526 396 533 390 526 b 353 557 378 526 353 553 b 369 579 353 563 361 571 b 465 794 428 639 461 711 b 464 811 465 804 465 811 b 454 806 464 811 460 808 b 414 796 442 799 428 796 b 331 881 367 796 331 833 "},"#":{"ha":1157,"x_min":0,"x_max":0,"o":"m 78 482 b 97 510 78 497 86 504 l 435 510 l 493 728 b 556 951 539 901 553 947 b 578 964 558 958 568 964 b 606 939 592 964 604 953 b 550 725 606 933 596 897 b 493 513 518 610 493 514 l 492 510 l 754 510 l 813 728 b 875 951 858 901 872 947 b 897 964 881 960 889 964 b 924 942 907 964 924 956 b 869 725 924 928 913 886 b 813 513 838 610 813 514 l 811 510 l 1058 510 b 1079 482 1069 504 1079 497 b 1065 458 1079 469 1074 463 b 926 454 1060 456 1058 454 l 794 454 l 767 349 b 738 242 751 292 739 243 b 899 240 738 240 771 240 b 1065 236 1058 240 1060 239 b 1079 213 1072 232 1079 225 b 1058 185 1079 197 1069 190 l 721 185 l 663 -33 b 600 -257 617 -207 603 -253 b 578 -269 594 -265 586 -269 b 551 -246 568 -269 551 -260 b 606 -29 551 -232 563 -190 b 663 182 638 85 663 181 l 664 185 l 401 185 l 343 -33 b 281 -257 297 -207 283 -253 b 258 -269 275 -265 267 -269 b 232 -246 249 -269 232 -260 b 286 -29 232 -232 243 -190 b 343 182 318 85 343 181 l 344 185 l 97 185 b 78 213 86 190 78 197 b 100 240 78 229 86 236 l 361 240 l 389 346 b 418 453 404 403 417 451 b 258 454 418 454 386 454 l 100 454 b 78 482 86 458 78 465 m 738 453 b 607 454 738 454 711 454 l 475 454 l 447 349 b 418 242 432 292 419 243 b 549 240 418 240 444 240 l 681 240 l 708 346 b 738 453 724 403 736 451 "},"$":{"ha":694,"x_min":0,"x_max":0,"o":"m 225 260 b 151 185 225 221 194 185 l 143 185 l 143 181 b 160 146 146 172 153 156 b 310 51 186 94 239 58 l 315 50 l 315 435 l 310 436 b 285 443 307 436 296 440 b 104 588 200 463 140 515 b 76 706 86 625 76 664 b 229 951 76 826 146 911 b 313 978 254 964 274 969 l 315 978 l 315 1042 l 379 1042 l 379 978 l 397 976 b 574 876 474 964 533 929 b 617 738 600 836 614 790 b 615 707 617 721 617 714 b 543 650 607 672 578 650 b 468 725 500 650 468 682 b 542 799 468 765 499 799 b 547 803 549 799 549 799 b 385 913 521 865 465 903 l 379 914 l 379 567 l 400 563 b 493 522 436 553 467 540 b 617 276 569 469 617 374 b 435 1 617 139 535 39 b 383 -12 419 -4 389 -12 l 379 -12 l 379 -78 l 315 -78 l 315 -14 l 307 -14 b 124 92 225 1 163 32 b 76 244 94 135 79 186 b 78 276 76 263 76 269 b 132 331 85 304 104 324 b 154 335 139 333 147 335 b 225 260 194 335 225 296 m 315 749 b 313 913 315 904 315 913 b 281 903 308 913 292 907 b 168 747 219 881 168 825 b 297 589 168 675 218 611 b 315 583 307 586 314 583 l 315 749 m 397 414 b 381 418 389 417 382 418 b 379 235 379 418 379 396 l 379 51 b 525 235 457 71 525 142 b 397 414 525 325 471 392 "},"%":{"ha":1157,"x_min":0,"x_max":0,"o":"m 443 890 b 461 761 443 890 461 844 b 407 560 461 675 443 613 b 281 482 381 519 338 482 b 189 513 243 482 215 496 b 78 761 122 558 78 646 b 257 1039 78 908 156 1022 b 281 1042 265 1040 272 1042 b 378 999 324 1042 353 1024 b 596 893 444 939 511 906 b 644 892 604 892 625 892 b 694 893 664 892 685 892 b 903 1017 781 907 851 950 b 935 1042 917 1036 917 1042 b 963 1008 951 1042 965 1026 b 236 -72 960 1004 249 -64 b 222 -78 232 -76 228 -78 b 193 -50 207 -78 193 -65 b 197 -37 193 -46 194 -42 b 504 422 199 -33 338 174 b 807 875 672 672 808 875 b 646 840 761 854 708 840 b 461 882 583 840 519 856 b 443 890 451 886 444 890 m 340 963 b 278 989 322 981 310 989 b 226 963 257 989 242 979 b 183 761 188 919 183 858 b 229 560 183 664 189 600 b 282 535 246 543 253 535 l 288 535 b 340 561 307 535 321 542 b 406 761 382 603 406 671 b 340 963 406 851 382 921 m 694 203 b 874 479 694 350 772 463 b 899 482 882 481 890 482 b 1024 406 954 482 997 443 b 1078 203 1060 351 1078 289 b 1024 0 1078 117 1060 53 b 897 -78 997 -40 954 -78 b 806 -47 860 -78 832 -64 b 694 203 739 -1 694 88 m 957 403 b 894 429 939 421 926 429 b 843 403 874 429 858 419 b 801 203 803 357 801 308 b 808 76 801 125 801 110 b 875 -22 818 28 843 -8 b 899 -25 883 -25 886 -25 l 904 -25 b 957 1 924 -25 938 -18 b 1022 203 999 43 1022 113 b 957 403 1022 293 999 361 "},"&":{"ha":1081,"x_min":0,"x_max":0,"o":"m 271 482 b 217 750 240 561 217 644 b 289 938 217 832 244 893 b 419 994 322 971 365 994 b 453 990 432 994 444 993 b 557 803 513 974 557 899 b 533 713 557 771 550 747 b 399 536 508 663 465 606 l 381 518 b 578 206 425 408 510 290 l 596 183 l 607 197 b 754 429 647 250 675 293 l 781 474 l 781 485 b 692 535 781 519 733 535 l 685 535 l 685 599 l 697 599 b 869 594 714 596 838 594 b 1001 599 900 594 983 594 l 1010 599 l 1010 535 l 989 535 b 844 478 918 531 868 511 b 803 410 842 475 824 443 b 639 157 724 272 685 214 b 631 143 632 149 629 144 b 690 86 633 139 676 97 b 813 33 736 49 774 33 b 947 157 883 33 942 90 l 947 168 l 1003 168 l 1003 156 b 797 -31 993 51 921 -31 b 575 58 719 -28 647 1 l 558 71 l 543 58 b 311 -31 469 -1 392 -31 b 58 188 171 -31 58 68 b 94 301 58 228 69 265 b 217 428 106 319 113 325 l 271 482 m 438 942 b 424 943 433 943 429 943 b 322 794 356 943 322 874 b 354 592 322 717 333 656 l 360 571 l 371 583 b 500 781 453 669 490 728 b 501 800 500 786 501 793 b 497 843 501 813 500 828 b 438 942 489 900 469 932 m 194 228 b 333 33 194 111 251 33 b 508 97 390 33 454 57 b 519 107 515 101 519 106 b 511 117 519 107 515 111 b 326 364 457 168 374 282 l 306 406 l 292 431 l 268 407 b 194 228 219 358 194 319 "},"'":{"ha":386,"x_min":0,"x_max":0,"o":"m 108 881 b 192 964 108 926 143 964 b 254 938 221 964 236 954 b 294 804 283 904 294 868 b 257 644 294 735 282 693 b 189 547 238 604 218 576 b 164 526 175 533 169 526 b 132 557 157 526 132 553 b 149 579 132 563 140 571 b 244 794 207 639 240 711 b 243 811 244 804 244 811 b 233 806 243 811 239 808 b 193 796 221 799 207 796 b 108 881 146 796 108 833 "},"(":{"ha":540,"x_min":0,"x_max":0,"o":"m 463 -335 b 438 -347 463 -346 456 -347 l 419 -347 l 381 -314 b 131 347 222 -169 131 54 b 171 657 131 475 143 560 b 381 1008 213 799 285 921 l 419 1042 l 438 1042 b 458 1038 454 1042 454 1042 b 463 1029 461 1035 463 1032 b 447 1008 463 1024 461 1022 b 232 347 301 854 232 643 b 447 -314 232 51 301 -160 b 463 -335 461 -328 463 -329 "},")":{"ha":540,"x_min":0,"x_max":0,"o":"m 83 1040 b 103 1042 86 1040 92 1042 l 119 1042 l 158 1008 b 408 347 317 864 408 640 b 368 39 408 221 396 133 b 158 -314 326 -104 254 -226 l 119 -347 l 103 -347 b 76 -331 82 -347 76 -346 b 92 -312 78 -329 85 -321 b 307 347 239 -160 307 53 b 92 1007 307 642 239 854 b 76 1025 85 1015 78 1024 b 83 1040 76 1031 79 1038 "},"*":{"ha":694,"x_min":0,"x_max":0,"o":"m 139 568 b 89 621 110 568 89 594 b 104 653 89 632 97 647 l 200 700 l 292 742 l 200 786 b 103 833 133 817 107 829 b 89 867 94 840 89 854 b 119 913 89 889 103 904 b 154 913 129 917 144 918 b 239 851 157 911 196 883 l 318 793 b 299 1001 318 814 299 971 b 344 1042 300 1021 319 1042 b 394 1001 374 1042 393 1024 b 375 793 394 1000 375 793 l 454 851 b 539 913 497 883 536 911 b 574 913 549 918 564 917 b 604 867 590 904 604 889 b 590 833 604 854 599 840 b 493 786 586 829 560 817 l 401 742 l 493 700 l 589 653 b 604 621 596 647 604 632 b 574 572 604 599 589 583 b 539 572 564 568 549 567 b 454 633 536 574 497 601 l 375 692 b 394 483 375 690 394 485 b 347 444 393 464 375 444 b 299 483 318 444 300 463 b 318 692 299 485 318 692 l 239 633 b 154 572 196 601 157 574 b 139 568 149 569 144 568 "},"+":{"ha":1081,"x_min":0,"x_max":0,"o":"m 78 347 b 97 375 78 363 86 369 l 513 375 l 513 583 l 514 792 b 540 810 519 799 526 810 b 568 789 554 810 563 800 l 568 375 l 982 375 b 1003 347 993 369 1003 363 b 982 319 1003 332 993 325 l 568 319 l 568 -94 b 540 -114 563 -106 556 -114 b 513 -94 525 -114 518 -106 l 513 319 l 97 319 b 78 347 86 325 78 332 "},",":{"ha":386,"x_min":0,"x_max":0,"o":"m 108 83 b 190 168 108 129 142 168 b 292 11 265 168 292 92 b 289 -37 292 -7 290 -26 b 188 -250 276 -119 243 -190 b 163 -269 175 -262 168 -269 b 132 -239 156 -269 132 -246 b 146 -218 132 -235 135 -229 b 240 -4 204 -158 235 -86 l 240 13 b 232 8 239 13 236 11 b 194 0 219 3 207 0 b 108 83 146 0 108 36 "},"-":{"ha":463,"x_min":0,"x_max":0,"o":"m 15 350 l 385 350 l 385 249 l 15 249 "},".":{"ha":386,"x_min":0,"x_max":0,"o":"m 108 83 b 192 167 108 131 144 167 b 276 85 242 167 276 128 b 193 0 276 35 236 0 b 108 83 143 0 108 40 "},"/":{"ha":694,"x_min":0,"x_max":0,"o":"m 104 -347 b 78 -321 90 -347 78 -335 b 565 1028 78 -300 563 1024 b 590 1042 569 1036 576 1042 b 617 1014 606 1040 618 1028 b 128 -333 617 1004 136 -317 b 104 -347 122 -342 114 -347 "},":":{"ha":386,"x_min":0,"x_max":0,"o":"m 108 514 b 192 597 108 561 144 597 b 276 515 242 597 276 558 b 193 431 276 465 236 431 b 108 514 143 431 108 471 m 108 83 b 192 167 108 131 144 167 b 276 85 242 167 276 128 b 193 0 276 35 236 0 b 108 83 143 0 108 40 "},";":{"ha":386,"x_min":0,"x_max":0,"o":"m 108 514 b 192 597 108 561 144 597 b 276 515 242 597 276 558 b 193 431 276 465 236 431 b 108 514 143 431 108 471 m 108 83 b 190 168 108 132 142 168 b 281 11 263 168 281 86 b 275 -56 281 -11 279 -35 b 181 -257 263 -129 228 -201 b 164 -269 172 -265 168 -269 b 132 -242 157 -269 135 -247 b 146 -218 131 -236 133 -233 b 222 -53 185 -169 213 -112 b 229 6 226 -36 231 6 b 197 0 229 6 203 1 b 108 83 144 0 108 35 "},"<":{"ha":1081,"x_min":0,"x_max":0,"o":"m 964 -26 b 942 -56 964 -36 956 -56 b 125 326 919 -56 125 326 b 115 347 119 331 115 339 b 126 369 115 356 119 365 b 942 750 126 369 922 750 b 964 721 956 750 964 731 b 954 701 964 713 961 707 b 579 522 951 699 783 619 l 210 347 l 579 172 b 954 -7 783 75 951 -4 b 964 -26 961 -12 964 -18 "},"=":{"ha":1081,"x_min":0,"x_max":0,"o":"m 78 482 b 97 510 78 497 86 504 l 982 510 b 1003 482 993 504 1003 497 b 983 456 1003 467 993 461 l 542 454 l 100 454 b 78 482 86 458 78 465 m 78 213 b 100 240 78 229 86 236 l 983 240 b 1003 213 992 233 1003 229 b 982 185 1003 197 993 190 l 97 185 b 78 213 86 190 78 197 "},">":{"ha":1081,"x_min":0,"x_max":0,"o":"m 117 722 b 138 750 117 735 125 750 b 954 368 160 750 954 368 b 964 347 960 364 964 356 b 954 326 964 339 960 331 b 549 133 951 324 769 238 l 149 -56 l 140 -56 b 115 -28 125 -54 115 -42 b 119 -12 115 -22 117 -18 b 525 183 125 -6 86 -24 l 869 347 l 525 511 b 119 707 85 719 125 700 b 117 722 117 713 117 714 "},"?":{"ha":656,"x_min":0,"x_max":0,"o":"m 151 714 b 76 786 110 714 76 742 b 160 935 76 856 114 908 b 276 978 193 957 238 974 b 311 979 283 978 299 979 l 317 979 b 557 869 435 979 521 940 b 578 788 571 843 578 815 b 501 642 578 721 543 674 b 343 421 418 582 361 503 b 336 335 338 394 336 382 b 328 276 336 283 336 281 b 308 275 324 275 318 275 b 282 282 292 275 285 276 b 281 346 281 285 281 301 b 331 575 283 457 293 500 b 401 678 351 615 372 646 b 440 797 435 713 440 732 l 440 815 b 415 900 440 857 436 879 b 314 928 394 917 361 928 b 185 889 263 928 219 915 b 158 863 178 882 158 864 b 215 825 158 861 200 857 b 225 788 221 815 225 799 b 151 714 225 744 193 714 m 311 168 b 390 85 356 164 390 136 b 353 14 390 47 375 26 b 308 1 339 4 326 1 b 263 14 289 1 276 4 b 225 85 240 26 225 47 b 311 168 225 139 263 168 "},"@":{"ha":1081,"x_min":0,"x_max":0,"o":"m 1003 485 b 844 175 1003 328 981 175 b 713 244 779 175 733 204 b 707 254 710 249 708 254 b 690 239 707 254 700 247 b 535 175 651 200 607 175 b 500 176 521 175 508 175 b 274 397 382 204 304 281 b 264 482 265 431 264 444 b 315 663 264 557 282 615 b 500 788 358 731 422 772 b 535 789 508 789 521 789 b 733 674 633 789 693 735 l 738 665 l 771 665 b 808 664 792 665 806 665 b 817 469 817 661 817 674 b 824 253 817 269 817 271 b 860 226 831 236 836 226 b 894 236 875 226 885 229 b 947 458 938 265 947 358 b 899 694 947 560 935 618 b 707 888 856 779 789 847 b 539 928 653 914 596 928 b 372 888 482 928 426 914 b 133 482 238 821 133 682 b 151 347 133 438 139 392 b 476 42 193 196 315 72 b 550 36 497 38 522 36 b 903 113 665 36 814 71 l 913 117 l 994 117 b 1003 103 999 113 1003 108 b 888 46 1003 88 935 64 b 544 -15 781 7 657 -15 b 343 32 472 -15 407 0 b 79 422 207 100 103 238 b 78 482 78 436 78 458 b 501 978 78 761 275 956 b 536 979 513 979 524 979 b 736 932 604 979 675 963 b 1000 543 872 864 976 725 b 1003 485 1001 528 1003 507 m 574 735 b 538 739 564 738 550 739 b 519 738 531 739 524 739 b 381 482 431 717 381 600 b 429 297 381 403 397 343 b 542 225 461 249 499 225 b 574 229 551 225 563 226 b 692 326 619 242 661 275 l 700 340 l 700 624 l 692 638 b 574 735 661 689 619 722 "},"A":{"ha":1042,"x_min":0,"x_max":0,"o":"m 354 0 b 194 4 338 3 226 4 b 54 0 164 4 71 4 l 44 0 l 44 64 l 65 64 b 193 122 132 67 175 88 b 483 983 197 132 479 979 b 510 994 488 993 494 994 l 522 994 b 556 985 547 993 550 993 b 706 542 557 983 625 783 l 857 93 b 867 79 860 88 863 83 b 954 64 879 68 892 65 l 996 64 l 996 0 l 983 0 b 807 4 963 4 844 4 b 607 0 768 4 628 4 l 593 0 l 593 64 l 611 64 b 708 89 656 64 708 69 b 675 192 708 92 693 138 l 642 290 l 318 290 l 290 208 b 263 118 269 147 263 128 b 267 106 263 113 264 110 b 360 64 278 82 319 64 l 367 64 l 367 0 l 354 0 m 479 774 l 339 356 b 479 354 339 354 400 354 l 621 354 "},"B":{"ha":983,"x_min":0,"x_max":0,"o":"m 182 864 b 85 885 165 881 164 883 l 39 885 l 39 949 l 318 949 b 615 944 596 947 597 947 b 738 904 664 936 701 925 b 850 788 789 875 829 833 b 867 711 861 763 867 735 b 661 500 867 617 783 531 l 647 496 b 903 293 774 481 878 407 b 904 260 904 285 904 272 b 901 217 904 244 904 228 b 651 4 878 108 781 24 b 336 0 633 1 632 1 l 39 0 l 39 64 l 85 64 b 182 85 164 65 165 68 l 182 864 m 710 713 b 578 883 710 800 656 868 b 463 885 572 883 518 885 b 344 883 407 885 353 883 b 322 872 332 882 325 878 b 318 693 319 868 318 864 l 318 519 l 433 519 l 550 521 l 564 524 b 586 531 571 526 582 529 b 710 713 656 556 710 621 m 746 261 b 597 467 746 369 682 447 l 457 468 l 318 468 l 318 278 b 319 82 318 143 318 85 b 325 72 321 78 324 74 b 464 65 333 65 335 65 l 532 65 b 615 74 593 65 594 67 b 746 261 694 100 746 175 "},"C":{"ha":1003,"x_min":0,"x_max":0,"o":"m 925 349 l 925 328 b 650 -19 917 163 808 22 b 560 -29 615 -28 600 -29 b 472 -21 522 -29 503 -28 b 79 415 267 19 113 183 b 78 475 78 428 78 451 b 79 535 78 499 78 521 b 472 971 111 763 267 928 b 543 979 494 975 517 979 b 567 978 550 979 558 978 b 614 975 589 978 600 978 b 790 883 682 963 739 933 l 808 867 l 850 921 b 893 978 872 951 892 976 b 907 979 896 978 900 979 b 925 971 919 979 919 976 l 925 582 l 917 574 l 869 574 b 860 597 863 581 861 579 b 661 904 843 749 765 869 b 592 914 639 913 622 914 b 350 817 485 914 411 878 b 240 475 275 742 240 635 b 293 210 240 364 258 274 b 594 33 350 103 461 33 b 863 278 735 33 842 151 b 869 339 867 299 869 324 b 878 357 869 351 872 351 l 917 357 "},"D":{"ha":1061,"x_min":0,"x_max":0,"o":"m 181 864 b 83 885 164 881 163 883 l 38 885 l 38 949 l 317 949 b 640 939 624 947 599 949 b 981 526 825 899 956 726 b 983 467 982 513 983 489 b 981 407 983 444 982 421 b 614 4 956 206 818 38 b 317 0 596 1 594 1 l 38 0 l 38 64 l 83 64 b 181 85 163 65 164 68 l 181 864 m 549 883 b 447 885 540 883 493 885 b 347 883 401 885 356 883 b 325 872 335 882 328 878 b 321 478 322 868 321 864 b 322 82 321 199 321 86 b 339 67 324 74 331 68 b 471 64 344 65 413 64 b 715 132 588 64 647 76 b 824 469 799 201 824 314 b 814 614 824 524 821 578 b 685 836 799 717 757 788 b 549 883 647 861 597 879 "},"E":{"ha":946,"x_min":0,"x_max":0,"o":"m 178 860 b 81 881 161 876 160 879 l 35 881 l 35 944 l 829 944 l 829 939 b 868 617 829 938 868 618 l 868 611 l 813 611 l 813 617 b 808 646 811 621 810 633 b 585 879 786 819 736 871 b 490 881 571 881 532 881 b 340 878 422 881 346 879 b 324 863 332 876 326 871 b 322 690 322 860 322 807 l 322 522 l 397 522 b 508 531 476 524 488 524 b 578 657 564 546 575 585 l 578 685 l 633 685 l 633 296 l 578 296 l 578 324 b 508 450 575 396 564 435 b 397 458 488 457 476 457 l 322 458 l 322 272 b 324 82 322 142 322 85 b 329 72 325 78 328 74 b 401 65 336 67 339 65 l 472 65 b 617 67 581 65 597 65 b 811 203 724 79 779 118 b 843 338 825 240 833 275 b 850 375 846 356 849 372 l 850 379 l 906 379 l 906 375 b 847 4 901 367 851 13 l 847 0 l 35 0 l 35 64 l 81 64 b 178 85 160 65 161 68 l 178 860 "},"F":{"ha":907,"x_min":0,"x_max":0,"o":"m 178 860 b 81 881 161 876 160 879 l 35 881 l 35 944 l 808 944 l 808 939 b 847 617 808 938 847 618 l 847 611 l 792 611 l 792 617 b 779 696 785 665 783 679 b 632 872 763 799 726 853 b 464 879 596 879 586 879 l 397 879 b 329 872 339 879 336 878 b 324 863 328 871 325 867 b 322 681 322 860 322 804 l 322 504 l 394 504 b 569 638 529 507 563 513 l 569 667 l 625 667 l 625 278 l 569 278 l 569 307 b 394 440 563 432 529 438 l 322 440 l 322 263 l 324 85 b 396 65 339 69 343 68 b 463 64 411 64 442 64 l 500 64 l 500 0 l 483 0 b 253 4 460 3 297 4 b 50 0 208 4 76 4 l 35 0 l 35 64 l 81 64 b 178 85 160 65 161 68 l 178 860 "},"G":{"ha":1090,"x_min":0,"x_max":0,"o":"m 624 379 b 846 375 646 376 804 375 b 925 376 874 375 897 376 b 1010 379 967 378 1004 378 l 1021 379 l 1021 315 l 1001 315 l 988 315 b 928 299 958 315 936 314 b 925 150 925 293 925 286 l 925 8 b 913 0 919 3 917 0 b 888 14 908 0 901 4 b 833 58 865 29 851 40 l 815 75 b 700 -8 793 38 744 11 b 564 -31 658 -22 611 -31 b 472 -21 533 -31 501 -28 b 79 415 267 19 113 183 b 78 475 78 428 78 451 b 79 535 78 499 78 521 b 472 971 111 763 267 928 b 543 979 494 975 517 979 b 567 978 550 979 558 978 b 614 975 589 978 600 978 b 790 883 682 963 739 933 l 808 867 l 850 921 b 893 978 872 951 892 976 b 907 979 896 978 900 979 b 925 971 919 979 919 976 l 925 582 l 917 574 l 869 574 b 860 597 863 581 861 579 b 661 904 843 749 765 869 b 592 914 639 913 622 914 b 350 817 485 914 411 878 b 240 465 271 738 240 624 b 344 140 240 317 275 213 b 599 33 408 72 503 33 b 776 139 686 33 758 76 b 781 222 779 149 781 150 l 781 294 b 747 311 771 301 764 310 b 643 315 732 314 683 315 l 607 315 l 607 379 l 624 379 "},"H":{"ha":1042,"x_min":0,"x_max":0,"o":"m 178 864 b 81 885 161 881 160 883 l 35 885 l 35 949 l 50 949 b 250 944 74 944 208 944 b 450 949 292 944 426 944 l 465 949 l 465 885 l 419 885 b 324 864 344 883 336 882 l 322 694 l 322 525 l 718 525 l 718 864 b 621 885 701 881 700 883 l 575 885 l 575 949 l 590 949 b 790 944 614 944 749 944 b 990 949 832 944 967 944 l 1006 949 l 1006 885 l 960 885 b 864 864 885 883 876 882 l 864 85 b 960 64 876 67 885 65 l 1006 64 l 1006 0 l 990 0 b 790 4 967 4 832 4 b 590 0 749 4 614 4 l 575 0 l 575 64 l 621 64 b 718 85 700 65 701 68 l 718 461 l 322 461 l 322 274 l 324 85 b 419 64 336 67 344 65 l 465 64 l 465 0 l 450 0 b 250 4 426 4 292 4 b 50 0 208 4 74 4 l 35 0 l 35 64 l 81 64 b 178 85 160 65 161 68 l 178 864 "},"I":{"ha":501,"x_min":0,"x_max":0,"o":"m 456 0 b 250 4 433 4 292 4 b 44 0 208 4 67 4 l 29 0 l 29 64 l 60 64 b 151 68 97 64 139 67 b 175 83 164 71 171 76 b 178 475 178 88 178 101 b 175 865 178 847 178 861 b 151 881 171 872 164 878 b 60 885 139 882 97 885 l 29 885 l 29 949 l 44 949 b 250 944 67 944 208 944 b 456 949 292 944 433 944 l 471 949 l 471 885 l 440 885 b 349 881 403 885 361 882 b 325 865 336 878 329 872 b 322 475 322 861 322 847 b 325 83 322 101 322 88 b 349 68 329 76 336 71 b 440 64 361 67 403 64 l 471 64 l 471 0 l 456 0 "},"J":{"ha":714,"x_min":0,"x_max":0,"o":"m 124 246 b 211 156 172 246 211 213 b 142 72 211 110 179 79 b 140 68 138 71 138 71 b 179 40 146 61 165 49 b 264 21 206 28 238 21 b 296 25 276 21 288 22 b 397 175 350 42 389 100 b 399 525 397 185 399 356 b 397 863 399 694 397 860 b 363 881 392 872 382 878 b 253 885 346 883 296 885 l 214 885 l 214 949 l 231 949 b 461 944 251 946 418 944 b 546 946 489 944 515 946 b 635 949 588 947 628 947 l 646 949 l 646 885 l 624 885 b 557 881 597 885 567 882 b 540 865 550 878 543 871 b 539 522 539 863 539 758 b 538 171 539 235 539 182 b 269 -31 519 53 399 -31 b 222 -28 254 -31 232 -28 b 36 132 122 -11 50 51 b 35 153 35 139 35 146 b 124 246 35 211 74 246 "},"K":{"ha":1081,"x_min":0,"x_max":0,"o":"m 178 864 b 81 885 161 881 160 883 l 35 885 l 35 949 l 50 949 b 250 944 74 944 208 944 b 450 949 292 944 426 944 l 465 949 l 465 885 l 435 885 l 401 885 b 324 861 364 885 326 882 b 322 642 322 858 322 760 l 324 426 l 526 624 b 732 828 671 765 729 822 b 738 843 735 832 736 838 b 699 883 738 867 719 878 b 685 885 693 883 688 885 l 679 885 l 679 949 l 693 949 b 875 944 708 946 843 944 b 935 946 896 944 915 946 b 994 949 964 947 990 947 l 1003 949 l 1003 885 l 983 885 b 818 829 914 881 860 863 b 564 582 808 821 564 583 b 876 111 564 581 867 125 b 910 79 885 99 900 85 b 993 64 928 69 950 65 l 1022 64 l 1022 0 l 1011 0 b 931 3 1006 1 969 1 b 854 4 903 3 879 4 b 656 0 817 4 675 3 l 640 0 l 640 64 l 651 64 b 715 100 686 64 715 71 b 711 117 715 106 714 111 l 467 488 b 386 411 439 464 413 436 l 322 349 l 322 217 b 326 81 322 86 324 85 b 419 64 336 68 349 65 l 465 64 l 465 0 l 450 0 b 250 4 426 4 292 4 b 50 0 208 4 74 4 l 35 0 l 35 64 l 81 64 b 178 85 160 65 161 68 l 178 864 "},"L":{"ha":868,"x_min":0,"x_max":0,"o":"m 178 864 b 81 885 161 881 160 883 l 35 885 l 35 949 l 50 949 b 253 944 75 944 210 944 b 483 949 299 944 458 944 l 500 949 l 500 885 l 463 885 b 396 883 442 885 411 885 b 324 864 343 881 339 879 l 322 475 b 324 82 322 199 322 86 b 329 72 325 78 328 74 b 435 65 338 65 342 65 b 569 74 528 65 533 65 b 744 307 681 106 725 175 b 753 378 746 322 753 375 b 781 379 753 379 765 379 l 808 379 l 808 372 b 769 7 804 364 774 15 l 769 0 l 35 0 l 35 64 l 81 64 b 178 85 160 65 161 68 l 178 864 "},"M":{"ha":1274,"x_min":0,"x_max":0,"o":"m 183 864 b 86 885 167 881 165 883 l 40 885 l 40 949 l 188 949 b 339 944 335 949 335 947 l 346 938 b 492 553 347 936 413 763 l 636 172 l 781 553 b 928 938 860 763 925 936 b 933 944 929 940 932 943 b 1085 949 938 947 938 949 l 1232 949 l 1232 885 l 1186 885 b 1090 864 1111 883 1103 882 l 1090 85 b 1186 64 1103 67 1111 65 l 1232 64 l 1232 0 l 1217 0 b 1022 4 1194 4 1063 4 b 828 0 982 4 850 4 l 813 0 l 813 64 l 858 64 b 956 85 938 65 939 68 l 956 482 b 954 878 956 701 956 879 b 625 10 954 878 631 19 b 597 1 619 1 617 1 b 569 10 578 1 575 1 b 406 439 568 13 494 206 l 244 867 b 243 494 243 868 243 700 l 244 119 b 363 64 258 78 306 67 l 386 64 l 386 0 l 374 0 b 214 4 356 4 247 4 b 51 0 181 4 69 4 l 40 0 l 40 64 l 64 64 b 179 111 117 67 163 78 l 183 119 l 183 864 "},"N":{"ha":1042,"x_min":0,"x_max":0,"o":"m 368 0 b 208 4 350 4 242 4 b 46 0 175 4 64 4 l 35 0 l 35 64 l 58 64 b 174 111 111 67 157 78 l 178 119 l 178 881 l 172 881 b 72 885 163 883 108 885 l 35 885 l 35 949 l 322 949 l 326 944 b 803 247 333 942 801 247 l 803 831 b 683 885 783 868 743 882 l 660 885 l 660 949 l 671 949 b 833 944 688 946 800 944 b 993 949 867 944 975 944 l 1006 949 l 1006 885 l 982 885 b 864 831 926 882 878 871 l 863 419 l 863 8 l 853 0 l 833 0 b 808 4 813 0 813 0 b 238 840 796 17 242 833 l 238 479 l 239 119 b 357 64 253 78 300 67 l 381 64 l 381 0 l 368 0 "},"O":{"ha":1081,"x_min":0,"x_max":0,"o":"m 1003 474 b 539 -31 1003 193 794 -31 b 471 -25 517 -31 494 -29 b 85 379 275 7 119 169 b 78 472 78 414 78 429 b 192 807 78 619 125 721 b 265 879 210 828 244 864 b 503 978 335 936 418 969 b 539 979 515 979 526 979 b 815 879 636 979 733 944 b 888 807 835 864 869 828 b 1000 532 950 729 986 638 b 1003 474 1001 519 1003 496 m 649 899 b 539 924 614 914 583 924 b 432 899 503 924 467 915 b 249 610 333 850 268 749 b 242 492 242 571 242 550 b 385 85 242 306 281 168 b 540 28 428 49 471 28 b 579 29 556 28 571 28 b 746 138 647 43 706 88 b 838 492 813 226 838 338 b 831 610 838 550 838 571 b 649 899 811 749 746 850 "},"P":{"ha":946,"x_min":0,"x_max":0,"o":"m 181 864 b 83 885 164 881 163 883 l 38 885 l 38 949 l 297 949 b 574 947 464 949 564 949 b 864 721 713 936 839 849 b 867 679 867 710 867 694 b 864 639 867 664 867 650 b 626 426 842 529 739 450 b 456 418 590 418 596 419 l 325 418 l 325 251 b 329 81 325 85 326 85 b 422 64 339 68 351 65 l 468 64 l 468 0 l 453 0 b 253 4 429 4 294 4 b 53 0 211 4 76 4 l 38 0 l 38 64 l 83 64 b 181 85 163 65 164 68 l 181 864 m 658 839 b 463 885 607 882 563 885 l 426 885 b 349 883 389 885 356 883 b 325 872 335 882 328 879 b 321 671 322 868 321 864 l 321 475 l 419 475 b 535 476 474 475 526 475 b 704 678 658 488 704 542 b 658 839 704 760 697 804 "},"Q":{"ha":1081,"x_min":0,"x_max":0,"o":"m 539 -31 b 78 474 283 -31 78 193 b 79 532 78 496 78 519 b 192 807 93 642 135 733 b 265 879 210 828 244 864 b 503 978 335 936 418 969 b 539 979 515 979 526 979 b 815 879 636 979 733 944 b 888 807 835 864 869 828 b 1000 532 950 729 986 638 b 1003 474 1001 519 1003 496 b 1000 415 1003 451 1001 428 b 883 135 988 307 949 213 b 744 21 843 88 799 51 b 726 11 735 17 726 13 b 751 -36 726 11 744 -25 b 854 -106 778 -82 806 -106 b 981 -4 925 -106 975 -67 b 994 14 982 10 988 14 b 1011 7 1000 14 1006 11 l 1010 -18 b 876 -265 1010 -151 954 -247 b 842 -268 868 -268 854 -268 b 750 -233 797 -268 774 -257 b 692 -115 724 -208 706 -172 b 671 -11 688 -99 671 -14 b 539 -31 671 -10 611 -31 m 418 94 b 543 215 418 164 476 215 b 599 203 565 215 581 210 b 688 97 633 185 661 153 l 696 81 b 746 128 707 88 733 114 b 843 471 811 207 843 321 b 769 786 843 604 819 707 b 569 922 721 863 649 911 b 542 924 560 924 551 924 b 376 861 483 924 425 901 b 328 811 363 850 339 825 b 236 471 267 729 236 619 b 385 79 236 285 283 161 b 424 54 396 71 422 54 b 422 64 424 56 422 58 b 418 94 419 71 418 83 m 469 93 b 535 25 469 56 496 25 b 618 39 561 25 592 29 b 656 56 635 44 656 53 b 640 96 656 58 646 86 b 536 163 621 142 593 163 b 469 93 496 163 469 126 "},"R":{"ha":1022,"x_min":0,"x_max":0,"o":"m 181 864 b 83 885 164 881 163 883 l 38 885 l 38 949 l 281 949 b 583 939 550 947 535 949 b 694 900 624 931 658 919 b 846 718 779 857 833 792 b 847 696 847 711 847 703 b 649 475 847 583 743 506 b 633 469 642 472 635 471 b 649 461 633 469 638 465 b 772 314 704 431 756 379 b 803 131 775 301 800 142 b 865 25 817 64 833 36 b 889 22 871 22 876 22 l 896 22 b 929 38 911 22 918 26 b 961 121 949 57 958 83 b 989 146 961 142 965 146 b 1017 125 1011 146 1017 143 b 933 -22 1017 57 979 -3 b 875 -31 915 -29 903 -31 b 636 125 742 -25 657 29 b 624 342 628 164 639 290 b 518 444 607 392 567 431 l 504 447 l 413 449 l 321 449 l 321 267 l 322 85 b 418 64 335 67 343 65 l 464 64 l 464 0 l 449 0 b 251 4 426 4 292 4 b 53 0 210 4 75 4 l 38 0 l 38 64 l 83 64 b 181 85 163 65 164 68 l 181 864 m 681 749 b 422 885 661 869 568 885 b 347 883 388 885 356 883 b 325 872 335 882 328 878 b 321 683 322 868 321 864 l 321 500 l 401 500 b 643 556 521 500 589 501 b 682 693 676 589 682 622 b 681 749 682 725 682 738 "},"S":{"ha":772,"x_min":0,"x_max":0,"o":"m 124 315 b 132 297 129 310 132 310 b 424 33 132 129 251 33 b 446 35 432 33 440 33 b 583 215 526 51 583 124 b 472 390 583 294 538 368 b 369 417 467 392 419 403 b 263 443 318 429 269 440 b 76 704 160 478 76 576 b 226 950 76 821 146 910 b 338 978 263 968 292 978 b 515 931 419 978 465 965 b 563 890 532 919 551 901 l 592 933 b 624 978 608 956 622 976 b 638 979 626 978 631 979 b 656 971 650 979 650 976 l 656 642 l 647 633 l 622 633 b 597 665 601 633 603 635 b 457 897 582 781 533 860 b 353 919 425 911 388 919 b 188 753 256 919 188 850 b 278 604 188 690 221 633 b 514 540 306 592 493 551 b 694 265 614 501 694 401 b 468 -26 694 110 600 1 b 418 -29 454 -29 449 -29 b 169 57 235 -29 175 63 b 108 -29 157 39 110 -26 b 94 -31 106 -31 101 -31 b 76 -22 82 -31 82 -28 l 76 140 b 78 308 76 264 76 306 b 106 315 81 314 86 315 l 124 315 "},"T":{"ha":1003,"x_min":0,"x_max":0,"o":"m 50 615 b 76 932 51 619 75 926 l 76 940 l 925 940 l 925 932 b 951 615 926 928 950 621 l 951 607 l 896 607 l 896 615 b 892 649 894 621 893 635 b 847 824 885 742 871 796 b 771 868 832 842 803 858 b 664 875 742 875 731 875 l 626 875 b 575 858 585 875 581 875 b 574 471 574 856 574 743 l 574 88 b 608 68 581 78 590 71 b 733 64 625 67 683 64 l 775 64 l 775 0 l 757 0 b 501 4 728 4 553 4 b 246 0 449 4 275 4 l 228 0 l 228 64 l 269 64 b 394 68 319 64 378 67 b 429 88 413 71 422 78 l 429 471 b 428 858 429 743 429 856 b 376 875 422 875 418 875 l 339 875 b 260 874 285 875 274 875 b 165 835 218 867 190 856 b 110 649 135 808 118 756 b 106 615 108 635 107 621 l 106 607 l 50 607 l 50 615 "},"U":{"ha":1042,"x_min":0,"x_max":0,"o":"m 178 864 b 81 885 161 881 160 883 l 35 885 l 35 949 l 50 949 b 250 944 74 944 208 944 b 450 949 292 944 426 944 l 465 949 l 465 885 l 419 885 b 324 864 344 883 336 882 l 322 581 b 328 235 322 293 322 269 b 389 93 336 172 356 128 b 540 33 429 54 482 33 b 586 38 556 33 571 35 b 793 254 696 57 772 135 b 799 569 799 286 799 296 l 799 831 b 679 885 779 868 739 882 l 656 885 l 656 949 l 668 949 b 831 944 686 944 797 944 b 993 949 864 944 975 944 l 1006 949 l 1006 885 l 982 885 b 864 831 926 882 878 871 l 863 554 b 854 238 861 256 863 274 b 540 -31 824 97 706 -31 b 367 13 474 -31 421 -15 b 181 267 267 64 200 156 b 178 572 179 281 179 300 l 178 864 "},"V":{"ha":1042,"x_min":0,"x_max":0,"o":"m 158 861 b 67 885 139 881 138 883 l 26 885 l 26 949 l 39 949 b 211 944 58 944 175 944 b 408 949 250 944 388 946 l 424 949 l 424 885 l 394 885 b 315 869 351 883 325 878 b 310 861 311 867 310 864 b 561 175 310 857 560 175 l 681 497 b 799 829 793 801 799 821 b 706 885 799 867 746 885 l 699 885 l 699 949 l 711 949 b 871 944 726 946 840 944 b 1006 949 900 944 990 944 l 1014 949 l 1014 885 l 1004 885 b 871 828 944 885 892 867 b 557 -19 871 826 560 -17 b 532 -31 553 -29 547 -31 l 519 -31 l 507 -31 b 483 -19 492 -31 488 -29 b 321 421 482 -18 408 181 b 158 861 232 660 158 858 "},"W":{"ha":1428,"x_min":0,"x_max":0,"o":"m 1100 949 b 1269 944 1117 946 1239 944 b 1393 949 1299 944 1376 944 l 1401 949 l 1401 885 l 1383 885 b 1286 850 1338 882 1307 871 b 1271 831 1279 843 1274 836 b 994 -24 1260 808 1000 -18 b 964 -31 989 -29 983 -31 b 935 -21 946 -31 939 -29 b 824 321 933 -19 883 135 b 714 663 764 507 715 661 l 604 325 b 493 -21 544 138 494 -18 b 460 -31 488 -31 481 -31 b 431 -21 439 -29 436 -29 b 144 864 426 -17 151 853 b 121 879 140 871 132 878 b 49 885 111 882 79 885 l 25 885 l 25 949 l 38 949 b 214 946 67 947 142 946 b 399 949 260 946 378 946 l 414 949 l 414 885 l 396 885 b 310 874 361 885 324 881 b 296 861 301 871 296 865 b 401 529 296 858 343 710 l 506 200 l 593 471 b 683 758 643 629 681 740 l 663 824 b 644 868 651 858 649 864 b 567 885 633 881 622 883 l 528 885 l 528 949 l 539 949 b 706 944 558 944 669 944 b 903 949 744 944 883 946 l 917 949 l 917 885 l 899 885 b 800 860 853 885 800 881 b 1010 203 800 854 1010 203 b 1207 833 1010 203 1207 806 b 1204 842 1207 839 1206 839 b 1103 885 1190 865 1153 882 l 1088 885 l 1088 949 l 1100 949 "},"X":{"ha":1042,"x_min":0,"x_max":0,"o":"m 375 0 b 196 4 357 4 229 4 b 43 0 164 4 60 4 l 32 0 l 32 64 l 56 64 b 224 122 129 67 192 83 b 450 471 231 132 450 469 b 199 864 450 474 204 858 b 99 885 175 883 147 885 l 79 885 l 51 885 l 51 949 l 64 949 b 239 944 85 944 201 944 b 442 949 278 944 421 946 l 457 949 l 457 885 l 450 885 b 365 863 418 885 368 871 b 533 599 365 857 531 599 b 679 824 536 599 679 822 b 669 857 683 832 679 847 b 606 885 656 872 631 882 l 594 885 l 594 949 l 607 949 b 786 944 625 944 753 944 b 939 949 818 944 922 944 l 950 949 l 950 885 l 926 885 b 765 832 849 882 796 864 b 664 682 760 826 731 782 b 572 538 614 604 572 539 b 861 86 572 535 856 92 b 965 64 876 69 893 65 l 1008 64 l 1008 0 l 996 0 b 821 4 975 4 858 4 b 618 0 782 4 639 3 l 603 0 l 603 64 l 611 64 b 693 89 636 64 693 74 b 490 410 693 97 492 407 b 397 271 489 411 467 379 b 304 128 347 194 306 131 b 303 117 303 126 303 121 b 378 64 303 92 336 68 l 389 64 l 389 0 l 375 0 "},"Y":{"ha":1042,"x_min":0,"x_max":0,"o":"m 719 0 b 519 4 697 4 560 4 b 322 0 479 4 344 4 l 307 0 l 307 64 l 353 64 b 446 81 424 65 436 68 b 450 232 449 85 450 85 l 450 379 l 307 619 b 158 865 210 782 163 861 b 72 885 140 883 110 885 l 43 885 l 15 885 l 15 949 l 28 949 b 206 944 50 944 168 944 b 408 949 246 944 388 946 l 424 949 l 424 885 l 399 885 b 328 863 351 883 331 876 b 446 660 328 860 343 833 l 565 461 l 671 639 b 779 822 729 738 778 819 b 782 839 782 826 782 832 b 718 885 782 869 751 882 l 706 885 l 706 949 l 718 949 b 869 946 733 946 832 946 b 1015 949 929 946 990 947 l 1025 949 l 1025 885 l 1004 885 b 851 817 926 881 878 860 b 718 593 847 811 788 710 l 590 379 l 590 235 b 593 83 590 94 590 89 b 617 68 596 76 606 71 b 703 64 631 65 669 64 l 733 64 l 733 0 l 719 0 "},"Z":{"ha":849,"x_min":0,"x_max":0,"o":"m 96 615 b 111 949 96 649 111 882 l 763 949 b 771 922 769 942 771 944 b 769 900 771 908 771 901 b 249 69 767 896 250 72 b 365 68 247 68 267 68 b 501 71 465 69 485 69 b 704 240 619 88 679 133 b 722 379 713 275 715 301 l 722 392 l 778 392 l 778 381 b 754 11 776 376 754 14 l 754 0 l 419 0 l 85 1 l 81 4 b 76 29 78 8 76 8 l 76 49 b 600 885 89 74 600 881 b 382 883 600 885 400 885 b 196 796 292 878 235 851 b 151 618 171 756 151 685 b 124 615 151 615 151 615 l 96 615 "},"[":{"ha":386,"x_min":0,"x_max":0,"o":"m 164 1042 l 354 1042 l 354 986 l 219 986 l 219 -292 l 354 -292 l 354 -347 l 164 -347 "},"\\":{"ha":694,"x_min":0,"x_max":0,"o":"m 78 1015 b 104 1042 78 1029 90 1042 b 128 1028 114 1042 122 1036 b 617 -321 133 1018 617 -307 b 589 -347 617 -335 603 -347 b 565 -333 579 -347 571 -342 b 78 1015 563 -329 78 994 "},"]":{"ha":386,"x_min":0,"x_max":0,"o":"m 31 1042 l 221 1042 l 221 -347 l 31 -347 l 31 -292 l 165 -292 l 165 986 l 31 986 "},"^":{"ha":694,"x_min":0,"x_max":0,"o":"m 346 964 l 357 953 b 538 778 440 874 538 779 l 501 738 b 421 807 493 743 465 768 l 347 871 l 271 806 b 194 739 231 769 196 740 b 174 758 193 738 189 740 l 156 778 "},"_":{"ha":694,"x_min":0,"x_max":0,"o":"m 0 -35 l 693 -35 l 693 -86 l 0 -86 "},"`":{"ha":694,"x_min":0,"x_max":0,"o":"m 147 910 b 208 971 147 942 176 971 b 246 956 222 971 239 963 b 410 740 249 953 410 747 b 392 721 410 739 401 731 l 371 701 l 272 782 b 167 869 218 826 169 865 b 147 910 154 882 147 896 "},"a":{"ha":694,"x_min":0,"x_max":0,"o":"m 161 424 b 88 499 117 424 88 458 b 99 543 88 513 92 528 b 303 622 122 593 200 622 b 550 472 426 622 522 561 b 558 269 558 447 558 450 b 567 75 558 88 558 92 b 594 56 572 63 583 56 b 621 75 606 56 615 63 b 629 151 628 89 629 97 l 629 201 l 685 201 l 685 147 b 681 82 683 94 683 92 b 556 -8 665 32 618 -8 b 457 75 507 -8 469 31 l 457 81 b 422 42 447 71 433 51 b 264 -15 378 4 324 -15 b 58 96 169 -15 85 28 b 47 149 51 113 47 131 b 101 268 47 200 72 239 b 181 321 125 292 146 306 b 422 372 247 351 322 367 l 442 372 l 442 403 b 433 472 442 438 440 454 b 299 571 415 532 368 571 b 206 560 282 571 206 567 b 236 499 222 549 236 521 b 161 424 236 458 206 424 m 442 243 b 440 324 442 288 442 324 b 433 322 440 324 436 324 b 190 210 308 314 225 275 b 175 147 181 192 175 169 b 290 36 175 85 225 36 b 438 151 367 36 422 90 b 442 243 440 161 440 165 "},"b":{"ha":772,"x_min":0,"x_max":0,"o":"m 136 956 b 244 964 193 960 242 964 l 249 964 l 249 754 b 250 543 249 638 249 543 b 258 550 250 543 254 546 b 449 614 301 586 372 614 b 494 610 465 614 481 613 b 725 300 622 585 725 467 b 722 251 725 281 724 263 b 426 -15 700 110 590 -15 b 243 67 349 -15 283 24 l 233 76 l 219 51 b 199 14 213 39 203 21 l 192 1 l 164 0 l 136 0 l 136 414 b 135 838 136 642 136 832 b 53 885 129 874 114 882 l 28 885 l 28 917 b 31 949 28 946 28 949 b 136 956 32 949 79 953 m 460 558 b 417 563 449 560 432 563 b 261 482 351 563 294 528 l 253 471 l 253 136 l 260 126 b 367 42 286 83 325 53 b 410 36 381 38 396 36 b 550 111 465 36 518 64 b 572 157 561 126 565 138 b 589 294 585 193 589 229 b 572 449 589 360 583 414 b 460 558 554 504 513 544 "},"c":{"ha":617,"x_min":0,"x_max":0,"o":"m 486 424 b 413 497 442 424 413 458 b 433 550 413 517 419 536 b 426 561 442 560 443 558 b 358 567 408 564 382 567 b 247 522 301 567 276 554 b 182 304 199 474 182 410 b 225 125 182 226 196 169 b 378 40 256 79 308 40 b 439 54 400 40 421 44 b 519 163 475 72 506 114 b 549 179 524 178 525 179 l 568 179 b 576 167 571 176 576 171 b 542 85 576 154 556 107 b 346 -15 497 21 429 -15 b 214 17 296 -15 257 -6 b 49 253 125 63 67 146 b 47 297 47 261 47 279 b 49 343 47 315 47 333 b 163 556 60 429 100 503 b 347 622 213 596 271 622 b 557 528 447 622 533 600 b 561 496 560 519 561 507 b 486 424 561 453 528 424 "},"d":{"ha":772,"x_min":0,"x_max":0,"o":"m 339 614 b 522 546 414 614 476 585 l 522 688 b 521 838 522 765 522 832 b 439 885 515 874 500 882 l 414 885 l 414 917 b 417 949 414 946 414 949 b 522 956 418 949 465 953 b 631 964 579 960 628 964 l 635 964 l 635 542 b 636 113 635 310 635 117 b 718 64 642 75 657 67 l 743 64 l 743 0 b 528 -15 740 0 536 -14 l 518 -15 l 518 61 l 507 51 b 326 -15 461 13 401 -15 b 154 50 254 -15 196 14 b 49 250 97 100 61 168 b 47 299 47 261 47 279 b 339 614 47 482 182 614 m 518 475 b 361 563 483 524 436 563 b 240 513 315 563 274 544 b 182 293 192 463 182 400 b 240 82 182 193 194 126 b 349 36 268 53 300 36 b 513 135 413 36 476 74 l 518 143 l 518 475 "},"e":{"ha":617,"x_min":0,"x_max":0,"o":"m 576 340 b 567 321 576 326 572 326 l 175 321 l 175 300 b 203 144 175 233 185 179 b 375 42 232 85 290 42 b 475 86 426 42 449 57 b 518 158 494 106 508 131 b 526 178 521 169 524 175 b 549 182 531 182 531 182 b 576 168 568 182 576 179 b 572 150 576 164 575 158 b 347 -15 540 63 465 -15 b 286 -8 328 -15 307 -12 b 56 201 181 13 92 93 b 39 303 44 235 39 267 b 299 621 39 478 157 603 b 318 622 304 622 310 622 b 576 340 490 622 576 514 m 463 382 b 360 565 454 481 426 542 b 331 571 349 569 344 569 b 213 504 276 571 240 544 b 176 381 193 474 182 436 l 176 371 l 463 371 l 463 382 "},"f":{"ha":425,"x_min":0,"x_max":0,"o":"m 379 0 b 203 4 363 3 236 4 b 47 0 169 4 67 4 l 36 0 l 36 64 l 58 64 b 126 68 86 64 117 67 b 143 83 133 71 140 78 b 144 311 144 86 144 157 l 144 535 l 46 535 l 46 599 l 144 599 l 144 690 l 146 783 l 149 797 b 369 978 178 899 257 964 b 401 979 375 978 389 979 b 517 871 464 975 517 936 b 446 800 517 829 488 800 b 375 871 404 800 375 829 b 400 926 375 896 388 911 l 394 926 b 364 926 386 928 375 928 b 263 822 319 918 281 876 b 253 690 254 794 254 792 l 253 599 l 407 599 l 407 535 l 257 535 l 257 313 b 258 85 257 158 257 88 b 275 71 261 79 268 72 b 349 64 286 67 304 65 l 392 64 l 392 0 l 379 0 "},"g":{"ha":694,"x_min":0,"x_max":0,"o":"m 457 568 b 596 629 489 600 536 629 b 674 550 640 629 674 597 b 624 500 674 521 653 500 b 572 542 593 500 576 517 b 576 571 571 551 572 565 b 578 576 576 574 578 575 b 565 574 578 576 572 575 b 504 546 543 569 522 560 b 493 536 497 542 493 538 b 499 529 493 536 496 533 b 544 406 526 494 544 461 b 507 294 544 356 529 326 b 308 199 469 239 397 199 b 171 238 257 199 211 215 b 156 185 163 222 156 206 b 192 113 156 153 171 126 b 315 101 208 101 203 103 b 465 93 417 100 431 100 b 599 36 519 85 569 63 b 653 -100 631 4 653 -39 b 650 -133 653 -112 653 -125 b 544 -243 638 -178 603 -215 b 347 -286 489 -272 433 -286 b 149 -243 261 -286 206 -272 b 43 -133 90 -215 56 -178 b 40 -104 40 -125 40 -115 b 83 -7 40 -60 57 -32 b 128 25 99 8 110 17 l 143 33 b 93 150 115 57 93 97 b 133 268 93 203 110 236 b 72 406 100 301 72 340 b 110 518 72 456 88 486 b 310 614 147 575 221 614 b 442 578 357 614 401 601 l 457 568 m 197 406 b 308 253 197 314 218 253 b 415 336 368 253 407 288 b 419 406 418 351 419 378 b 415 476 419 433 418 461 b 307 561 406 528 367 561 b 201 476 253 561 211 528 b 197 406 199 461 197 433 m 521 -32 b 343 0 476 -1 422 0 l 303 0 b 192 -8 211 0 210 0 b 132 -103 154 -25 132 -64 b 136 -131 132 -112 133 -122 b 276 -226 150 -172 208 -212 b 347 -232 301 -232 314 -232 b 417 -226 379 -232 392 -232 b 557 -129 485 -212 543 -172 b 560 -104 560 -122 560 -112 b 521 -32 560 -69 544 -47 "},"h":{"ha":772,"x_min":0,"x_max":0,"o":"m 261 83 b 326 64 271 65 293 64 l 346 64 l 368 64 l 368 0 l 357 0 b 201 4 339 4 233 4 b 46 0 169 4 64 4 l 35 0 l 35 64 l 57 64 l 76 64 b 142 83 110 64 132 65 b 143 457 142 86 143 271 b 142 838 143 643 142 831 b 60 885 136 874 121 882 l 35 885 l 35 917 b 38 949 35 946 35 949 b 143 956 39 949 86 953 b 251 964 200 960 249 964 l 256 964 l 256 510 b 456 614 300 564 357 614 b 643 457 571 614 632 563 b 644 264 644 447 644 376 b 646 83 644 143 644 86 b 663 68 649 78 656 71 b 731 64 672 67 703 64 l 753 64 l 753 0 l 742 0 b 586 4 724 4 618 4 b 431 0 554 4 449 4 l 419 0 l 419 64 l 442 64 l 453 64 b 526 86 488 64 526 65 b 528 278 528 89 528 175 b 525 476 526 447 526 464 b 428 561 513 533 489 561 b 318 514 374 561 349 544 b 261 392 285 481 267 442 b 260 233 261 383 260 308 b 261 83 260 158 261 86 "},"i":{"ha":386,"x_min":0,"x_max":0,"o":"m 182 929 b 261 846 226 925 261 897 b 224 775 261 808 246 788 b 179 763 210 765 197 763 b 133 775 160 763 147 765 b 96 846 111 788 96 808 b 182 929 96 900 133 929 m 343 0 b 199 4 328 4 228 4 b 47 0 168 4 64 3 l 36 0 l 36 64 l 58 64 b 126 68 86 64 117 67 b 143 83 133 71 140 78 b 144 285 144 86 144 149 b 139 507 144 490 144 493 b 57 535 129 532 99 535 l 42 535 l 42 567 b 44 599 42 596 42 599 b 147 606 46 599 92 603 b 253 614 203 610 250 614 l 257 614 l 257 86 b 322 64 267 68 269 65 l 354 64 l 354 0 l 343 0 "},"j":{"ha":425,"x_min":0,"x_max":0,"o":"m 222 929 b 301 846 267 925 301 897 b 264 775 301 808 286 788 b 219 763 250 765 238 763 b 174 775 200 763 188 765 b 136 846 151 788 136 808 b 222 929 136 900 174 929 m 39 -226 b 89 -233 56 -229 74 -233 b 118 -229 100 -233 110 -232 b 188 -107 154 -217 181 -171 b 190 196 190 -90 190 -53 b 189 490 190 432 190 482 b 100 535 181 529 158 533 l 72 535 l 72 567 b 75 599 72 596 72 599 b 185 606 76 599 125 603 b 297 614 244 610 294 614 l 303 614 l 303 256 b 293 -136 301 -143 303 -107 b 81 -285 267 -217 189 -285 b -76 -162 3 -285 -76 -242 b -3 -89 -76 -119 -46 -89 b 72 -164 40 -89 72 -121 b 39 -226 72 -194 56 -212 "},"k":{"ha":733,"x_min":0,"x_max":0,"o":"m 69 64 b 135 83 103 64 125 65 b 136 457 135 86 136 271 b 135 838 136 643 135 831 b 53 885 129 874 114 882 l 28 885 l 28 917 b 31 949 28 946 28 949 b 136 956 32 949 79 953 b 244 964 193 960 242 964 l 249 964 l 249 643 l 250 324 l 333 399 b 422 482 388 447 419 478 b 431 506 428 490 431 499 b 401 535 431 521 418 532 l 394 535 l 394 599 l 407 599 b 572 594 419 596 543 594 b 622 596 590 594 606 596 b 672 599 646 597 669 597 l 679 599 l 679 535 l 661 535 b 500 474 599 531 544 511 b 397 381 481 457 397 382 b 583 110 397 379 571 126 b 694 64 610 75 636 64 l 710 64 l 710 0 l 701 0 b 581 4 685 4 608 4 b 426 0 553 4 439 3 l 415 0 l 415 64 l 425 64 b 458 90 444 65 458 75 b 453 110 458 96 457 103 b 317 308 447 119 318 308 l 244 244 l 244 167 b 246 83 244 114 244 86 b 263 68 249 78 256 71 b 331 64 272 67 303 64 l 353 64 l 353 0 l 342 0 b 190 4 326 4 219 4 b 39 0 160 4 54 4 l 28 0 l 28 64 l 50 64 "},"l":{"ha":386,"x_min":0,"x_max":0,"o":"m 78 64 b 143 83 111 64 133 65 b 144 457 143 86 144 271 b 143 838 144 643 143 831 b 61 885 138 874 122 882 l 36 885 l 36 917 b 39 949 36 946 36 949 b 144 956 40 949 88 953 b 253 964 201 960 250 964 l 257 964 l 257 526 b 258 83 257 221 257 86 b 275 68 261 78 268 71 b 343 64 285 67 315 64 l 365 64 l 365 0 l 354 0 b 201 4 338 3 233 4 b 47 0 169 4 65 4 l 36 0 l 36 64 l 58 64 "},"m":{"ha":1157,"x_min":0,"x_max":0,"o":"m 261 83 b 326 64 271 65 293 64 l 346 64 l 368 64 l 368 0 l 357 0 b 201 4 339 4 233 4 b 46 0 169 4 64 4 l 35 0 l 35 64 l 57 64 l 76 64 b 142 83 110 64 132 65 b 143 282 142 86 143 183 b 142 488 143 381 142 481 b 60 535 136 524 121 532 l 35 535 l 35 567 b 38 599 35 596 35 599 b 142 606 39 599 85 603 b 247 614 197 610 244 614 l 251 614 l 251 558 b 253 506 251 515 251 506 l 254 507 b 467 614 300 572 361 614 b 632 508 551 611 611 576 l 635 501 b 672 547 646 515 657 532 b 838 614 715 588 769 614 b 1028 457 954 614 1017 564 b 1029 264 1029 447 1029 376 b 1031 83 1029 143 1029 86 b 1047 68 1033 78 1040 71 b 1115 64 1057 67 1088 64 l 1138 64 l 1138 0 l 1126 0 b 971 4 1108 4 1003 4 b 815 0 939 4 833 4 l 804 0 l 804 64 l 826 64 l 838 64 b 911 86 872 64 911 65 b 913 278 913 89 913 175 b 910 476 911 447 911 464 b 813 561 897 533 874 561 b 703 514 758 561 733 544 b 646 392 669 481 651 442 b 644 233 646 383 644 308 b 646 83 644 158 646 86 b 711 64 656 65 678 64 l 731 64 l 753 64 l 753 0 l 742 0 b 586 4 724 4 618 4 b 431 0 554 4 449 4 l 419 0 l 419 64 l 442 64 l 453 64 b 526 86 488 64 526 65 b 528 278 528 89 528 175 b 525 476 526 447 526 464 b 428 561 513 533 489 561 b 318 514 374 561 349 544 b 261 392 285 481 267 442 b 260 233 261 383 260 308 b 261 83 260 158 261 86 "},"n":{"ha":772,"x_min":0,"x_max":0,"o":"m 261 83 b 326 64 271 65 293 64 l 346 64 l 368 64 l 368 0 l 357 0 b 201 4 339 4 233 4 b 46 0 169 4 64 4 l 35 0 l 35 64 l 57 64 l 76 64 b 142 83 110 64 132 65 b 143 282 142 86 143 183 b 142 488 143 381 142 481 b 60 535 136 524 121 532 l 35 535 l 35 567 b 38 599 35 596 35 599 b 142 606 39 599 85 603 b 247 614 197 610 244 614 l 251 614 l 251 558 b 253 506 251 515 251 506 l 254 507 b 467 614 300 572 361 614 b 643 457 575 610 632 558 b 644 264 644 447 644 376 b 646 83 644 143 644 86 b 663 68 649 78 656 71 b 731 64 672 67 703 64 l 753 64 l 753 0 l 742 0 b 586 4 724 4 618 4 b 431 0 554 4 449 4 l 419 0 l 419 64 l 442 64 l 453 64 b 526 86 488 64 526 65 b 528 278 528 89 528 175 b 525 476 526 447 526 464 b 428 561 513 533 489 561 b 318 514 374 561 349 544 b 261 392 285 481 267 442 b 260 233 261 383 260 308 b 261 83 260 158 261 86 "},"o":{"ha":694,"x_min":0,"x_max":0,"o":"m 39 297 b 313 619 39 469 167 601 b 347 622 324 621 336 622 b 557 533 424 622 500 590 b 654 299 615 475 654 386 b 647 233 654 276 651 256 b 419 -6 625 117 536 24 b 347 -14 393 -12 378 -14 b 274 -6 315 -14 300 -12 b 39 297 135 29 39 153 m 372 569 b 350 571 365 571 357 571 b 271 554 324 571 296 565 b 178 403 215 526 189 482 b 175 314 176 390 175 353 b 201 126 175 226 178 176 b 347 42 228 76 274 42 b 517 268 475 42 517 136 l 517 313 b 510 435 517 389 517 403 b 372 569 493 511 449 553 "},"p":{"ha":772,"x_min":0,"x_max":0,"o":"m 69 -206 b 135 -186 103 -206 125 -204 b 136 147 135 -183 136 -19 b 135 488 136 314 135 481 b 53 535 129 524 114 532 l 28 535 l 28 567 b 31 599 28 596 28 599 b 136 606 32 599 79 603 b 244 614 193 610 242 614 l 249 614 l 249 578 l 250 542 l 261 551 b 453 613 311 588 371 613 b 497 610 476 613 483 613 b 725 300 624 585 725 465 b 722 251 725 281 724 263 b 517 -1 703 131 628 42 b 431 -15 488 -11 458 -15 b 264 46 369 -15 311 6 l 253 56 l 253 -62 b 254 -186 253 -143 253 -183 b 271 -201 257 -192 264 -199 b 339 -206 281 -203 311 -206 l 361 -206 l 361 -269 l 350 -269 b 194 -265 332 -265 226 -265 b 39 -269 163 -265 57 -265 l 28 -269 l 28 -206 l 50 -206 m 589 303 b 443 557 589 432 524 543 b 424 558 438 557 431 558 b 253 468 339 558 292 517 l 253 136 b 408 36 285 81 335 36 b 514 88 447 36 482 53 b 589 303 563 138 589 218 "},"q":{"ha":733,"x_min":0,"x_max":0,"o":"m 518 68 b 328 -15 467 17 399 -15 b 90 129 215 -15 132 57 b 46 303 61 181 46 242 l 46 311 b 217 585 54 442 124 538 b 328 613 251 601 285 613 b 379 611 346 613 369 613 b 529 517 438 600 493 565 l 538 506 b 561 560 539 506 549 529 l 583 614 l 635 614 l 635 217 b 636 -186 635 -61 635 -183 b 653 -201 639 -192 646 -199 b 721 -206 663 -203 693 -206 l 743 -206 l 743 -269 l 732 -269 b 576 -265 714 -265 608 -265 b 421 -269 544 -265 439 -265 l 410 -269 l 410 -206 l 432 -206 b 500 -201 460 -206 490 -203 b 517 -186 507 -199 514 -192 b 518 -57 518 -183 518 -142 l 518 68 m 522 417 b 386 557 500 483 457 544 b 363 558 379 557 368 558 b 222 463 308 557 260 524 b 182 297 196 418 182 358 b 319 40 182 176 239 63 b 351 38 328 38 339 38 b 381 39 361 38 372 38 b 522 164 442 53 493 99 l 522 417 "},"r":{"ha":544,"x_min":0,"x_max":0,"o":"m 69 64 b 135 83 103 64 125 65 b 136 282 135 86 136 183 b 135 488 136 381 135 481 b 53 535 129 524 114 532 l 28 535 l 28 567 b 31 599 28 596 28 599 b 133 606 32 599 78 603 b 238 614 188 610 235 614 l 242 614 l 242 518 b 385 613 271 568 307 613 b 451 597 419 613 429 610 b 506 518 479 583 506 557 b 435 447 506 476 472 447 b 365 517 396 447 365 475 b 376 556 365 531 369 546 b 379 563 378 558 379 561 b 347 557 378 564 357 560 b 314 536 336 551 325 546 b 250 361 279 503 256 442 b 249 214 250 347 249 279 b 250 85 249 149 250 88 b 267 71 253 79 260 72 b 340 64 278 67 296 65 l 383 64 l 383 0 l 371 0 b 194 4 354 3 228 4 b 39 0 161 4 58 4 l 28 0 l 28 64 l 50 64 "},"s":{"ha":547,"x_min":0,"x_max":0,"o":"m 264 575 b 136 485 193 575 136 551 b 139 461 136 476 136 467 b 276 386 157 411 208 400 b 385 356 344 374 357 371 b 497 218 443 328 481 282 b 499 185 499 210 499 197 b 479 89 499 144 492 115 b 275 -14 444 22 379 -14 b 131 36 204 -14 168 6 l 119 26 l 107 14 b 90 -1 106 13 99 6 l 75 -15 l 64 -15 b 46 -7 51 -15 51 -12 l 46 103 b 53 224 46 224 46 219 b 75 225 56 225 64 225 b 104 203 99 225 99 225 b 140 107 113 164 125 133 b 275 36 172 60 217 36 b 410 144 356 36 410 68 b 385 210 410 178 401 193 b 326 247 371 226 349 240 b 260 263 321 249 292 256 b 154 292 196 275 179 279 b 47 421 94 319 57 365 b 46 442 46 426 46 433 b 242 621 46 561 129 610 b 275 621 244 622 260 622 b 372 600 318 621 339 617 l 393 589 l 406 599 b 436 622 417 608 425 615 l 447 622 b 465 614 460 622 460 619 l 465 431 l 457 422 l 418 422 b 410 439 413 428 410 428 b 264 575 410 525 354 575 "},"t":{"ha":540,"x_min":0,"x_max":0,"o":"m 196 854 l 251 854 l 251 599 l 439 599 l 439 535 l 251 535 l 251 335 b 263 94 253 111 251 124 b 331 40 275 60 300 40 b 406 139 371 40 397 79 b 407 203 407 150 407 168 l 407 251 l 463 251 l 463 203 b 456 111 463 149 461 133 b 307 -14 438 44 392 -14 b 136 139 204 -14 146 47 b 135 344 135 149 135 214 l 135 535 l 25 535 l 25 586 l 38 586 b 125 631 71 589 101 604 b 196 833 167 674 192 747 "},"u":{"ha":772,"x_min":0,"x_max":0,"o":"m 146 606 b 256 614 203 610 253 614 l 260 614 l 260 363 b 263 99 261 143 261 108 b 283 56 267 75 272 65 b 367 36 301 43 329 36 b 432 49 394 36 411 39 b 526 200 483 74 518 131 b 528 344 526 208 528 276 b 526 488 528 413 526 482 b 444 535 521 524 506 532 l 419 535 l 419 599 b 635 614 422 599 626 613 l 644 614 l 644 367 b 646 113 644 232 644 117 b 728 64 651 75 667 67 l 753 64 l 753 0 b 542 -15 750 0 550 -14 l 532 -15 l 532 81 b 419 -4 504 47 467 8 b 346 -14 393 -14 383 -14 b 146 124 229 -14 165 26 b 143 314 144 135 144 151 b 133 513 142 508 143 497 b 50 535 124 528 99 535 l 35 535 l 35 567 b 38 599 35 596 35 599 b 146 606 39 599 88 603 "},"v":{"ha":733,"x_min":0,"x_max":0,"o":"m 469 599 b 536 596 476 596 507 596 l 586 596 b 699 599 633 596 682 597 l 706 599 l 706 535 l 690 535 b 588 479 642 532 604 514 b 400 -3 582 469 407 13 b 365 -15 394 -12 388 -15 b 332 -3 344 -15 338 -12 b 136 506 332 -3 138 499 b 60 535 124 533 111 532 l 26 535 l 26 599 l 35 599 b 169 594 49 594 142 594 b 322 599 199 594 308 596 l 333 599 l 333 535 l 314 535 b 256 514 278 533 258 526 b 326 325 256 510 269 472 l 397 142 l 524 474 l 524 485 b 465 535 524 517 493 535 l 460 535 l 460 599 l 469 599 "},"w":{"ha":1003,"x_min":0,"x_max":0,"o":"m 628 535 b 561 513 600 535 561 532 b 689 139 561 496 688 142 l 746 304 b 804 482 803 469 804 471 b 736 535 804 515 769 532 l 725 535 l 725 599 l 735 599 b 867 594 747 596 842 594 b 969 599 888 594 961 594 l 976 599 l 976 535 l 968 535 b 947 533 964 535 954 533 b 860 464 901 526 875 506 l 776 224 b 696 -4 733 100 697 -3 b 665 -15 690 -15 686 -15 b 633 -6 644 -15 638 -14 b 565 185 631 -4 601 82 l 501 371 b 369 -6 454 247 414 119 b 338 -15 364 -14 358 -15 b 306 -4 315 -15 311 -15 b 125 511 304 -3 125 511 b 56 535 111 533 103 533 l 25 535 l 25 599 l 33 599 b 161 594 49 594 133 594 b 307 599 189 594 293 596 l 318 599 l 318 535 l 299 535 b 246 511 267 533 246 528 b 307 332 246 510 274 429 l 368 157 l 471 456 l 463 479 b 446 521 453 507 450 515 b 386 535 436 531 426 533 l 358 535 l 358 599 l 367 599 b 483 594 381 594 458 594 b 631 599 511 594 618 596 l 640 599 l 640 535 l 628 535 "},"x":{"ha":733,"x_min":0,"x_max":0,"o":"m 279 0 b 142 4 265 3 168 4 b 24 0 115 4 39 4 l 15 0 l 15 64 l 35 64 b 179 117 99 68 147 85 b 250 208 183 121 215 163 l 314 292 l 233 400 b 149 515 189 461 151 513 b 111 532 142 522 126 529 b 61 535 104 532 82 533 l 22 535 l 22 599 l 32 599 b 175 596 57 597 118 596 l 236 596 b 318 599 272 596 310 596 l 329 599 l 329 535 b 279 513 307 532 279 526 b 378 375 279 507 363 390 l 413 422 b 451 475 432 447 450 471 b 457 497 456 482 457 490 b 440 529 457 510 451 522 b 426 535 436 532 429 533 l 419 535 l 419 599 l 429 599 b 567 594 442 596 540 594 b 685 599 592 594 672 594 l 693 599 l 693 535 l 683 535 b 571 511 646 535 597 525 b 486 428 542 497 529 483 b 433 357 469 404 444 372 l 411 328 l 497 210 b 590 85 544 146 586 89 b 693 64 611 64 643 64 l 717 64 l 717 0 l 708 0 b 575 4 694 4 603 4 b 422 0 544 4 439 3 l 410 0 l 410 64 l 414 64 b 460 88 435 64 460 76 b 404 167 460 89 442 115 l 347 243 b 257 122 344 242 261 129 b 251 101 253 115 251 108 b 286 64 251 82 267 64 b 289 32 289 64 289 63 l 289 0 l 279 0 "},"y":{"ha":733,"x_min":0,"x_max":0,"o":"m 96 -92 b 164 -161 135 -92 164 -122 b 126 -222 164 -187 147 -215 b 126 -228 121 -225 121 -225 b 154 -233 133 -232 144 -233 b 194 -225 167 -233 182 -231 b 313 -60 256 -201 283 -137 l 336 0 l 236 254 b 132 514 181 393 135 511 b 60 535 122 533 93 535 l 47 535 l 26 535 l 26 599 l 36 599 b 169 594 51 594 140 594 b 324 599 200 594 308 596 l 335 599 l 335 535 l 322 535 b 257 511 297 535 257 531 b 397 156 257 468 397 156 b 461 315 397 157 426 229 l 522 474 l 522 486 b 464 535 522 518 494 535 l 460 535 l 460 599 l 468 599 b 586 596 481 596 557 596 b 699 599 633 596 681 597 l 706 599 l 706 535 l 690 535 b 586 479 639 531 604 513 b 315 -182 576 469 363 -111 b 186 -282 279 -237 236 -271 b 157 -283 179 -283 168 -283 b 26 -161 82 -283 26 -233 b 96 -92 26 -117 58 -92 "},"z":{"ha":617,"x_min":0,"x_max":0,"o":"m 58 365 b 74 588 60 372 71 579 l 74 599 l 546 599 b 554 576 551 593 554 592 b 553 558 554 567 554 560 b 368 306 551 557 469 443 l 186 57 l 253 56 b 372 60 321 56 350 57 b 460 107 411 67 442 83 b 499 257 481 135 492 176 l 501 279 b 529 281 501 281 514 281 l 557 281 l 557 272 b 533 8 556 268 535 11 l 533 0 l 290 0 l 47 1 l 43 4 b 39 24 40 8 39 10 b 40 43 39 35 39 42 b 408 547 44 47 406 543 l 328 547 b 211 539 244 546 235 546 b 157 510 186 533 171 525 b 114 367 131 485 121 449 l 114 354 l 58 354 l 58 365 "},"{":{"ha":694,"x_min":0,"x_max":0,"o":"m 603 -321 b 594 -347 603 -343 603 -339 l 569 -347 b 294 -201 439 -347 321 -307 b 290 0 292 -192 292 -189 b 282 215 289 207 290 193 b 114 321 261 271 193 321 b 90 347 93 321 90 324 b 114 374 90 371 93 374 b 282 479 193 374 261 424 b 290 696 290 501 289 488 b 294 896 292 883 292 886 b 339 969 303 928 314 947 b 450 1028 364 994 403 1014 b 524 1040 469 1032 503 1039 b 567 1042 532 1040 551 1042 l 594 1042 b 603 1017 601 1035 603 1038 b 599 994 603 999 603 999 b 576 990 596 990 594 990 b 447 946 524 988 481 972 b 411 899 431 933 417 915 b 404 693 404 881 404 883 b 403 504 404 574 404 513 b 256 354 393 426 326 376 l 236 347 l 256 340 b 403 190 326 318 393 269 b 404 1 404 182 404 121 b 411 -204 404 -189 404 -186 b 576 -296 431 -257 503 -293 b 599 -300 594 -296 596 -296 b 603 -321 603 -304 603 -304 "},"|":{"ha":386,"x_min":0,"x_max":0,"o":"m 193 -346 b 165 -326 178 -346 171 -337 l 165 349 l 167 1024 b 193 1042 172 1031 179 1042 b 221 1021 207 1042 215 1032 l 221 -326 b 193 -346 215 -337 208 -346 "},"}":{"ha":694,"x_min":0,"x_max":0,"o":"m 90 1015 b 110 1042 90 1040 92 1042 l 122 1042 b 400 896 267 1042 374 993 b 407 496 407 874 403 524 b 579 374 425 431 496 374 b 603 347 600 374 603 371 b 579 321 603 324 600 321 b 414 218 507 321 435 274 b 404 0 404 193 406 210 b 400 -201 403 -189 403 -192 b 356 -275 392 -233 381 -253 b 124 -347 310 -319 226 -347 l 108 -347 b 90 -319 93 -347 90 -344 b 107 -296 90 -300 92 -296 b 288 -193 200 -296 269 -251 b 290 4 289 -186 289 -172 l 292 193 b 458 347 311 276 376 325 b 389 375 438 354 410 364 b 294 489 344 401 308 436 l 292 503 l 290 692 b 288 889 289 867 289 881 b 107 990 269 946 200 990 b 90 1015 92 990 90 994 "},"~":{"ha":694,"x_min":0,"x_max":0,"o":"m 197 422 b 260 442 217 435 233 442 b 351 417 296 442 317 431 b 444 392 401 396 419 392 b 529 432 476 392 504 404 l 539 442 l 558 425 b 578 410 568 417 578 410 b 550 375 578 408 565 393 b 478 308 511 329 501 319 b 435 299 464 301 450 299 b 343 324 400 299 376 310 b 249 349 292 344 274 349 b 164 308 217 349 189 336 l 154 299 l 135 315 b 115 331 125 324 115 331 b 197 422 115 333 179 408 "},"":{"ha":347,"x_min":0,"x_max":0,"o":""},"":{"ha":694,"x_min":0,"x_max":0,"o":"m 132 850 b 213 929 132 889 165 929 b 292 850 258 929 292 890 b 211 769 292 808 258 769 l 176 778 b 132 850 150 792 132 819 m 401 849 b 465 928 401 888 432 921 b 481 929 468 928 475 929 b 561 850 524 929 561 893 b 481 769 561 806 524 769 b 401 849 442 769 401 801 "},"":{"ha":926,"x_min":0,"x_max":0,"o":"m 78 467 b 97 494 78 482 86 489 l 828 494 b 849 476 838 490 843 483 l 849 142 b 821 124 840 133 833 124 b 794 142 808 124 801 132 l 793 290 l 793 439 l 97 439 b 78 467 86 444 78 451 "},"":{"ha":694,"x_min":0,"x_max":0,"o":"m 96 819 l 597 819 l 597 756 l 96 756 "},"":{"ha":694,"x_min":0,"x_max":0,"o":"m 206 899 b 339 993 219 950 271 993 b 481 917 411 993 458 964 b 489 874 488 901 489 892 b 481 829 489 854 488 844 b 346 753 460 785 413 753 b 206 847 271 753 219 794 b 204 872 204 853 204 863 b 206 899 204 882 204 893 m 347 804 b 435 872 413 804 435 814 b 392 940 435 911 422 932 b 351 942 385 942 374 942 b 325 943 339 942 331 943 b 260 874 279 943 260 924 b 275 819 260 844 263 831 b 347 804 290 806 301 804 "},"":{"ha":1081,"x_min":0,"x_max":0,"o":"m 78 463 b 97 490 78 478 86 485 l 513 490 l 513 697 b 515 910 513 899 513 904 b 539 925 519 917 528 925 b 560 917 546 925 554 921 b 568 694 568 907 568 917 l 568 490 l 982 490 b 1003 463 993 485 1003 478 b 982 435 1003 447 993 440 l 568 435 l 568 56 l 982 56 b 1003 28 993 50 1003 43 b 982 0 1003 13 993 6 l 97 0 b 78 28 86 6 78 13 b 97 56 78 43 86 50 l 513 56 l 513 435 l 97 435 b 78 463 86 440 78 447 "},"":{"ha":694,"x_min":0,"x_max":0,"o":"m 485 971 b 546 911 514 971 546 943 b 526 869 546 897 539 882 b 421 782 524 865 475 826 l 322 701 l 301 721 b 283 740 290 732 282 740 b 435 942 285 743 422 924 b 485 971 450 960 460 971 "},"":{"ha":1081,"x_min":0,"x_max":0,"o":"m 875 40 b 846 13 875 25 863 13 b 685 164 836 13 824 25 l 540 308 l 394 163 b 243 15 290 60 246 17 b 232 13 239 14 236 13 b 204 40 217 13 204 26 b 207 51 204 44 206 47 b 354 203 210 57 242 90 l 499 347 l 354 492 b 207 643 242 604 210 638 b 204 654 206 647 204 650 b 232 682 204 668 217 682 b 243 679 236 682 239 681 b 394 532 246 678 290 635 l 540 386 l 685 531 b 846 682 824 669 836 682 b 875 654 863 682 875 669 b 872 643 875 650 874 646 b 725 493 871 640 828 596 l 581 347 l 725 201 b 872 51 828 99 871 54 b 875 40 874 49 875 44 "},"":{"ha":1081,"x_min":0,"x_max":0,"o":"m 442 647 b 536 746 442 704 481 746 b 632 678 589 746 618 717 b 636 647 636 667 636 665 b 539 550 636 589 597 550 b 446 617 486 550 460 579 b 442 647 442 628 442 629 m 78 347 b 97 375 78 363 86 369 l 981 375 b 1001 347 992 369 1001 363 b 981 319 1001 332 992 325 l 97 319 b 78 347 86 325 78 332 m 442 47 b 536 146 442 104 481 146 b 632 78 589 146 618 117 b 636 47 636 67 636 65 b 539 -50 636 -11 597 -50 b 446 17 486 -50 460 -21 b 442 47 442 28 442 29 "},"":{"ha":386,"x_min":0,"x_max":0,"o":"m 343 0 b 199 4 328 4 228 4 b 47 0 168 4 64 3 l 36 0 l 36 64 l 58 64 b 126 68 86 64 117 67 b 143 83 133 71 140 78 b 144 285 144 86 144 149 b 139 507 144 490 144 493 b 57 535 129 532 99 535 l 42 535 l 42 567 b 44 599 42 596 42 599 b 147 606 46 599 92 603 b 253 614 203 610 250 614 l 257 614 l 257 86 b 322 64 267 68 269 65 l 354 64 l 354 0 l 343 0 "},"":{"ha":425,"x_min":0,"x_max":0,"o":"m 39 -226 b 89 -233 56 -229 74 -233 b 118 -229 100 -233 110 -232 b 188 -107 154 -217 181 -171 b 190 196 190 -90 190 -53 b 189 490 190 432 190 482 b 100 535 181 529 158 533 l 72 535 l 72 567 b 75 599 72 596 72 599 b 185 606 76 599 125 603 b 297 614 244 610 294 614 l 303 614 l 303 256 b 293 -136 301 -143 303 -107 b 81 -285 267 -217 189 -285 b -76 -162 3 -285 -76 -242 b -3 -89 -76 -119 -46 -89 b 72 -164 40 -89 72 -121 b 39 -226 72 -194 56 -212 "},"":{"ha":694,"x_min":0,"x_max":0,"o":"m 346 964 l 357 953 b 538 778 440 874 538 779 l 501 738 b 421 807 493 743 465 768 l 347 871 l 271 806 b 194 739 231 769 196 740 b 174 758 193 738 189 740 l 156 778 "},"":{"ha":694,"x_min":0,"x_max":0,"o":"m 176 875 b 189 894 182 886 189 894 b 268 850 190 894 225 875 b 347 807 310 826 346 807 l 425 850 b 504 894 468 875 503 894 l 535 849 l 442 781 b 346 713 389 743 347 713 l 158 849 "},"":{"ha":694,"x_min":0,"x_max":0,"o":"m 96 819 l 597 819 l 597 756 l 96 756 "},"":{"ha":694,"x_min":0,"x_max":0,"o":"m 485 971 b 546 911 514 971 546 943 b 526 869 546 897 539 882 b 421 782 524 865 475 826 l 322 701 l 301 721 b 283 740 290 732 282 740 b 435 942 285 743 422 924 b 485 971 450 960 460 971 "},"":{"ha":694,"x_min":0,"x_max":0,"o":"m 147 910 b 208 971 147 942 176 971 b 246 956 222 971 239 963 b 410 740 249 953 410 747 b 392 721 410 739 401 731 l 371 701 l 272 782 b 167 869 218 826 169 865 b 147 910 154 882 147 896 "},"":{"ha":694,"x_min":0,"x_max":0,"o":"m 181 938 b 344 788 194 856 256 788 b 494 883 407 788 465 822 b 514 957 506 907 514 936 l 514 964 l 565 964 l 565 949 b 413 725 558 843 499 756 b 347 715 389 717 375 715 b 281 725 318 715 304 717 b 128 949 194 756 135 843 l 128 964 l 179 964 l 179 957 b 181 938 179 954 181 944 "},"":{"ha":694,"x_min":0,"x_max":0,"o":"m 350 929 b 429 846 394 925 429 897 b 392 775 429 808 414 788 b 347 763 378 765 365 763 b 301 775 328 763 315 765 b 264 846 279 788 264 808 b 350 929 264 900 301 929 "},"":{"ha":694,"x_min":0,"x_max":0,"o":"m 206 899 b 339 993 219 950 271 993 b 481 917 411 993 458 964 b 489 874 488 901 489 892 b 481 829 489 854 488 844 b 346 753 460 785 413 753 b 206 847 271 753 219 794 b 204 872 204 853 204 863 b 206 899 204 882 204 893 m 347 804 b 435 872 413 804 435 814 b 392 940 435 911 422 932 b 351 942 385 942 374 942 b 325 943 339 942 331 943 b 260 874 279 943 260 924 b 275 819 260 844 263 831 b 347 804 290 806 301 804 "},"":{"ha":694,"x_min":0,"x_max":0,"o":"m 197 908 b 260 928 217 921 233 928 b 351 903 296 928 317 917 b 444 878 401 882 419 878 b 529 918 476 878 504 890 l 539 928 l 558 911 b 578 896 568 903 578 896 b 550 861 578 894 565 879 b 478 794 511 815 501 806 b 435 785 464 788 450 785 b 343 810 400 785 376 796 b 249 835 292 831 274 835 b 164 794 217 835 189 822 l 154 785 l 135 801 b 115 817 125 810 115 817 b 197 908 115 819 179 894 "},"":{"ha":0,"x_min":0,"x_max":0,"o":"m -547 910 b -486 971 -547 942 -518 971 b -449 956 -472 971 -456 963 b -285 740 -446 953 -285 747 b -303 721 -285 739 -293 731 l -324 701 l -422 782 b -528 869 -476 826 -525 865 b -547 910 -540 882 -547 896 "},"":{"ha":0,"x_min":0,"x_max":0,"o":"m -210 971 b -149 911 -181 971 -149 943 b -168 869 -149 897 -156 882 b -274 782 -171 865 -219 826 l -372 701 l -393 721 b -411 740 -404 732 -412 740 b -260 942 -410 743 -272 924 b -210 971 -244 960 -235 971 "},"":{"ha":0,"x_min":0,"x_max":0,"o":"m -349 964 l -337 953 b -157 778 -254 874 -157 779 l -193 738 b -274 807 -201 743 -229 768 l -347 871 l -424 806 b -500 739 -464 769 -499 740 b -521 758 -501 738 -506 740 l -539 778 "},"":{"ha":0,"x_min":0,"x_max":0,"o":"m -497 908 b -435 928 -478 921 -461 928 b -343 903 -399 928 -378 917 b -250 878 -293 882 -275 878 b -165 918 -218 878 -190 890 l -156 928 l -136 911 b -117 896 -126 903 -117 896 b -144 861 -117 894 -129 879 b -217 794 -183 815 -193 806 b -260 785 -231 788 -244 785 b -351 810 -294 785 -318 796 b -446 835 -403 831 -421 835 b -531 794 -478 835 -506 822 l -540 785 l -560 801 b -579 817 -569 810 -579 817 b -497 908 -579 819 -515 894 "},"":{"ha":0,"x_min":0,"x_max":0,"o":"m -599 819 l -97 819 l -97 756 l -599 756 "},"":{"ha":0,"x_min":0,"x_max":0,"o":"m -514 938 b -350 788 -500 856 -439 788 b -200 883 -287 788 -229 822 b -181 957 -189 907 -181 936 l -181 964 l -129 964 l -129 949 b -282 725 -136 843 -196 756 b -347 715 -306 717 -319 715 b -414 725 -376 715 -390 717 b -567 949 -500 756 -560 843 l -567 964 l -515 964 l -515 957 b -514 938 -515 954 -514 944 "},"":{"ha":0,"x_min":0,"x_max":0,"o":"m -344 929 b -265 846 -300 925 -265 897 b -303 775 -265 808 -281 788 b -347 763 -317 765 -329 763 b -393 775 -367 763 -379 765 b -431 846 -415 788 -431 808 b -344 929 -431 900 -393 929 "},"":{"ha":0,"x_min":0,"x_max":0,"o":"m -562 850 b -482 929 -562 889 -529 929 b -403 850 -436 929 -403 890 b -483 769 -403 808 -436 769 l -518 778 b -562 850 -544 792 -562 819 m -293 849 b -229 928 -293 888 -262 921 b -214 929 -226 928 -219 929 b -133 850 -171 929 -133 893 b -214 769 -133 806 -171 769 b -293 849 -253 769 -293 801 "},"":{"ha":0,"x_min":0,"x_max":0,"o":"m -489 899 b -356 993 -475 950 -424 993 b -214 917 -283 993 -236 964 b -206 874 -207 901 -206 892 b -214 829 -206 854 -207 844 b -349 753 -235 785 -282 753 b -489 847 -424 753 -475 794 b -490 872 -490 853 -490 863 b -489 899 -490 882 -490 893 m -347 804 b -260 872 -282 804 -260 814 b -303 940 -260 911 -272 932 b -343 942 -310 942 -321 942 b -369 943 -356 942 -364 943 b -435 874 -415 943 -435 924 b -419 819 -435 844 -432 831 b -347 804 -404 806 -393 804 "},"":{"ha":0,"x_min":0,"x_max":0,"o":"m -406 974 b -342 914 -372 974 -342 946 b -347 890 -342 906 -343 899 b -478 708 -351 882 -476 708 b -525 733 -478 708 -525 732 b -454 939 -525 738 -462 919 b -406 974 -446 958 -429 974 m -175 974 b -111 914 -142 974 -111 946 b -117 890 -111 906 -112 899 b -247 708 -121 882 -246 708 b -294 733 -247 708 -294 732 b -224 939 -294 738 -232 919 b -175 974 -215 958 -199 974 "},"":{"ha":0,"x_min":0,"x_max":0,"o":"m -518 875 b -506 894 -512 886 -506 894 b -426 850 -504 894 -469 875 b -347 807 -385 826 -349 807 l -269 850 b -190 894 -226 875 -192 894 l -160 849 l -253 781 b -349 713 -306 743 -347 713 l -536 849 "},"":{"ha":0,"x_min":0,"x_max":0,"o":"m -860 -299 b -887 -274 -875 -299 -887 -290 b -881 -254 -887 -268 -886 -262 b -244 982 -867 -226 -249 978 b -222 994 -242 989 -232 994 b -194 967 -207 994 -194 981 b -844 -294 -194 957 -836 -290 b -860 -299 -850 -299 -851 -299 "},"":{"ha":868,"x_min":0,"x_max":0,"o":"m 178 860 b 81 881 161 876 160 879 l 35 881 l 35 944 l 769 944 l 769 939 b 808 617 769 938 808 618 l 808 611 l 753 611 l 753 617 b 747 651 751 621 750 636 b 464 881 722 844 669 881 b 340 878 408 881 346 879 b 324 863 332 876 325 871 b 322 471 322 858 322 747 l 324 85 b 396 65 339 69 343 68 b 463 64 411 64 442 64 l 500 64 l 500 0 l 483 0 b 253 4 460 3 297 4 b 50 0 208 4 76 4 l 35 0 l 35 64 l 81 64 b 178 85 160 65 161 68 l 178 860 "},"":{"ha":1157,"x_min":0,"x_max":0,"o":"m 71 0 b 64 10 68 1 64 6 b 539 985 64 13 533 978 b 565 994 543 993 550 994 l 578 994 b 617 985 606 994 611 993 b 1092 10 622 978 1092 13 b 1085 0 1092 6 1088 1 l 71 0 m 533 828 l 190 128 l 532 126 l 875 126 b 704 478 875 128 799 285 "},"":{"ha":1081,"x_min":0,"x_max":0,"o":"m 1003 474 b 539 -31 1003 193 794 -31 b 471 -25 517 -31 494 -29 b 85 379 275 7 119 169 b 78 472 78 414 78 429 b 192 807 78 619 125 721 b 265 879 210 828 244 864 b 503 978 335 936 418 969 b 539 979 515 979 526 979 b 815 879 636 979 733 944 b 888 807 835 864 869 828 b 1000 532 950 729 986 638 b 1003 474 1001 519 1003 496 m 581 924 b 533 928 569 926 550 928 b 508 926 524 928 514 926 b 307 786 428 914 356 864 b 233 471 253 706 233 604 b 244 326 233 407 235 374 b 450 39 269 183 344 81 b 539 22 479 28 510 22 b 779 171 632 22 724 76 b 847 471 825 249 847 340 b 810 711 847 571 835 640 b 581 924 772 817 683 907 m 310 586 l 365 586 l 365 539 l 714 539 l 714 586 l 769 586 l 769 365 l 714 365 l 714 413 l 365 413 l 365 365 l 310 365 "},"":{"ha":964,"x_min":0,"x_max":0,"o":"m 444 983 b 471 994 451 993 456 994 l 483 994 b 517 983 510 994 511 994 b 799 86 522 978 793 99 b 881 64 813 63 832 65 l 918 64 l 918 0 l 907 0 b 739 4 886 4 775 4 b 542 0 700 4 563 3 l 526 0 l 526 64 l 544 64 b 644 90 596 64 644 69 b 439 749 643 97 440 750 l 342 439 b 246 117 261 181 246 132 b 249 107 246 113 247 110 b 344 64 260 83 300 64 l 351 64 l 351 0 l 340 0 b 181 4 325 3 211 4 b 53 0 151 4 68 4 l 44 0 l 44 64 l 63 64 b 176 126 124 68 163 89 b 444 983 178 128 444 982 "},"":{"ha":926,"x_min":0,"x_max":0,"o":"m 76 939 b 463 940 76 940 250 940 b 849 939 675 940 849 940 l 860 707 b 832 706 860 706 847 706 b 804 708 807 706 804 706 b 783 818 804 733 797 813 b 463 825 768 824 725 825 b 142 818 200 825 157 824 b 121 708 128 813 121 733 b 93 706 121 706 118 706 b 65 707 78 706 65 706 m 193 618 l 249 618 l 249 547 l 676 547 l 676 618 l 732 618 l 732 361 l 676 361 l 676 432 l 249 432 l 249 361 l 193 361 m 58 250 l 86 250 b 114 247 113 250 114 250 b 124 146 114 224 119 163 b 150 119 129 125 131 122 b 463 115 176 117 226 115 b 775 119 699 115 749 117 b 801 146 794 122 796 125 b 811 247 806 163 811 224 b 839 250 811 250 813 250 l 867 250 l 856 0 l 69 0 "},"":{"ha":1042,"x_min":0,"x_max":0,"o":"m 178 860 b 81 881 161 876 160 879 l 35 881 l 35 944 l 1006 944 l 1006 881 l 960 881 b 864 860 885 879 876 878 l 864 85 b 960 64 876 67 885 65 l 1006 64 l 1006 0 l 990 0 b 790 4 967 4 832 4 b 590 0 749 4 614 4 l 575 0 l 575 64 l 621 64 b 718 85 700 65 701 68 l 718 881 l 322 881 l 322 483 l 324 85 b 419 64 336 67 344 65 l 465 64 l 465 0 l 450 0 b 250 4 426 4 292 4 b 50 0 208 4 74 4 l 35 0 l 35 64 l 81 64 b 178 85 160 65 161 68 l 178 860 "},"":{"ha":1003,"x_min":0,"x_max":0,"o":"m 925 343 b 886 6 921 335 890 14 l 886 0 l 488 0 b 79 8 49 0 83 0 b 79 24 76 14 76 18 b 253 221 81 25 158 114 l 424 415 l 78 894 l 76 914 b 83 946 76 938 78 942 b 488 949 88 949 99 949 l 886 949 l 886 943 b 925 621 886 942 925 622 l 925 615 l 869 615 l 869 621 b 644 879 846 786 811 863 b 408 885 604 883 557 885 l 263 885 l 407 686 b 553 483 486 576 551 485 b 554 468 556 478 557 472 l 214 79 b 594 81 214 79 565 79 b 799 143 701 86 751 96 b 867 326 835 182 856 238 b 869 349 868 338 869 347 l 925 349 l 925 343 "},"":{"ha":1081,"x_min":0,"x_max":0,"o":"m 101 744 b 76 765 83 744 76 746 b 269 979 76 885 160 979 b 540 658 499 979 540 658 b 544 679 542 660 543 669 b 656 914 565 775 599 857 b 811 979 697 956 742 979 b 890 961 840 979 865 974 b 1003 765 949 932 1003 854 b 971 744 1003 744 1000 744 b 940 751 949 744 944 744 b 939 761 940 754 939 758 b 817 856 939 819 879 856 b 701 808 761 856 732 842 b 615 560 654 760 626 681 b 614 308 614 535 614 514 l 614 85 b 686 65 629 69 633 68 b 753 64 701 64 732 64 l 790 64 l 790 0 l 774 0 b 540 4 747 4 588 4 b 307 0 493 4 333 4 l 290 0 l 290 64 l 328 64 b 394 65 349 64 379 64 b 468 85 449 68 450 71 l 468 290 b 463 576 468 499 468 532 b 296 854 446 742 388 838 b 263 856 288 856 275 856 b 140 761 200 856 140 819 b 108 744 140 744 129 744 "},"":{"ha":1003,"x_min":0,"x_max":0,"o":"m 731 0 b 501 4 706 4 547 4 b 272 0 456 4 297 4 l 256 0 l 256 64 l 293 64 b 360 65 314 64 344 64 b 433 85 414 68 415 71 l 433 208 l 431 208 b 408 213 429 210 418 211 b 222 271 343 219 275 242 b 79 440 143 315 94 375 b 78 475 78 449 78 463 b 79 508 78 488 78 500 b 222 678 94 574 143 633 b 408 736 275 707 343 729 b 431 740 418 738 429 739 l 433 740 l 433 864 b 360 883 415 878 414 881 b 293 885 344 885 314 885 l 256 885 l 256 949 l 272 949 b 501 944 297 944 456 944 b 731 949 547 944 706 944 l 747 949 l 747 885 l 710 885 b 643 883 689 885 658 885 b 571 864 590 881 586 879 l 571 740 l 590 738 b 903 558 733 719 857 649 b 924 475 919 528 924 507 b 903 390 924 442 919 421 b 590 211 857 300 733 229 l 571 208 l 571 85 b 643 65 586 69 590 68 b 710 64 658 64 689 64 l 747 64 l 747 0 l 731 0 m 236 475 b 426 261 236 342 303 279 l 433 261 l 433 688 l 429 688 b 388 679 424 688 401 683 b 236 475 286 654 236 594 m 576 261 b 765 475 700 281 765 340 b 597 683 765 601 708 661 b 576 688 589 685 579 686 l 569 688 l 569 261 l 576 261 "},"":{"ha":1081,"x_min":0,"x_max":0,"o":"m 96 707 b 76 731 79 707 76 711 b 78 750 76 742 76 746 b 149 758 83 758 83 758 b 218 756 203 758 208 758 b 283 685 251 747 274 719 b 299 571 294 657 297 632 b 378 319 301 456 321 376 b 458 271 401 297 426 281 b 471 267 465 268 471 267 b 472 565 472 267 472 401 l 472 864 b 399 883 454 878 453 881 b 332 885 383 885 353 885 l 294 885 l 294 949 l 311 949 b 540 944 336 944 494 944 b 769 949 586 944 744 944 l 786 949 l 786 885 l 749 885 b 682 883 728 885 697 885 b 610 864 629 881 625 879 l 608 565 b 610 267 608 382 608 267 b 647 282 613 267 636 276 b 781 571 740 328 776 425 b 796 685 782 632 785 657 b 861 756 806 719 828 747 b 932 758 871 758 876 758 l 993 758 l 1003 750 l 1003 715 b 983 707 997 711 996 707 b 936 669 963 704 947 693 b 917 564 924 644 918 618 b 894 426 914 503 908 468 b 626 213 853 307 763 235 l 608 210 l 608 147 l 610 85 b 682 65 625 69 629 68 b 749 64 697 64 728 64 l 786 64 l 786 0 l 769 0 b 540 4 744 4 586 4 b 311 0 494 4 336 4 l 294 0 l 294 64 l 332 64 b 399 65 353 64 383 64 b 472 85 453 68 454 71 l 472 210 b 163 564 278 235 169 353 b 143 669 161 618 156 644 b 96 707 132 693 117 704 "},"":{"ha":1003,"x_min":0,"x_max":0,"o":"m 375 28 b 365 0 375 11 372 7 l 107 0 l 107 3 b 85 124 106 4 96 58 b 61 243 72 188 63 242 l 61 246 l 117 246 l 118 239 b 124 213 118 235 121 222 b 144 129 131 171 139 140 b 154 119 147 125 149 122 b 247 111 169 114 181 113 l 308 111 l 308 115 b 278 189 304 128 290 161 b 201 317 260 224 243 251 b 90 535 132 428 108 472 b 76 631 82 565 76 599 b 88 710 76 658 81 686 b 447 976 128 846 268 961 b 468 978 456 978 464 978 l 489 978 b 810 871 632 978 725 943 b 914 710 860 826 897 769 b 925 631 921 686 925 658 b 911 535 925 599 919 565 b 800 317 893 472 869 428 b 724 189 758 251 742 224 b 693 115 711 161 697 128 l 693 111 l 754 111 b 847 119 821 113 832 114 b 857 129 853 122 854 125 b 878 213 863 140 871 171 b 883 239 881 222 883 235 l 885 246 l 940 246 l 940 243 b 917 124 939 242 929 188 b 894 3 906 58 896 4 l 894 0 l 767 0 b 629 8 626 0 633 0 b 626 28 628 11 626 18 b 639 138 626 54 632 99 b 693 325 649 185 661 226 b 751 536 731 438 742 481 b 761 632 757 569 761 601 b 618 900 761 763 708 854 b 501 928 581 918 542 928 b 285 810 399 928 326 875 b 242 633 256 764 242 703 b 250 536 242 603 244 569 b 308 325 260 481 271 438 b 363 138 340 226 353 185 b 375 28 369 100 375 54 "},"":{"ha":694,"x_min":0,"x_max":0,"o":""},"":{"ha":1388,"x_min":0,"x_max":0,"o":""},"":{"ha":463,"x_min":0,"x_max":0,"o":""},"":{"ha":347,"x_min":0,"x_max":0,"o":""},"":{"ha":232,"x_min":0,"x_max":0,"o":""},"":{"ha":232,"x_min":0,"x_max":0,"o":""},"":{"ha":115,"x_min":0,"x_max":0,"o":""},"":{"ha":694,"x_min":0,"x_max":0,"o":"m 0 396 l 693 396 l 693 344 l 0 344 "},"":{"ha":1389,"x_min":0,"x_max":0,"o":"m 0 396 l 1388 396 l 1388 344 l 0 344 "},"":{"ha":386,"x_min":0,"x_max":0,"o":"m 275 611 b 193 526 275 565 240 526 b 111 581 151 526 126 553 b 89 686 96 610 89 638 b 92 732 89 704 90 722 b 171 917 103 800 131 865 b 222 964 183 931 211 964 b 253 933 229 964 253 938 b 236 911 253 928 244 919 b 140 696 178 851 144 779 b 142 679 140 686 140 679 b 151 685 142 679 146 682 b 192 694 164 692 178 694 b 275 611 239 694 275 658 "},"":{"ha":386,"x_min":0,"x_max":0,"o":"m 108 881 b 192 964 108 926 143 964 b 254 938 221 964 236 954 b 294 804 283 904 294 868 b 257 644 294 735 282 693 b 189 547 238 604 218 576 b 164 526 175 533 169 526 b 132 557 157 526 132 553 b 149 579 132 563 140 571 b 244 794 207 639 240 711 b 243 811 244 804 244 811 b 233 806 243 811 239 808 b 193 796 221 799 207 796 b 108 881 146 796 108 833 "},"":{"ha":694,"x_min":0,"x_max":0,"o":"m 310 964 b 340 932 317 964 340 938 b 324 911 340 926 335 922 b 228 696 265 851 232 779 b 229 679 228 686 228 679 b 239 685 229 679 233 682 b 279 694 251 692 265 694 b 364 611 326 694 364 658 b 281 526 364 565 328 526 b 199 581 239 526 214 553 b 178 686 183 610 178 638 b 179 732 178 704 178 722 b 258 917 190 800 218 865 b 310 964 271 931 299 964 m 647 611 b 564 526 647 565 611 526 b 482 581 522 526 497 553 b 461 686 467 610 461 638 b 463 732 461 704 461 722 b 542 917 474 800 501 865 b 593 964 554 931 582 964 b 624 933 600 964 624 938 b 607 911 624 928 615 919 b 511 696 549 851 515 779 b 513 679 511 686 511 679 b 522 685 513 679 517 682 b 563 694 535 692 549 694 b 647 611 610 694 647 658 "},"":{"ha":694,"x_min":0,"x_max":0,"o":"m 47 881 b 129 964 47 926 81 964 b 192 938 158 964 174 954 b 233 804 221 904 233 868 b 194 644 233 735 219 693 b 126 547 175 604 156 576 b 101 526 113 533 107 526 b 69 557 94 526 69 553 b 86 579 69 563 78 571 b 182 794 144 639 178 711 b 181 811 182 804 182 811 b 171 806 181 811 176 808 b 131 796 158 799 144 796 b 47 881 83 796 47 833 m 331 881 b 413 964 331 926 364 964 b 475 938 442 964 457 954 b 517 804 504 904 517 868 b 478 644 517 735 503 693 b 410 547 458 604 439 576 b 385 526 396 533 390 526 b 353 557 378 526 353 553 b 369 579 353 563 361 571 b 465 794 428 639 461 711 b 464 811 465 804 465 811 b 454 806 464 811 460 808 b 414 796 442 799 428 796 b 331 881 367 796 331 833 "},"":{"ha":617,"x_min":0,"x_max":0,"o":"m 253 938 b 308 979 263 960 276 979 b 365 938 343 979 353 960 l 364 910 b 349 760 364 871 361 842 b 333 631 339 696 335 663 l 333 624 b 392 639 349 626 365 631 b 481 656 431 650 460 656 b 540 599 514 656 540 633 b 481 542 540 567 517 542 b 392 560 460 542 431 547 b 338 572 371 565 342 572 l 333 572 l 333 563 b 347 475 336 543 340 514 b 365 313 364 396 365 376 b 340 -233 365 150 356 -58 b 332 -296 336 -296 336 -292 b 308 -300 328 -300 328 -300 b 285 -296 289 -300 289 -300 b 276 -233 281 -292 281 -296 b 251 313 261 -58 251 150 b 269 475 251 376 253 396 b 283 563 276 514 281 543 l 283 572 l 279 572 b 225 560 275 572 246 565 b 136 542 186 547 157 542 b 76 599 103 542 76 564 b 136 656 76 629 100 656 b 225 639 157 656 186 650 b 285 624 251 631 267 626 l 283 631 b 268 760 282 663 278 696 b 253 910 256 842 253 871 l 253 938 "},"":{"ha":617,"x_min":0,"x_max":0,"o":"m 251 914 b 308 979 251 953 269 979 b 365 914 347 979 365 953 b 350 799 365 889 361 854 b 333 690 339 742 333 700 b 335 689 333 689 333 689 b 392 703 340 689 363 696 b 479 721 435 715 460 721 b 539 664 513 721 539 700 b 501 608 539 631 522 621 l 478 608 b 392 624 450 608 443 608 b 335 638 363 631 340 638 b 333 633 335 638 333 636 b 350 529 333 621 340 581 b 365 413 361 474 365 438 b 308 347 365 372 343 347 b 251 413 274 347 251 372 b 267 529 251 438 256 474 b 283 636 278 585 283 626 b 282 638 283 638 283 638 b 225 624 276 638 254 631 b 140 608 174 608 167 608 l 117 608 b 78 664 94 619 78 631 b 138 721 78 700 104 721 b 225 703 157 721 182 715 b 282 689 254 696 276 689 b 283 693 282 689 283 690 b 267 799 283 706 276 747 b 251 914 256 854 251 889 m 251 281 b 308 346 251 319 269 346 b 365 281 347 346 365 319 b 349 158 365 256 361 219 b 333 67 340 113 336 86 l 333 57 l 338 57 b 392 69 342 57 371 64 b 481 88 431 82 460 88 b 540 31 514 88 540 65 b 481 -26 540 -1 517 -26 b 392 -8 460 -26 431 -21 b 338 4 371 -3 342 4 l 333 4 l 333 -6 b 349 -97 336 -25 340 -51 b 365 -219 361 -158 365 -194 b 308 -285 365 -260 343 -285 b 251 -219 274 -285 251 -260 b 268 -97 251 -194 256 -158 b 283 -6 276 -51 281 -25 l 283 4 l 279 4 b 225 -8 275 4 246 -3 b 136 -26 186 -21 157 -26 b 76 31 103 -26 76 -4 b 136 88 76 61 100 88 b 225 69 157 88 186 82 b 279 57 246 64 275 57 l 283 57 l 283 67 b 268 158 281 86 276 113 b 251 281 256 219 251 256 "},"":{"ha":1628,"x_min":0,"x_max":0,"o":"m 108 83 b 192 167 108 131 144 167 b 276 85 242 167 276 128 b 193 0 276 35 236 0 b 108 83 143 0 108 40 m 729 83 b 813 167 729 131 765 167 b 897 85 863 167 897 128 b 814 0 897 35 857 0 b 729 83 764 0 729 40 m 1350 83 b 1433 167 1350 131 1386 167 b 1518 85 1483 167 1518 128 b 1435 0 1518 35 1478 0 b 1350 83 1385 0 1350 40 "},"":{"ha":382,"x_min":0,"x_max":0,"o":"m 275 778 b 364 696 324 778 364 738 b 361 675 364 689 363 682 b 117 63 358 661 119 65 b 110 60 114 60 113 60 b 78 67 104 60 96 61 b 42 85 49 76 42 79 b 203 733 42 96 192 713 b 275 778 214 758 239 778 "},"":{"ha":0,"x_min":0,"x_max":0,"o":"m -171 964 b -143 992 -171 978 -160 992 b -126 985 -136 992 -131 989 b -112 958 -121 981 -118 975 b -56 879 -104 926 -83 897 b -40 854 -44 872 -40 865 b -64 825 -40 836 -46 835 b -168 738 -107 803 -137 776 b -199 717 -182 722 -182 717 b -226 744 -211 717 -226 728 b -161 826 -226 769 -179 811 l -399 826 l -636 828 b -654 854 -646 835 -654 842 b -636 882 -654 867 -644 874 l -137 882 b -171 964 -151 904 -171 946 "},"":{"ha":750,"x_min":0,"x_max":0,"o":"m 58 36 b 231 736 58 50 231 736 b 179 743 231 743 228 743 b 119 749 132 743 126 743 b 103 781 108 757 103 768 b 108 801 103 788 104 794 b 192 822 119 819 124 819 l 253 826 l 253 832 b 228 857 253 847 250 854 b 185 860 215 860 197 860 b 151 875 157 860 151 863 b 169 946 151 888 167 940 b 281 956 172 950 203 953 b 397 965 336 961 392 965 b 422 950 414 965 422 958 b 392 829 422 946 397 844 b 500 822 392 822 401 822 b 619 814 608 822 611 819 b 639 782 632 806 639 794 b 626 751 639 772 635 761 l 614 743 l 369 743 l 349 650 b 324 554 336 600 324 557 b 339 561 324 549 326 551 b 496 613 385 594 439 613 b 664 521 581 613 643 575 b 674 463 669 503 674 485 b 604 196 674 408 653 333 b 572 81 581 131 572 97 b 592 61 572 67 579 61 b 647 94 607 61 629 72 b 694 181 669 117 682 144 l 707 211 l 738 211 l 764 211 b 781 200 776 211 781 210 b 765 150 781 192 776 176 b 608 -14 731 64 675 6 b 576 -18 597 -17 588 -18 b 447 61 521 -18 465 14 b 442 107 442 72 442 82 b 465 206 442 132 442 135 b 536 468 513 333 536 417 b 481 536 536 511 519 536 b 397 514 457 536 425 528 b 293 406 364 499 314 450 b 240 218 286 397 268 329 b 192 29 215 122 194 39 b 169 6 188 24 179 11 b 115 -17 153 -10 133 -17 b 58 36 85 -17 58 3 "},"":{"ha":1003,"x_min":0,"x_max":0,"o":"m 76 704 b 361 979 76 857 206 979 b 574 907 432 979 506 954 b 731 751 626 871 674 824 b 788 711 760 717 767 711 b 899 764 835 711 899 724 b 931 779 899 781 910 779 l 943 779 b 963 761 957 779 963 778 b 953 726 963 751 960 739 b 785 660 929 681 857 660 b 668 688 738 660 707 668 b 532 811 622 710 593 736 b 422 913 478 874 454 897 b 360 926 399 924 388 926 b 293 917 333 926 317 925 b 143 744 215 892 158 825 b 142 706 142 735 142 719 b 161 613 142 664 150 640 b 379 482 196 542 281 482 b 399 457 396 482 399 478 b 378 431 399 435 397 431 b 82 650 239 431 113 521 b 76 704 78 668 76 686 m 926 444 b 899 465 906 444 899 444 b 786 546 894 511 846 546 b 763 543 771 546 768 546 b 718 433 736 531 718 489 b 744 367 718 407 725 390 b 807 308 754 354 764 346 b 868 235 840 281 858 257 b 876 183 875 217 876 207 b 857 108 875 154 869 135 b 676 -12 825 46 760 1 b 579 -14 664 -14 653 -14 b 482 -11 499 -14 496 -14 b 243 140 396 7 311 89 b 99 203 188 182 147 200 b 81 207 85 203 83 204 b 76 226 76 211 76 211 b 83 253 76 244 78 250 b 150 254 86 253 118 254 b 224 253 182 254 215 253 b 425 129 308 242 361 189 b 583 18 503 56 528 36 b 732 140 657 35 713 82 b 740 189 738 156 740 174 b 735 221 740 201 739 213 b 671 297 726 243 707 265 b 594 379 622 336 607 353 b 583 422 586 397 583 404 l 583 433 b 682 575 583 508 628 550 b 783 599 713 590 743 599 b 963 467 874 599 956 550 b 939 444 963 446 956 444 l 926 444 "},"":{"ha":579,"x_min":0,"x_max":0,"o":"m 485 144 b 513 111 492 144 513 121 b 489 82 513 104 506 97 b 286 -28 407 6 350 -28 b 135 158 206 -28 154 36 b 131 179 133 168 132 178 b 39 97 131 183 49 97 b 18 114 32 97 29 100 b 10 131 11 124 10 126 b 81 204 10 138 4 132 l 126 249 l 126 257 b 128 278 126 261 128 271 b 160 482 128 329 140 407 b 319 861 196 631 247 753 b 451 978 365 932 407 968 b 467 979 457 978 461 979 b 549 917 514 979 538 957 b 551 871 551 906 551 901 b 549 815 551 840 551 835 b 269 324 521 656 432 500 l 229 279 l 226 258 b 221 171 224 228 221 199 b 224 121 221 153 222 136 b 289 24 232 53 250 24 b 406 78 331 24 363 42 b 485 144 436 101 476 144 m 500 881 b 467 928 500 911 494 928 b 454 926 463 928 457 926 b 378 822 432 918 407 885 b 274 482 343 744 321 671 b 249 379 261 433 249 381 b 307 447 249 376 286 419 b 493 819 393 553 464 672 b 500 881 499 844 500 865 "},"":{"ha":883,"x_min":0,"x_max":0,"o":"m 503 151 b 472 106 503 131 490 115 b 546 36 472 65 506 36 b 658 93 582 36 624 57 b 743 271 697 133 719 181 b 765 403 758 331 765 371 b 672 518 765 467 736 518 b 596 508 651 518 622 514 b 274 239 476 481 360 383 b 242 181 258 213 242 182 b 368 14 242 181 353 42 b 383 -57 378 -8 383 -32 b 214 -299 383 -161 307 -283 b 197 -300 208 -300 203 -300 b 93 -164 121 -300 93 -242 b 144 89 93 -99 114 3 l 153 113 b 113 242 126 146 113 186 b 326 626 113 403 213 604 b 343 629 332 628 339 629 b 360 618 351 629 360 625 b 351 583 360 614 353 586 b 336 578 350 581 344 578 b 268 517 315 575 293 556 b 197 282 228 461 197 351 b 207 229 197 269 201 229 l 219 250 b 531 540 289 371 399 489 b 674 569 579 560 629 569 b 744 558 700 569 725 565 b 868 354 819 529 868 461 b 749 82 868 243 811 147 b 615 -1 707 42 663 14 b 540 -14 585 -12 569 -14 b 417 103 465 -14 421 32 b 469 185 417 149 428 185 b 503 151 492 185 503 169 m 146 -171 b 201 -247 146 -219 157 -247 b 222 -244 213 -247 215 -247 b 297 -101 258 -225 297 -162 b 290 -67 297 -87 294 -76 b 193 60 289 -64 197 60 b 188 46 192 60 192 57 b 149 -119 172 -1 156 -72 b 146 -171 146 -133 146 -154 "},"":{"ha":1003,"x_min":0,"x_max":0,"o":"m 158 338 b 76 447 104 338 76 392 b 104 467 76 464 82 467 b 132 447 124 467 132 467 b 157 389 132 425 138 389 b 204 521 201 389 203 457 b 201 581 204 567 204 569 b 140 676 194 607 181 631 b 81 771 104 718 90 740 b 78 806 78 782 78 785 b 149 953 78 872 108 925 b 235 978 171 969 197 978 b 339 943 281 978 308 964 b 417 853 367 922 399 885 b 464 900 429 865 450 889 b 738 993 531 953 628 985 b 774 994 747 993 763 994 b 794 992 789 994 792 994 b 993 617 799 989 993 621 b 990 610 993 614 992 611 b 763 492 982 601 803 506 l 764 483 b 779 178 764 453 779 208 b 776 140 779 161 776 156 b 821 35 776 92 797 61 l 832 25 l 876 71 b 929 119 904 99 922 119 b 975 94 942 119 972 97 b 975 82 976 90 976 85 b 851 -29 975 79 857 -26 b 831 -31 850 -31 842 -31 b 711 0 774 -31 746 -24 b 640 140 671 26 640 82 b 643 179 640 156 643 163 b 628 460 643 186 628 458 l 628 469 l 476 469 l 476 389 b 463 218 475 292 474 267 b 371 17 447 135 413 61 b 268 -31 339 -15 306 -31 b 100 103 182 -31 125 35 b 93 103 99 106 99 106 b 67 114 83 100 81 101 b 56 132 57 125 56 126 b 79 151 56 142 68 147 l 79 157 b 93 176 79 161 79 163 b 113 190 106 189 108 190 b 129 171 122 190 126 181 b 150 175 135 172 144 176 b 176 149 156 172 175 153 b 149 125 176 135 158 131 b 167 86 149 121 161 96 b 267 21 193 49 226 21 b 332 133 314 21 328 89 b 339 464 338 176 339 189 b 336 753 339 710 338 731 b 324 828 332 783 328 813 b 231 928 306 885 275 928 b 139 811 172 928 139 868 b 183 733 139 786 147 771 b 268 588 225 686 256 649 b 269 540 269 576 269 568 b 158 338 267 440 247 338 m 450 781 b 476 593 468 715 474 689 l 476 533 l 589 533 l 701 535 b 811 586 733 546 767 561 l 846 604 b 764 764 847 604 810 676 b 678 922 717 850 679 922 l 661 919 b 525 867 606 907 560 890 b 450 781 492 847 461 815 "},"":{"ha":849,"x_min":0,"x_max":0,"o":"m 106 51 b 194 97 160 54 194 60 b 185 147 194 111 192 129 b 149 218 179 160 168 182 b 115 328 124 264 115 290 b 124 397 115 356 118 369 b 207 600 135 457 161 521 b 221 628 221 622 222 625 b 132 728 197 651 140 718 b 78 825 101 765 85 796 b 76 851 76 832 76 842 b 82 913 76 872 78 897 b 118 964 88 932 101 964 b 131 946 126 964 131 957 b 186 817 135 897 151 860 b 567 401 193 807 281 711 l 572 396 b 621 707 583 478 618 664 l 621 721 l 608 731 b 565 775 593 744 574 763 b 539 857 546 799 539 819 b 544 913 539 876 542 899 b 581 964 550 932 564 964 b 593 950 586 964 592 958 b 653 849 596 938 617 903 b 711 783 676 811 678 814 b 771 676 746 753 771 736 b 765 621 771 657 768 636 b 733 568 760 597 743 571 b 715 592 719 568 717 572 b 699 643 714 610 707 629 b 681 668 692 654 682 668 b 678 646 681 668 679 658 b 633 371 672 606 639 415 b 631 342 632 357 631 347 b 753 183 631 317 711 260 b 771 110 767 157 771 138 b 747 13 771 64 764 35 b 728 0 740 4 733 0 b 717 18 721 0 717 6 b 661 147 713 67 696 104 b 278 565 654 156 357 481 l 271 572 l 269 567 b 229 333 242 511 229 413 b 231 306 229 322 229 311 b 282 224 236 282 250 260 b 338 147 318 183 328 169 b 350 97 346 129 350 114 b 243 1 350 39 297 10 b 160 0 236 0 200 0 b 78 7 82 0 82 0 b 76 28 76 10 76 18 b 81 47 76 43 76 43 b 106 51 83 51 85 51 "},"":{"ha":1389,"x_min":0,"x_max":0,"o":"m 1311 347 b 1290 319 1311 332 1301 325 l 229 319 l 233 315 b 421 35 329 242 389 158 b 429 0 425 19 429 8 b 400 -15 429 -11 421 -15 b 371 6 378 -15 375 -12 b 365 29 369 10 367 21 b 101 328 332 164 232 276 b 76 343 83 335 79 338 b 101 367 76 360 85 363 b 365 665 232 418 332 531 b 400 710 371 693 368 710 b 429 694 421 710 429 706 b 421 660 429 686 425 675 b 233 379 390 539 325 451 l 229 375 l 1290 375 b 1311 347 1301 369 1311 363 "},"":{"ha":694,"x_min":0,"x_max":0,"o":"m 38 575 b 24 601 25 575 24 582 b 50 633 24 629 26 626 b 250 763 126 653 206 703 b 331 942 292 814 321 878 b 349 964 332 957 338 964 b 363 950 356 964 361 958 b 367 928 363 946 365 936 b 644 633 397 785 506 668 b 671 601 668 626 671 629 b 657 574 671 581 668 574 b 636 578 651 574 644 575 b 385 757 535 606 443 669 l 375 771 l 375 -249 b 347 -268 369 -260 363 -268 b 319 -249 332 -268 325 -260 l 319 771 l 310 757 b 138 607 267 692 208 642 b 38 575 99 589 53 575 "},"":{"ha":1389,"x_min":0,"x_max":0,"o":"m 78 347 b 97 375 78 363 86 369 l 1160 375 b 1007 553 1089 428 1043 483 b 961 685 985 596 968 646 b 960 694 961 689 960 692 b 988 710 960 708 969 710 b 1017 690 1010 710 1013 707 b 1032 633 1019 674 1026 649 b 1299 363 1072 513 1169 406 b 1311 347 1307 360 1311 356 b 1299 332 1311 339 1307 335 b 1032 61 1171 289 1072 182 b 1017 6 1026 46 1019 21 b 988 -15 1013 -12 1010 -15 b 958 0 967 -15 958 -11 b 967 35 958 8 963 19 b 1160 319 997 157 1064 249 l 97 319 b 78 347 86 325 78 332 "},"":{"ha":694,"x_min":0,"x_max":0,"o":"m 657 119 b 671 93 669 119 671 113 b 644 61 671 65 668 68 b 367 -233 506 26 397 -90 b 363 -256 365 -242 363 -251 b 349 -269 361 -264 356 -269 b 331 -247 338 -269 332 -262 b 193 -11 317 -157 261 -61 b 50 61 151 22 100 49 b 24 93 26 68 24 65 b 38 121 24 114 26 121 b 58 117 43 121 50 119 b 310 -62 160 89 251 25 l 319 -76 l 319 433 b 322 949 319 928 319 943 b 349 964 326 957 335 964 b 375 943 364 963 369 954 l 375 -76 l 385 -62 b 558 88 428 3 486 53 b 657 119 596 106 642 119 "},"":{"ha":1389,"x_min":0,"x_max":0,"o":"m 371 690 b 400 710 376 708 378 710 b 429 694 421 710 429 706 b 421 660 429 686 425 675 b 233 379 390 539 325 451 l 229 375 l 1160 375 b 967 660 1061 449 999 533 b 958 694 963 675 958 686 b 988 710 958 706 967 710 b 1017 690 1010 710 1013 707 b 1032 633 1019 674 1026 649 b 1299 363 1072 513 1169 406 b 1311 347 1307 360 1311 356 b 1299 332 1311 339 1307 335 b 1032 61 1171 289 1072 182 b 1017 6 1026 46 1019 21 b 988 -15 1013 -12 1010 -15 b 958 0 967 -15 958 -11 b 967 35 958 8 963 19 b 1160 319 997 157 1064 249 l 229 319 l 233 315 b 421 35 329 242 389 158 b 429 0 425 19 429 8 b 400 -15 429 -11 421 -15 b 371 6 378 -15 375 -12 b 365 29 369 10 367 21 b 101 328 332 164 232 276 b 76 343 83 335 79 338 b 101 367 76 360 85 363 b 365 665 232 418 332 531 b 371 690 367 674 369 685 "},"":{"ha":694,"x_min":0,"x_max":0,"o":"m 38 683 b 24 710 25 683 24 690 b 50 742 24 738 26 735 b 250 871 126 761 206 811 b 328 1038 289 919 317 978 b 338 1068 332 1063 333 1064 b 347 1072 340 1071 343 1072 b 363 1058 356 1072 361 1067 b 367 1036 363 1054 365 1044 b 644 742 397 893 506 775 b 671 710 668 735 671 738 b 657 682 671 689 668 682 b 636 686 651 682 644 683 b 385 865 535 714 443 778 l 375 879 l 375 -185 l 385 -171 b 558 -21 428 -106 486 -56 b 657 11 596 -3 642 11 b 671 -15 669 11 671 4 b 644 -47 671 -43 668 -40 b 367 -342 506 -82 397 -199 b 363 -364 365 -350 363 -360 b 347 -378 361 -372 356 -378 b 338 -374 343 -378 340 -376 b 328 -342 333 -369 332 -368 b 193 -119 311 -257 258 -167 b 50 -47 151 -86 100 -60 b 24 -15 26 -40 24 -43 b 38 13 24 6 26 13 b 58 8 43 13 50 11 b 310 -171 160 -19 251 -83 l 319 -185 l 319 879 l 310 865 b 138 715 267 800 208 750 b 38 683 99 697 53 683 "},"":{"ha":1389,"x_min":0,"x_max":0,"o":"m 72 461 b 40 493 68 461 40 486 b 53 517 40 499 44 504 b 119 757 96 588 119 651 b 82 932 119 832 106 882 b 76 949 79 939 76 947 b 93 964 76 957 85 965 b 283 919 146 938 210 919 b 351 924 308 919 336 921 b 524 988 414 933 471 954 b 547 1000 536 996 542 1000 b 579 968 554 1000 579 972 b 556 943 579 960 575 956 b 344 868 492 903 421 878 b 294 865 331 867 313 865 b 213 872 264 865 232 868 b 758 322 208 872 326 754 b 1310 -233 1213 -132 1308 -229 b 1311 -242 1311 -236 1311 -239 b 1283 -271 1311 -257 1299 -271 b 1272 -268 1279 -271 1276 -269 b 718 283 1269 -267 1113 -111 b 168 831 415 585 168 832 b 175 774 174 818 175 796 l 175 751 b 97 485 175 639 147 564 b 72 461 85 465 81 461 "},"":{"ha":1389,"x_min":0,"x_max":0,"o":"m 808 968 b 840 1000 808 972 833 1000 b 864 988 846 1000 851 996 b 1038 924 917 954 974 933 b 1104 919 1051 921 1079 919 b 1275 956 1171 919 1222 933 b 1297 964 1285 961 1294 964 b 1311 951 1303 964 1310 958 b 1306 932 1311 947 1310 943 b 1268 757 1282 882 1268 832 b 1335 517 1268 651 1292 588 b 1347 493 1343 504 1347 499 b 1315 461 1347 486 1319 461 b 1290 485 1307 461 1303 465 b 1214 751 1240 564 1214 640 l 1214 788 b 1219 831 1214 806 1214 821 b 669 283 1219 832 972 585 b 115 -268 275 -111 118 -267 b 104 -271 111 -269 108 -271 b 76 -242 89 -271 76 -257 b 78 -233 76 -239 76 -236 b 629 322 79 -229 175 -132 b 1176 872 1061 754 1179 872 b 1093 865 1157 868 1124 865 b 1043 868 1075 865 1057 867 b 832 943 967 878 896 903 b 808 968 813 956 808 960 "},"":{"ha":1389,"x_min":0,"x_max":0,"o":"m 76 938 b 104 965 76 951 88 965 b 115 963 108 965 111 964 b 669 411 118 961 275 806 b 1219 -135 972 110 1219 -137 b 1215 -112 1218 -133 1217 -124 b 1214 -57 1214 -99 1214 -78 b 1290 210 1214 56 1240 131 b 1315 233 1303 229 1307 233 b 1347 201 1319 233 1347 208 b 1335 178 1347 196 1343 190 b 1268 -62 1292 107 1268 43 b 1306 -237 1268 -137 1282 -187 b 1311 -257 1310 -249 1311 -253 b 1297 -269 1310 -264 1303 -269 b 1275 -261 1294 -269 1285 -267 b 1104 -225 1222 -239 1171 -225 b 1038 -229 1079 -225 1051 -226 b 864 -293 974 -239 917 -260 b 840 -306 851 -301 846 -306 b 808 -274 833 -306 808 -278 b 832 -249 808 -265 813 -261 b 1043 -174 896 -208 967 -183 b 1093 -171 1057 -172 1075 -171 b 1176 -178 1124 -171 1157 -174 b 629 372 1179 -178 1061 -60 b 78 928 175 826 79 924 b 76 938 76 931 76 935 "},"":{"ha":1389,"x_min":0,"x_max":0,"o":"m 40 201 b 72 233 40 208 68 233 b 97 210 81 233 85 229 b 175 -57 147 131 175 54 b 172 -112 175 -78 174 -99 b 168 -135 171 -124 169 -133 b 718 411 168 -137 415 110 b 1272 963 1082 776 1269 961 b 1283 965 1276 964 1279 965 b 1311 936 1299 965 1311 951 b 1310 928 1311 933 1311 931 b 758 372 1308 924 1213 826 b 213 -178 326 -60 208 -178 b 294 -171 232 -174 264 -171 b 344 -174 313 -171 331 -172 b 556 -249 421 -183 492 -208 b 579 -274 575 -261 579 -265 b 547 -306 579 -278 554 -306 b 524 -293 542 -306 536 -301 b 351 -229 471 -260 414 -239 b 283 -225 336 -226 308 -225 b 114 -261 217 -225 163 -239 b 93 -269 106 -265 96 -268 b 76 -254 85 -271 76 -262 b 82 -237 76 -253 79 -244 b 119 -62 106 -187 119 -137 b 53 178 119 43 96 107 b 40 201 44 190 40 196 "},"":{"ha":1389,"x_min":0,"x_max":0,"o":"m 79 590 b 104 607 83 599 92 607 b 124 599 113 607 119 603 b 132 479 132 589 132 594 l 132 375 l 1160 375 b 1007 553 1089 428 1043 483 b 961 685 985 596 968 646 b 960 694 961 689 960 692 b 988 710 960 708 969 710 b 1017 690 1010 710 1013 707 b 1032 633 1019 674 1026 649 b 1299 363 1072 513 1169 406 b 1311 347 1307 360 1311 356 b 1299 332 1311 339 1307 335 b 1032 61 1171 289 1072 182 b 1017 6 1026 46 1019 21 b 988 -15 1013 -12 1010 -15 b 958 0 967 -15 958 -11 b 967 35 958 8 963 19 b 1160 319 997 157 1064 249 l 132 319 l 132 215 b 124 96 132 100 132 106 b 104 88 119 92 113 88 b 85 96 96 88 89 92 b 76 347 76 106 76 86 b 79 590 76 575 76 585 "},"":{"ha":1564,"x_min":0,"x_max":0,"o":"m 1486 482 b 1290 319 1486 388 1394 319 l 229 319 l 233 315 b 421 35 329 242 389 158 b 429 0 425 19 429 8 b 400 -15 429 -11 421 -15 b 371 6 378 -15 375 -12 b 365 29 369 10 367 21 b 101 328 332 164 232 276 b 76 343 83 335 79 338 b 101 367 76 360 85 363 b 365 665 232 418 332 531 b 400 710 371 693 368 710 b 429 694 421 710 429 706 b 421 660 429 686 425 675 b 233 379 390 539 325 451 l 229 375 l 1290 375 b 1410 426 1343 379 1385 396 b 1431 482 1424 443 1431 463 b 1290 589 1431 550 1360 583 b 1254 617 1267 590 1254 597 b 1290 644 1254 635 1267 644 b 1486 482 1394 644 1486 576 "},"":{"ha":1564,"x_min":0,"x_max":0,"o":"m 272 319 b 76 482 168 319 76 388 b 274 644 76 576 171 644 b 308 617 296 644 308 635 b 272 589 308 597 296 590 b 153 538 219 585 178 568 b 132 482 139 521 132 501 b 272 375 132 414 203 381 l 1335 375 b 1182 553 1264 428 1218 483 b 1136 685 1160 596 1143 646 b 1135 694 1136 689 1135 692 b 1163 710 1135 708 1144 710 b 1192 690 1185 710 1188 707 b 1207 633 1194 674 1201 649 b 1474 363 1247 513 1344 406 b 1486 347 1482 360 1486 356 b 1474 332 1486 339 1482 335 b 1207 61 1346 289 1247 182 b 1192 6 1201 46 1194 21 b 1163 -15 1188 -12 1185 -15 b 1133 0 1142 -15 1133 -11 b 1142 35 1133 8 1138 19 b 1335 319 1172 157 1239 249 l 272 319 "},"":{"ha":1389,"x_min":0,"x_max":0,"o":"m 86 319 b 76 339 79 326 78 325 b 96 368 76 354 78 356 b 368 685 219 442 314 551 b 393 710 375 708 374 710 l 400 710 b 425 701 417 710 422 708 b 421 672 429 696 428 693 b 210 379 379 560 303 451 l 206 375 l 1290 375 b 1311 347 1301 369 1311 363 b 1290 319 1311 332 1301 325 l 86 319 "},"":{"ha":1389,"x_min":0,"x_max":0,"o":"m 76 356 b 86 375 78 369 79 368 l 1290 375 b 1311 347 1301 369 1311 363 b 1290 319 1311 332 1301 325 l 206 319 b 265 265 219 306 247 283 b 421 22 333 196 388 113 b 425 -7 428 1 429 -1 b 400 -15 422 -14 417 -15 b 368 10 378 -15 378 -15 b 96 326 308 150 221 251 b 76 356 78 339 76 340 "},"":{"ha":1389,"x_min":0,"x_max":0,"o":"m 960 694 b 988 710 960 707 971 710 b 1019 685 1010 710 1010 710 b 1267 383 1075 556 1156 456 b 1296 365 1278 376 1290 368 b 1311 340 1310 357 1311 356 b 1301 319 1311 325 1308 326 l 97 319 b 78 347 86 325 78 332 b 97 375 78 363 86 369 l 1183 375 b 967 672 1089 446 1008 558 b 960 694 963 683 960 693 "},"":{"ha":1389,"x_min":0,"x_max":0,"o":"m 78 347 b 97 375 78 363 86 369 l 1301 375 b 1311 356 1307 369 1311 369 b 1296 331 1311 339 1310 336 b 1019 10 1168 253 1075 146 b 988 -15 1010 -15 1010 -15 b 963 -7 971 -15 965 -14 b 967 22 958 -1 960 1 b 1183 319 1008 136 1088 249 l 97 319 b 78 347 86 325 78 332 "},"":{"ha":1389,"x_min":0,"x_max":0,"o":"m 960 917 b 988 932 960 929 971 932 b 1019 907 1010 932 1010 932 b 1267 606 1075 778 1156 678 b 1296 588 1278 599 1290 590 b 1311 563 1310 579 1311 578 b 1301 542 1311 547 1308 549 l 97 542 b 78 569 86 547 78 554 b 97 597 78 585 86 592 l 1183 597 b 967 894 1089 668 1008 781 b 960 917 963 906 960 915 m 76 356 b 86 375 78 369 79 368 l 1290 375 b 1311 347 1301 369 1311 363 b 1290 319 1311 332 1301 325 l 206 319 b 265 265 219 306 247 283 b 421 22 333 196 388 113 b 425 -7 428 1 429 -1 b 400 -15 422 -14 417 -15 b 368 10 378 -15 378 -15 b 96 326 308 150 221 251 b 76 356 78 339 76 340 "},"":{"ha":1389,"x_min":0,"x_max":0,"o":"m 1311 213 b 1290 185 1311 197 1301 190 l 442 185 l 456 171 b 575 0 499 125 544 60 b 582 -22 579 -10 582 -17 b 554 -33 582 -31 574 -33 b 524 -17 533 -33 532 -33 b 222 283 458 113 350 221 b 100 329 183 303 138 319 b 78 347 81 335 78 338 b 100 365 78 357 81 360 b 524 711 293 415 440 546 b 549 729 533 728 532 729 l 557 729 b 582 715 575 728 582 724 b 575 694 582 710 579 704 b 456 524 544 635 499 569 l 442 510 l 1290 510 b 1311 482 1301 504 1311 497 b 1292 456 1311 467 1301 461 l 836 454 l 381 454 l 367 443 b 204 347 319 407 257 374 b 218 340 204 347 210 343 b 367 251 265 319 325 283 l 381 240 l 1292 240 b 1311 213 1300 233 1311 229 "},"":{"ha":849,"x_min":0,"x_max":0,"o":"m 317 -249 b 289 -269 310 -258 304 -269 b 263 -251 275 -269 268 -258 l 261 174 l 261 597 l 244 582 b 82 469 196 538 138 497 b 56 458 68 461 61 458 b 43 468 50 458 49 463 l 43 486 b 64 519 43 508 43 508 b 406 940 228 599 356 758 b 414 961 410 954 411 957 b 424 964 417 963 419 964 b 442 940 433 964 436 960 b 783 519 492 758 619 599 b 804 486 804 508 804 508 l 804 468 b 792 458 799 463 797 458 b 765 469 786 458 779 461 b 604 582 710 497 651 538 l 588 597 l 586 174 l 586 -251 b 557 -269 579 -261 569 -269 b 531 -246 543 -269 535 -260 l 531 660 l 518 676 b 424 836 482 724 447 782 b 418 824 424 836 421 831 b 331 678 396 775 363 719 l 318 661 l 317 206 l 317 -249 "},"":{"ha":1389,"x_min":0,"x_max":0,"o":"m 806 714 b 828 729 806 724 815 729 b 864 711 856 729 854 728 b 1204 394 935 569 1057 456 b 1288 365 1226 385 1265 371 b 1311 347 1307 360 1311 357 b 1288 329 1311 338 1307 335 b 864 -17 1094 279 947 147 b 833 -33 856 -33 854 -33 b 806 -22 814 -33 806 -31 b 813 0 806 -17 808 -10 b 932 171 843 60 889 125 l 946 185 l 97 185 b 78 213 86 190 78 197 b 100 240 78 229 86 236 l 1007 240 l 1021 251 b 1183 347 1068 288 1131 321 b 1169 354 1183 347 1178 351 b 1021 443 1122 375 1063 411 l 1007 454 l 100 454 b 78 482 86 458 78 465 b 97 510 78 497 86 504 l 946 510 l 932 524 b 813 694 889 569 843 635 b 806 714 808 703 806 711 "},"":{"ha":849,"x_min":0,"x_max":0,"o":"m 557 964 b 586 946 569 964 579 956 l 586 521 l 588 97 l 604 113 b 765 225 651 157 710 197 b 792 236 779 233 786 236 b 804 226 797 236 799 232 l 804 208 b 783 175 804 186 804 186 b 442 -246 621 94 494 -56 b 424 -269 436 -265 433 -269 b 406 -246 414 -269 411 -265 b 64 175 353 -56 226 94 b 43 208 43 186 43 186 l 43 226 b 56 236 49 232 50 236 b 82 225 61 236 68 233 b 244 113 138 197 196 157 l 261 97 l 261 521 l 263 946 b 289 964 268 953 275 964 b 317 944 304 964 310 954 l 317 489 l 318 35 l 331 17 b 424 -142 365 -29 400 -87 b 429 -129 424 -142 426 -136 b 518 18 451 -81 485 -25 l 531 35 l 531 942 b 557 964 536 954 543 963 "},"":{"ha":1389,"x_min":0,"x_max":0,"o":"m 428 728 b 449 731 436 729 442 731 b 472 714 463 731 472 726 b 467 693 472 708 471 701 b 364 522 442 633 403 569 b 354 511 358 517 354 511 b 694 510 354 510 507 510 b 1033 511 881 510 1033 510 b 1024 522 1033 511 1029 517 b 921 693 985 569 946 633 b 914 715 917 703 914 710 b 944 729 914 726 924 729 b 974 704 963 728 964 728 b 1253 399 1032 575 1126 465 b 1326 364 1272 388 1308 369 b 1342 347 1338 360 1342 356 b 1326 331 1342 339 1338 335 b 1253 296 1308 325 1272 307 b 974 -10 1126 226 1031 122 b 944 -35 964 -33 963 -33 b 914 -21 924 -35 914 -32 b 921 1 914 -15 917 -8 b 1024 172 946 61 985 125 b 1033 183 1029 178 1033 183 b 694 185 1033 185 881 185 b 354 183 507 185 354 185 b 364 172 354 183 358 178 b 467 1 403 125 442 61 b 474 -21 471 -8 474 -15 b 443 -35 474 -32 464 -35 b 414 -10 425 -33 424 -33 b 135 296 356 119 261 229 b 61 331 115 307 79 325 b 47 347 50 335 47 339 b 61 364 47 356 50 360 b 135 399 79 369 115 388 b 415 707 261 468 358 576 b 428 728 422 724 422 725 m 1088 454 l 300 454 b 167 356 267 421 214 383 l 153 347 l 167 339 b 288 251 208 314 254 282 l 300 240 l 1088 240 l 1100 251 b 1221 339 1133 282 1179 314 l 1235 347 l 1221 356 b 1100 443 1179 381 1133 413 "},"":{"ha":849,"x_min":0,"x_max":0,"o":"m 403 1049 b 424 1072 411 1063 411 1072 b 444 1049 432 1072 436 1068 b 785 703 501 896 635 764 b 804 690 794 697 799 696 l 804 672 b 794 644 804 651 803 647 b 764 653 789 643 786 643 b 588 764 701 679 636 724 l 586 556 l 586 139 l 588 -69 b 764 42 636 -29 700 14 b 794 50 786 51 789 51 b 804 22 803 47 804 43 l 804 4 b 785 -8 799 -1 794 -3 b 624 -107 731 -31 674 -65 b 546 -183 606 -122 561 -167 b 444 -353 503 -236 467 -294 b 424 -378 436 -374 432 -378 b 403 -353 415 -378 411 -374 b 301 -183 381 -294 344 -236 b 225 -107 286 -167 242 -122 b 63 -8 174 -65 117 -31 b 43 4 53 -3 49 -1 l 43 22 b 53 50 43 43 44 47 b 85 42 58 51 61 51 b 251 -62 142 17 207 -24 l 261 -69 l 261 764 l 251 757 b 85 653 207 718 142 678 b 53 644 61 643 58 643 b 43 672 44 647 43 651 l 43 690 b 63 703 49 696 53 697 b 225 801 117 725 174 760 b 403 1049 297 868 367 953 m 519 831 b 424 965 485 867 451 921 b 417 954 424 965 419 960 b 328 831 393 913 358 863 l 317 818 l 317 -124 l 328 -136 b 424 -271 363 -172 396 -226 b 431 -260 424 -271 428 -265 b 519 -136 454 -218 489 -168 l 531 -124 l 531 818 l 519 831 "},"":{"ha":772,"x_min":0,"x_max":0,"o":"m 0 935 b 28 964 0 950 13 964 b 49 954 36 964 44 960 b 114 788 51 951 81 876 l 175 626 l 597 626 l 657 786 b 721 951 690 874 719 947 b 747 964 725 958 738 964 b 772 936 761 963 772 950 b 407 -21 772 929 413 -15 b 386 -31 403 -26 394 -31 b 365 -21 378 -31 369 -26 b 0 935 360 -14 1 926 m 575 569 b 386 571 575 571 538 571 b 197 569 235 571 197 571 l 386 76 l 575 569 "},"":{"ha":738,"x_min":0,"x_max":0,"o":"m 281 706 b 219 760 246 706 219 725 b 225 792 219 768 221 778 b 418 986 253 892 324 963 b 463 993 432 989 449 993 l 479 993 b 533 992 497 993 525 993 b 786 635 688 964 786 825 b 756 439 786 572 778 522 b 558 74 711 283 653 160 b 310 -31 483 4 397 -31 b 101 78 210 -31 150 4 b 61 171 81 108 68 138 b 58 221 58 183 58 189 b 67 299 58 257 58 265 b 203 536 89 397 129 469 b 389 640 268 596 325 628 b 447 646 408 644 428 646 b 517 636 472 646 497 643 b 632 510 569 618 617 572 l 636 525 b 664 715 657 611 664 663 b 554 924 664 819 626 892 b 478 939 531 933 504 939 b 310 850 403 939 342 897 b 367 794 344 844 367 828 b 281 706 367 744 326 706 m 597 425 b 485 593 597 515 563 578 b 463 594 478 594 471 594 b 308 531 392 594 351 571 b 267 475 289 510 278 496 b 208 307 246 439 232 399 b 183 161 190 235 183 193 b 322 29 183 74 232 29 b 347 31 331 29 339 29 b 519 156 414 42 479 89 b 572 286 535 182 556 232 b 597 425 592 347 597 379 "},"":{"ha":772,"x_min":0,"x_max":0,"o":"m 78 936 b 97 964 78 951 86 958 l 676 964 b 694 943 683 958 690 953 l 694 21 b 676 1 690 11 683 7 l 388 0 l 97 0 b 78 28 86 6 78 13 b 97 56 78 43 86 50 l 639 56 l 639 454 l 117 454 b 97 482 106 460 97 467 b 117 510 97 497 106 504 l 639 510 l 639 908 l 97 908 b 78 936 86 914 78 921 "},"":{"ha":694,"x_min":0,"x_max":0,"o":"m 183 -108 b 154 -83 171 -108 154 -97 b 169 -25 154 -75 158 -60 l 185 29 l 174 40 b 107 139 146 67 126 96 b 54 478 69 224 54 322 b 96 793 54 619 67 713 b 190 938 118 854 144 901 b 349 994 236 975 292 994 b 453 969 388 994 428 983 l 460 967 b 488 1058 474 1007 486 1057 b 510 1072 492 1065 499 1072 b 539 1047 522 1072 539 1061 b 524 989 539 1039 535 1024 l 508 935 l 525 918 b 583 828 550 892 567 865 b 639 478 624 740 639 639 b 586 139 639 322 624 224 b 518 38 567 94 546 65 b 347 -31 469 -7 408 -31 b 250 -10 314 -31 282 -24 b 233 -6 242 -7 233 -4 l 221 -46 b 197 -104 207 -93 206 -99 b 183 -108 193 -107 189 -108 m 383 939 b 342 943 372 942 356 943 b 221 876 288 943 250 914 b 168 494 171 807 168 661 b 169 369 168 443 169 394 b 210 111 174 231 183 165 l 325 508 b 442 908 389 728 442 907 b 408 929 442 910 421 922 l 383 939 m 251 58 b 347 22 272 38 306 22 b 450 65 397 22 421 39 b 524 369 501 118 518 185 b 525 494 524 394 525 443 l 525 561 b 499 824 525 672 524 754 b 485 856 494 838 490 846 l 483 851 b 367 453 483 849 431 669 l 251 58 "},"":{"ha":1157,"x_min":0,"x_max":0,"o":"m 64 939 b 71 949 64 943 68 947 l 1085 949 b 1092 939 1088 947 1092 943 b 617 -36 1092 936 622 -29 b 578 -46 611 -44 606 -46 b 539 -36 550 -46 544 -44 b 64 939 533 -29 64 936 m 968 828 b 618 829 968 829 824 829 b 268 828 325 829 268 829 b 618 111 271 821 617 111 l 968 828 "},"":{"ha":926,"x_min":0,"x_max":0,"o":"m 117 347 b 500 749 117 576 296 728 b 651 750 507 749 575 750 l 789 750 b 810 722 801 744 810 736 b 792 696 810 710 801 703 l 647 694 b 457 686 492 693 493 693 b 181 429 318 651 214 557 b 172 378 176 413 172 385 l 172 375 l 789 375 b 810 347 800 369 810 363 b 789 319 810 332 800 325 l 172 319 l 172 317 b 181 265 172 310 176 282 b 456 10 214 142 318 39 b 647 0 493 1 492 1 l 792 0 b 810 -28 801 -7 810 -15 b 789 -56 810 -42 801 -50 l 654 -56 b 469 -50 515 -56 503 -56 b 124 267 301 -22 157 103 b 117 347 117 299 117 311 "},"":{"ha":926,"x_min":0,"x_max":0,"o":"m 144 -299 b 117 -274 129 -299 117 -290 b 124 -254 117 -268 118 -262 l 272 36 b 124 267 197 93 143 174 b 117 347 117 299 117 311 b 500 749 117 576 296 728 b 639 750 507 749 568 750 b 760 982 710 886 758 981 b 782 994 763 989 772 994 b 810 967 797 994 810 981 b 701 750 810 964 767 878 l 789 750 b 810 722 801 744 810 736 b 792 696 810 710 801 703 l 672 694 l 508 375 l 789 375 b 810 347 800 369 810 363 b 789 319 810 332 800 325 l 481 319 l 343 54 b 456 10 376 33 415 18 b 647 0 493 1 492 1 l 792 0 b 810 -28 801 -7 810 -15 b 789 -56 810 -42 801 -50 l 654 -56 b 469 -50 515 -56 503 -56 b 318 6 415 -42 364 -21 b 160 -294 229 -167 163 -293 b 144 -299 154 -299 153 -299 m 418 319 l 172 319 l 172 317 b 181 265 172 310 176 282 b 297 86 200 196 240 133 m 611 694 b 457 686 492 693 490 693 b 181 429 318 651 214 557 b 172 378 176 413 172 385 l 172 375 l 446 375 "},"":{"ha":926,"x_min":0,"x_max":0,"o":"m 115 722 b 136 750 115 736 124 744 l 271 750 b 456 744 410 750 422 750 b 801 429 624 718 768 592 b 808 347 808 396 808 383 b 801 267 808 311 808 299 b 422 -54 767 94 607 -39 b 271 -56 413 -56 357 -56 l 136 -56 b 115 -28 124 -50 115 -42 b 133 0 115 -15 124 -7 l 278 0 b 468 8 433 1 432 1 b 557 39 501 17 525 25 b 618 76 581 51 596 61 b 744 265 681 125 725 192 b 753 317 749 282 753 310 l 753 319 l 136 319 b 117 347 125 325 117 332 b 136 375 117 363 125 369 l 753 375 l 753 378 b 744 429 753 385 749 413 b 618 618 725 503 681 569 b 557 656 596 633 581 643 b 469 685 525 669 503 678 b 278 694 432 693 433 693 l 133 696 b 115 722 124 703 115 710 "},"":{"ha":1081,"x_min":0,"x_max":0,"o":"m 117 347 b 136 375 117 363 125 369 l 943 375 b 964 347 954 369 964 363 b 943 319 964 332 954 325 l 136 319 b 117 347 125 325 117 332 "},"":{"ha":1081,"x_min":0,"x_max":0,"o":"m 78 667 b 97 694 78 682 86 689 l 982 694 b 1003 667 993 689 1003 682 b 982 639 1003 651 993 644 l 568 639 l 568 260 l 982 260 b 1003 232 993 254 1003 247 b 982 204 1003 217 993 210 l 568 204 l 568 0 b 560 -222 568 -222 568 -212 b 540 -231 554 -228 547 -231 b 515 -215 531 -231 521 -225 b 513 -3 513 -210 513 -204 l 513 204 l 97 204 b 78 232 86 210 78 217 b 97 260 78 247 86 254 l 513 260 l 513 639 l 97 639 b 78 667 86 644 78 651 "},"":{"ha":694,"x_min":0,"x_max":0,"o":"m 104 -347 b 78 -321 90 -347 78 -335 b 565 1028 78 -300 563 1024 b 590 1042 569 1036 576 1042 b 617 1014 606 1040 618 1028 b 128 -333 617 1004 136 -317 b 104 -347 122 -342 114 -347 "},"":{"ha":694,"x_min":0,"x_max":0,"o":"m 78 1015 b 104 1042 78 1029 90 1042 b 128 1028 114 1042 122 1036 b 617 -321 133 1018 617 -307 b 589 -347 617 -335 603 -347 b 565 -333 579 -347 571 -342 b 78 1015 563 -329 78 994 "},"":{"ha":694,"x_min":0,"x_max":0,"o":"m 318 397 b 300 606 318 397 300 583 b 333 644 300 625 315 638 b 349 646 336 644 343 646 b 393 606 372 644 393 629 b 375 397 393 564 375 418 l 456 456 b 540 517 499 488 538 515 b 557 521 546 519 551 521 b 604 469 582 521 604 493 b 590 438 604 457 599 446 b 401 347 582 432 411 350 l 493 304 l 590 256 b 603 224 599 247 603 236 b 557 174 603 197 586 174 b 540 176 551 174 546 174 b 456 238 538 178 499 206 l 375 296 b 393 88 375 296 393 110 b 347 49 393 64 374 49 b 300 88 319 49 300 64 b 318 296 300 129 318 275 l 238 238 b 153 176 194 206 156 178 b 136 172 147 174 142 172 b 89 224 111 172 89 200 b 103 256 89 236 94 247 b 292 347 106 258 197 300 l 103 438 b 90 469 94 446 90 457 b 136 519 90 496 107 519 b 153 517 142 519 147 519 b 238 456 156 515 194 488 l 318 397 "},"":{"ha":694,"x_min":0,"x_max":0,"o":"m 617 346 b 347 76 617 193 490 76 b 151 160 275 76 201 107 b 76 349 104 208 76 279 b 151 533 76 422 107 489 b 346 617 199 583 267 617 b 542 533 418 617 492 586 b 617 346 589 485 617 414 m 468 524 b 340 560 431 549 399 560 b 225 524 296 560 260 547 b 133 347 175 488 133 431 b 225 169 133 263 174 207 b 347 133 261 146 293 133 b 468 169 401 133 432 146 b 560 347 518 206 560 264 b 468 524 560 432 519 486 "},"":{"ha":694,"x_min":0,"x_max":0,"o":"m 617 346 b 347 76 617 193 490 76 b 151 160 275 76 201 107 b 76 349 104 208 76 279 b 151 533 76 422 107 489 b 346 617 199 583 267 617 b 542 533 418 617 492 586 b 617 346 589 485 617 414 "},"":{"ha":1157,"x_min":0,"x_max":0,"o":"m 132 247 b 100 278 125 247 100 267 b 101 283 100 279 100 282 b 288 429 106 293 281 422 b 294 432 289 431 293 432 b 311 418 303 432 306 429 b 433 150 314 413 369 292 l 551 -107 b 1131 1092 556 -107 1121 1075 b 1158 1111 1138 1104 1144 1111 b 1185 1086 1174 1111 1183 1096 l 1185 1078 l 861 407 b 535 -268 683 39 538 -265 b 508 -278 531 -275 522 -278 b 492 -274 497 -278 496 -278 b 356 21 489 -271 453 -192 l 222 313 b 132 247 222 314 136 249 "},"":{"ha":1081,"x_min":0,"x_max":0,"o":"m 78 300 b 331 614 78 453 169 614 b 588 475 443 614 528 546 b 642 396 599 461 628 418 l 651 413 b 786 564 689 476 736 531 b 943 614 832 594 879 614 b 1003 607 964 614 983 610 l 1003 553 l 997 553 b 964 556 986 556 975 556 b 925 553 953 556 939 556 b 724 396 850 540 779 485 b 688 326 704 367 685 329 b 769 199 692 317 760 213 b 894 79 811 140 853 100 b 967 61 918 67 940 61 b 999 64 976 61 997 63 l 1003 64 l 1003 -7 b 942 -15 985 -11 967 -15 b 751 57 876 -15 811 10 b 631 203 700 96 669 144 l 621 186 b 326 -15 560 83 469 -15 b 233 6 290 -15 264 -8 b 78 300 146 49 78 160 m 129 296 b 306 43 129 172 189 43 b 346 46 319 43 335 43 b 549 203 422 60 493 113 b 585 272 568 232 588 269 b 503 400 581 282 513 386 b 335 535 446 481 392 524 b 296 538 325 536 310 538 b 275 536 288 538 281 538 b 129 296 189 518 129 417 "},"":{"ha":1389,"x_min":0,"x_max":0,"o":"m 189 553 b 353 614 233 590 286 614 b 582 529 449 614 521 576 b 685 421 619 499 643 475 l 704 394 l 714 408 b 924 592 765 482 840 558 b 1038 614 961 606 1000 614 b 1125 599 1068 614 1099 608 b 1311 297 1228 557 1311 443 l 1311 288 b 1199 46 1306 186 1260 94 b 1032 -15 1157 10 1103 -15 b 806 69 938 -15 865 22 b 703 178 768 100 744 124 l 683 204 l 674 190 b 464 7 622 117 547 40 b 350 -15 426 -7 388 -15 b 263 0 319 -15 289 -10 b 76 301 160 42 76 156 l 76 311 b 189 553 82 413 128 504 m 1063 71 b 1260 301 1188 71 1260 189 b 1057 551 1260 433 1183 551 b 913 507 1008 551 957 536 b 754 331 854 469 801 407 l 797 275 b 853 204 821 244 846 213 b 1063 71 929 110 992 71 m 324 528 b 128 297 197 528 128 410 b 271 57 128 186 188 83 b 332 46 290 50 310 46 b 476 92 379 46 431 63 b 633 268 533 129 586 192 l 590 324 b 535 394 567 354 542 386 b 354 525 468 475 414 515 b 324 528 346 526 335 528 "},"":{"ha":1003,"x_min":0,"x_max":0,"o":"m 99 0 b 76 28 89 6 76 13 b 79 39 76 32 78 35 b 481 501 82 43 213 196 b 886 961 838 911 879 958 b 899 964 890 963 894 964 b 925 936 913 964 925 953 b 921 921 925 931 924 925 b 542 486 918 918 749 722 l 167 57 l 536 56 l 907 56 b 925 28 917 49 925 40 b 904 0 925 14 917 6 l 99 0 "},"":{"ha":386,"x_min":0,"x_max":0,"o":"m 193 -346 b 165 -326 178 -346 171 -337 l 165 349 l 167 1024 b 193 1042 172 1031 179 1042 b 221 1021 207 1042 215 1032 l 221 -326 b 193 -346 215 -337 208 -346 "},"":{"ha":694,"x_min":0,"x_max":0,"o":"m 185 1022 b 213 1042 188 1031 199 1042 b 236 1026 222 1042 231 1036 b 239 347 239 1021 239 1007 b 236 -332 239 -312 239 -326 b 211 -347 231 -342 221 -347 b 192 -339 204 -347 197 -344 b 183 347 183 -329 183 -385 b 185 1022 183 936 183 1015 m 457 1026 b 481 1042 461 1033 469 1042 b 501 1033 488 1042 496 1038 b 510 347 510 1024 510 1079 b 501 -339 510 -385 510 -329 b 482 -347 496 -344 489 -347 b 457 -332 472 -347 463 -342 b 454 347 454 -326 454 -312 b 457 1026 454 1007 454 1021 "},"":{"ha":926,"x_min":0,"x_max":0,"o":"m 442 821 b 463 831 446 825 453 831 b 483 821 471 831 479 828 b 849 -6 485 819 849 14 b 821 -31 847 -21 835 -31 b 792 -6 803 -31 800 -22 l 463 733 l 133 -6 b 104 -31 125 -22 122 -31 b 76 -6 90 -31 78 -21 b 442 821 76 14 440 819 "},"":{"ha":926,"x_min":0,"x_max":0,"o":"m 76 806 b 104 831 78 817 88 831 b 133 806 122 831 125 822 l 463 67 l 792 806 b 821 831 800 822 803 831 b 849 806 835 831 847 821 b 483 -21 849 786 485 -19 b 463 -31 479 -26 471 -31 b 442 -21 454 -31 446 -26 b 76 806 440 -19 76 786 "},"":{"ha":926,"x_min":0,"x_max":0,"o":"m 104 -29 b 76 -10 89 -29 82 -21 l 76 278 b 85 599 78 590 76 568 b 140 703 93 633 115 674 b 461 831 208 779 325 831 b 804 676 615 831 743 769 b 847 563 828 640 843 603 b 849 269 849 554 849 453 l 849 -10 b 821 -31 843 -22 835 -31 b 794 -12 808 -31 801 -22 l 792 563 b 735 674 782 610 768 639 b 464 775 676 736 571 775 b 189 672 347 775 249 735 b 133 557 157 638 139 600 b 132 268 132 550 132 449 l 132 -10 b 104 -29 126 -21 119 -29 "},"":{"ha":926,"x_min":0,"x_max":0,"o":"m 821 831 b 849 810 836 831 843 819 l 849 522 b 840 201 847 210 849 232 b 785 97 832 167 810 126 b 463 -31 715 18 592 -31 b 121 124 318 -31 183 31 b 78 240 96 160 82 199 b 76 533 76 250 76 343 l 78 813 b 104 831 83 821 89 831 b 132 813 117 831 125 822 l 132 525 l 133 239 l 136 225 b 461 25 164 96 311 25 b 736 128 578 25 676 65 b 792 243 768 163 786 200 b 793 532 793 250 793 351 l 793 810 b 821 831 799 821 806 831 "},"":{"ha":579,"x_min":0,"x_max":0,"o":"m 76 -157 b 143 -89 76 -114 107 -89 b 210 -156 181 -89 210 -118 b 156 -221 210 -189 188 -215 l 147 -224 b 164 -242 147 -226 158 -239 b 203 -244 175 -250 192 -250 b 236 -203 215 -239 228 -222 b 281 88 253 -164 261 -108 b 322 431 296 249 304 313 b 385 788 336 524 372 731 b 525 993 411 914 456 979 b 544 994 532 994 538 994 b 638 932 585 994 617 972 b 656 851 649 907 656 875 b 589 783 656 808 625 783 b 522 850 551 783 522 813 b 576 915 522 883 544 910 l 585 918 b 568 936 585 921 574 933 b 528 938 557 944 540 944 b 488 865 511 929 497 904 b 453 608 478 828 469 764 b 351 -79 428 342 399 153 b 279 -258 335 -164 311 -222 b 192 -300 254 -283 225 -297 b 76 -157 117 -300 76 -232 "},"":{"ha":1081,"x_min":0,"x_max":0,"o":"m 96 185 b 76 231 81 185 76 211 b 78 256 76 238 76 246 b 279 507 92 392 169 490 b 308 510 286 508 297 510 b 351 506 324 510 340 508 b 549 382 429 489 486 438 b 657 297 604 333 628 314 b 769 263 694 275 726 263 b 878 297 808 263 847 275 b 964 469 925 332 964 400 b 983 510 964 493 974 510 b 1003 464 999 510 1003 485 b 997 411 1003 450 1001 432 b 861 207 982 318 931 240 b 781 186 831 192 811 186 l 769 186 b 700 197 740 186 726 188 b 531 313 651 214 613 240 b 422 397 475 361 451 381 b 310 432 385 419 351 432 b 201 397 271 432 232 419 b 96 185 79 299 138 185 "},"":{"ha":386,"x_min":0,"x_max":0,"o":"m 76 790 b 115 810 76 803 97 810 b 308 571 243 810 308 697 b 303 514 308 551 307 532 b 229 342 293 468 276 426 b 160 178 185 258 169 222 b 154 124 157 160 154 142 b 213 -47 154 53 178 -12 b 271 -76 232 -67 247 -75 b 308 -96 290 -78 308 -81 b 263 -115 308 -110 282 -115 b 76 125 140 -115 76 4 b 82 182 76 144 78 164 b 156 354 92 226 108 268 b 225 517 200 436 215 472 b 231 571 228 535 231 553 b 172 742 231 642 207 707 b 115 771 153 761 138 769 b 76 790 93 772 76 778 "},"":{"ha":1081,"x_min":0,"x_max":0,"o":"m 983 644 b 1003 600 999 644 1003 619 b 838 358 1003 479 932 389 b 783 349 818 351 804 349 l 769 349 b 679 367 735 349 713 353 b 531 461 638 383 607 403 b 394 549 461 514 431 533 b 310 565 363 561 342 565 l 304 565 b 169 510 251 565 207 546 b 115 389 138 476 118 444 b 96 347 114 367 111 347 b 76 393 82 347 76 376 b 288 643 76 526 163 626 l 301 643 b 446 603 368 643 397 631 b 549 531 474 588 494 572 b 685 443 618 478 649 458 b 769 426 717 431 738 426 l 775 426 b 964 601 874 426 957 501 b 983 644 964 622 971 644 m 78 78 b 100 106 78 94 86 101 l 981 106 b 1003 78 993 100 1003 93 b 982 50 1003 63 993 56 l 97 50 b 78 78 86 56 78 63 "},"":{"ha":1389,"x_min":0,"x_max":0,"o":"m 96 493 b 76 539 81 493 76 519 b 78 564 76 546 76 554 b 279 815 92 700 169 799 b 308 818 286 817 297 818 b 351 814 324 818 340 817 b 549 690 429 797 486 746 b 657 606 604 642 628 622 b 769 571 694 583 726 571 b 878 606 808 571 847 583 b 964 778 925 640 964 708 b 983 818 964 801 974 818 b 1003 772 999 818 1003 793 b 997 719 1003 758 1001 740 b 861 515 982 626 931 549 b 781 494 831 500 811 494 l 769 494 b 700 506 740 494 726 496 b 531 621 651 522 613 549 b 422 706 475 669 451 689 b 310 740 385 728 351 740 b 201 706 271 740 232 728 b 96 493 79 607 138 493 m 78 328 b 97 356 78 343 86 350 l 982 356 b 1003 328 993 350 1003 343 b 983 301 1003 313 993 307 l 542 300 l 100 300 b 78 328 86 304 78 311 m 78 58 b 100 86 78 75 86 82 l 983 86 b 1003 58 992 79 1003 75 b 982 31 1003 43 993 36 l 97 31 b 78 58 86 36 78 43 "},"":{"ha":1081,"x_min":0,"x_max":0,"o":"m 983 671 b 1003 628 999 671 1003 647 b 846 414 1003 519 936 443 b 771 401 821 406 796 401 b 674 421 740 401 707 408 b 533 500 639 433 606 453 b 465 543 506 517 475 536 b 347 590 421 568 386 582 b 311 592 338 592 325 592 b 188 557 256 592 222 579 b 115 442 153 535 118 492 b 96 401 114 421 111 401 b 76 443 83 401 76 424 b 82 490 76 457 79 475 b 233 658 99 571 154 633 b 285 669 247 664 272 669 b 310 671 290 669 300 671 b 439 638 361 671 393 660 b 546 574 465 624 489 610 l 615 529 b 733 482 658 504 693 490 b 768 481 742 481 756 481 b 892 515 822 481 857 493 b 964 631 929 539 958 579 b 983 671 964 650 971 671 m 96 76 b 76 118 82 76 76 99 b 82 165 76 132 79 150 b 233 333 99 246 154 308 b 285 344 247 339 272 344 b 310 346 290 344 300 346 b 439 313 361 346 393 335 b 546 249 465 299 489 285 l 615 204 b 733 157 658 179 693 165 b 768 156 742 156 756 156 b 892 190 822 156 857 168 b 964 306 929 214 958 254 b 983 346 964 324 969 346 b 1003 301 997 346 1003 324 b 997 257 1003 289 1001 274 b 771 76 976 157 894 76 b 674 96 740 76 707 83 b 533 175 639 108 606 128 b 465 218 506 192 475 211 b 347 265 421 243 386 257 b 311 267 338 267 325 267 b 188 232 256 267 222 254 b 115 117 153 210 118 167 b 96 76 114 96 111 76 "},"":{"ha":1081,"x_min":0,"x_max":0,"o":"m 76 644 b 103 672 76 657 88 672 b 131 658 111 672 119 668 b 489 497 225 582 347 515 b 540 494 497 496 519 494 b 592 497 561 494 582 496 b 949 658 732 515 854 582 b 976 672 957 665 964 672 b 1003 644 990 672 1003 660 b 982 614 1003 629 996 626 b 726 471 899 547 811 499 b 540 439 665 451 621 439 b 353 471 460 439 414 451 b 97 614 268 499 181 547 b 76 644 83 626 76 629 m 353 224 b 529 254 410 242 461 254 b 726 224 618 254 660 244 b 982 81 811 196 899 147 b 1003 50 996 68 1003 65 b 976 22 1003 35 990 22 b 949 36 964 22 957 29 b 592 197 854 113 732 179 b 540 200 582 199 561 200 b 489 197 519 200 497 199 b 131 36 347 179 225 114 b 103 22 122 29 115 22 b 76 50 89 22 76 35 b 97 81 76 65 83 68 b 353 224 181 147 268 196 "},"":{"ha":1081,"x_min":0,"x_max":0,"o":"m 78 482 b 97 510 78 497 86 504 l 982 510 b 1003 482 993 504 1003 497 b 983 456 1003 467 993 461 l 542 454 l 100 454 b 78 482 86 458 78 465 m 78 213 b 100 240 78 229 86 236 l 983 240 b 1003 213 992 233 1003 229 b 982 185 1003 197 993 190 l 97 185 b 78 213 86 190 78 197 m 457 847 b 540 931 457 894 493 931 b 625 849 590 931 625 892 b 542 764 625 799 585 764 b 457 847 492 764 457 804 "},"":{"ha":1081,"x_min":0,"x_max":0,"o":"m 221 -299 b 193 -274 206 -299 193 -290 b 200 -254 193 -268 194 -262 l 425 185 l 97 185 b 78 213 86 190 78 197 b 100 240 78 229 86 236 l 454 240 l 564 454 l 100 454 b 78 482 86 458 78 465 b 97 510 78 497 86 504 l 592 510 b 836 982 721 763 835 981 b 858 994 839 989 849 994 b 886 967 874 994 886 981 b 654 510 886 963 781 756 l 982 510 b 1003 482 993 504 1003 497 b 983 456 1003 467 993 461 l 626 454 l 515 240 l 983 240 b 1003 213 992 233 1003 229 b 982 185 1003 197 993 190 l 488 185 b 236 -294 356 -72 240 -293 b 221 -299 231 -299 229 -299 "},"":{"ha":1081,"x_min":0,"x_max":0,"o":"m 78 617 b 97 644 78 632 86 639 l 982 644 b 1003 617 993 639 1003 632 b 981 589 1003 601 993 594 l 100 589 b 78 617 86 593 78 600 m 78 347 b 97 375 78 363 86 369 l 982 375 b 1003 347 993 369 1003 363 b 982 319 1003 332 993 325 l 97 319 b 78 347 86 325 78 332 m 78 78 b 100 106 78 94 86 101 l 981 106 b 1003 78 993 100 1003 93 b 982 50 1003 63 993 56 l 97 50 b 78 78 86 56 78 63 "},"":{"ha":1081,"x_min":0,"x_max":0,"o":"m 936 883 b 964 854 953 883 964 867 b 954 835 964 846 961 840 b 579 656 951 832 783 753 l 210 481 l 554 317 b 960 121 993 110 954 128 b 964 106 963 115 964 111 b 939 78 964 92 954 79 l 931 78 l 531 267 b 125 460 310 371 128 457 b 115 483 119 464 115 474 b 133 507 117 494 121 500 b 924 881 149 514 915 876 b 936 883 929 883 932 883 m 117 -164 b 138 -136 117 -150 126 -143 l 942 -136 b 964 -164 954 -142 964 -149 b 943 -192 964 -179 954 -186 l 136 -192 b 117 -164 125 -186 117 -176 "},"":{"ha":1081,"x_min":0,"x_max":0,"o":"m 115 856 b 138 883 115 865 125 883 b 954 501 161 883 953 503 b 964 481 960 497 964 489 b 954 460 964 472 960 464 b 549 267 951 457 769 371 l 149 78 l 140 78 b 115 106 125 79 115 92 b 119 121 115 111 117 115 b 525 317 125 128 86 110 l 869 481 l 500 656 b 125 835 296 753 128 832 b 115 856 121 839 115 847 m 117 -164 b 138 -136 117 -150 126 -143 l 942 -136 b 964 -164 954 -142 964 -149 b 943 -192 964 -179 954 -186 l 136 -192 b 117 -164 125 -186 117 -176 "},"":{"ha":1389,"x_min":0,"x_max":0,"o":"m 888 -67 b 860 -93 888 -81 875 -93 b 840 -87 854 -93 850 -92 b 82 332 800 -64 88 321 b 78 347 78 338 78 339 b 82 363 78 356 78 357 b 854 788 88 374 850 786 b 860 789 857 788 860 789 b 868 788 860 789 864 788 b 888 761 881 783 888 772 b 879 742 888 754 885 747 b 519 543 878 739 715 650 l 163 347 l 519 151 b 879 -47 715 44 878 -44 b 888 -67 885 -53 888 -60 m 1311 -67 b 1283 -93 1311 -81 1299 -93 b 1264 -87 1278 -93 1274 -92 b 506 332 1224 -64 511 321 b 501 347 501 338 501 339 b 506 363 501 356 501 357 b 1278 788 511 374 1274 786 b 1283 789 1281 788 1283 789 b 1292 788 1283 789 1288 788 b 1311 761 1304 783 1311 772 b 1303 742 1311 754 1308 747 b 943 543 1301 739 1139 650 l 586 347 l 943 151 b 1303 -47 1139 44 1301 -44 b 1311 -67 1308 -53 1311 -60 "},"":{"ha":1389,"x_min":0,"x_max":0,"o":"m 76 760 b 103 788 76 772 86 788 b 124 781 108 788 114 786 b 883 363 126 779 875 374 b 888 347 886 357 888 356 b 882 332 888 339 886 338 b 124 -86 876 319 124 -86 b 101 -93 115 -90 108 -93 b 76 -65 88 -93 76 -79 b 85 -46 76 -60 81 -50 b 444 151 88 -44 249 44 b 800 349 697 290 801 347 b 86 740 800 349 88 736 b 76 760 79 746 76 753 m 500 760 b 526 788 500 772 510 788 b 547 781 532 788 538 786 b 1307 363 550 779 1299 374 b 1311 347 1310 357 1311 356 b 1306 332 1311 339 1310 338 b 547 -86 1300 319 547 -86 b 525 -93 539 -90 532 -93 b 500 -65 511 -93 500 -79 b 508 -46 500 -60 504 -50 b 868 151 511 -44 672 44 b 1224 349 1121 290 1225 347 b 510 740 1224 349 511 736 b 500 760 503 746 500 753 "},"":{"ha":1081,"x_min":0,"x_max":0,"o":"m 964 -24 b 936 -57 964 -46 953 -57 b 907 -24 917 -57 911 -43 b 675 244 892 100 814 189 b 190 318 556 292 404 314 b 131 321 138 318 136 318 b 117 346 122 326 117 333 b 131 371 117 358 122 365 b 190 374 136 374 138 374 b 390 385 269 375 328 379 b 842 561 613 407 763 465 b 907 711 878 606 899 651 b 939 749 910 738 917 749 b 964 715 954 746 964 736 b 888 528 957 644 926 574 b 518 346 814 440 682 379 b 656 310 561 336 614 324 b 740 276 689 299 711 289 b 951 42 851 221 921 144 b 964 -24 957 22 963 -8 "},"":{"ha":1081,"x_min":0,"x_max":0,"o":"m 936 375 b 964 346 949 375 964 365 b 949 321 964 332 957 326 b 889 318 943 318 942 318 b 549 286 750 315 642 306 b 172 -24 315 238 193 138 b 143 -57 168 -43 163 -57 b 115 -24 126 -57 115 -44 b 192 164 122 47 153 118 b 561 346 265 251 397 313 b 424 382 518 356 465 368 b 340 415 390 393 368 403 b 128 650 228 471 158 547 b 117 718 122 674 117 703 b 142 749 117 736 125 749 b 156 744 146 749 150 747 b 172 711 167 739 169 733 b 238 561 181 651 201 606 b 690 385 317 465 467 407 b 889 374 751 379 810 375 b 936 375 914 374 928 375 "},"":{"ha":1081,"x_min":0,"x_max":0,"o":"m 117 347 b 500 749 117 576 296 728 b 728 750 507 749 610 750 l 943 750 b 964 722 956 744 964 736 b 946 696 964 710 956 703 l 725 694 b 457 686 483 693 496 694 b 174 396 310 650 199 547 b 172 347 172 385 172 365 b 174 300 172 329 172 311 b 369 39 193 181 271 89 b 456 10 400 25 422 17 b 725 0 494 0 482 1 l 946 0 b 964 -28 956 -7 964 -15 b 943 -56 964 -42 956 -50 l 731 -56 b 503 -54 594 -56 513 -56 b 124 267 317 -36 160 93 b 117 347 117 299 117 311 "},"":{"ha":1081,"x_min":0,"x_max":0,"o":"m 115 722 b 136 750 115 736 124 744 l 349 750 b 576 749 485 750 567 750 b 956 429 763 731 919 601 b 963 347 963 396 963 383 b 956 267 963 311 963 299 b 576 -54 921 94 761 -39 b 349 -56 565 -56 489 -56 l 136 -56 b 115 -28 124 -50 115 -42 b 133 0 115 -15 124 -7 l 354 0 b 622 8 596 1 583 0 b 711 39 656 17 679 25 b 906 300 808 89 886 181 b 908 347 907 311 908 329 b 906 396 908 365 907 385 b 711 656 886 514 808 606 b 624 685 679 669 657 678 b 354 694 585 694 597 693 l 133 696 b 115 722 124 703 115 710 "},"":{"ha":1081,"x_min":0,"x_max":0,"o":"m 117 481 b 500 882 117 710 296 861 b 728 883 507 882 610 883 l 943 883 b 964 856 956 878 964 869 b 946 829 964 843 956 836 l 725 828 b 457 819 483 826 496 828 b 174 529 310 783 199 681 b 172 481 172 518 172 499 b 174 433 172 463 172 444 b 369 172 193 314 271 222 b 456 143 400 158 422 150 b 725 133 494 133 482 135 l 946 133 b 964 106 956 126 964 118 b 943 78 964 92 956 83 l 731 78 b 503 79 594 78 513 78 b 124 400 317 97 160 226 b 117 481 117 432 117 444 m 144 -164 b 164 -136 144 -149 153 -142 l 943 -136 b 964 -164 954 -142 964 -149 b 943 -192 964 -179 954 -186 l 164 -192 b 144 -164 153 -186 144 -179 "},"":{"ha":1081,"x_min":0,"x_max":0,"o":"m 115 856 b 136 883 115 869 124 878 l 349 883 b 576 882 485 883 567 883 b 956 563 763 864 919 735 b 963 481 963 529 963 517 b 956 400 963 444 963 432 b 576 79 921 228 761 94 b 349 78 565 78 489 78 l 136 78 b 115 106 124 83 115 92 b 133 133 115 118 124 126 l 354 133 b 622 142 596 135 583 133 b 711 172 656 150 679 158 b 906 433 808 222 886 314 b 908 481 907 444 908 463 b 906 529 908 499 907 518 b 711 789 886 647 808 739 b 624 818 679 803 657 811 b 354 828 585 828 597 826 l 133 829 b 115 856 124 836 115 843 m 117 -164 b 136 -136 117 -149 125 -142 l 915 -136 b 936 -164 926 -142 936 -149 b 915 -192 936 -179 926 -186 l 136 -192 b 117 -164 125 -186 117 -179 "},"":{"ha":926,"x_min":0,"x_max":0,"o":"m 821 831 b 849 810 836 831 843 819 l 849 522 b 840 201 847 210 849 232 b 785 97 832 167 810 126 b 463 -31 715 18 592 -31 b 121 124 318 -31 183 31 b 78 240 96 160 82 199 b 76 533 76 250 76 343 l 78 813 b 104 831 83 821 89 831 b 132 813 117 831 125 822 l 132 525 l 133 239 l 136 225 b 461 25 164 96 311 25 b 736 128 578 25 676 65 b 792 243 768 163 786 200 b 793 532 793 250 793 351 l 793 810 b 821 831 799 821 806 831 m 438 683 b 463 699 442 690 451 699 b 483 690 469 699 478 696 b 490 564 490 682 490 686 l 490 451 l 715 451 b 738 424 725 446 738 439 b 715 396 738 408 725 401 l 490 396 l 490 283 b 488 165 490 178 490 171 b 463 149 485 157 475 149 b 438 165 450 149 440 157 b 435 283 435 171 435 178 l 435 396 l 210 396 b 188 424 200 401 188 408 b 210 451 188 439 200 446 l 435 451 l 435 564 b 438 683 435 671 435 678 "},"":{"ha":1081,"x_min":0,"x_max":0,"o":"m 992 106 b 971 78 992 90 982 83 l 151 78 b 132 96 142 82 138 89 l 131 478 l 131 861 b 146 879 135 869 136 875 l 153 883 l 971 883 b 992 856 982 878 992 871 b 971 828 992 840 982 833 l 186 828 l 186 133 l 969 133 b 992 106 982 128 992 121 m 117 -164 b 139 -136 117 -147 125 -140 l 969 -136 b 992 -164 982 -142 992 -149 b 971 -192 992 -179 982 -186 l 136 -192 b 117 -164 125 -186 117 -179 "},"":{"ha":1081,"x_min":0,"x_max":0,"o":"m 89 856 b 108 883 89 871 97 878 l 928 883 b 949 865 938 879 943 872 l 949 96 b 928 78 943 89 938 82 l 108 78 b 89 106 97 83 89 90 b 111 133 89 122 97 129 l 893 133 l 893 828 l 108 828 b 89 856 97 833 89 840 m 89 -164 b 110 -136 89 -150 99 -143 l 942 -136 b 964 -164 954 -142 964 -149 b 943 -192 964 -179 954 -186 l 108 -192 b 89 -164 97 -186 89 -176 "},"":{"ha":926,"x_min":0,"x_max":0,"o":"m 140 21 b 115 0 135 10 126 1 b 85 22 97 0 92 11 l 85 418 l 86 813 b 106 831 92 819 96 825 l 822 831 b 840 810 829 825 836 819 l 840 21 b 815 0 835 10 826 1 b 785 22 797 0 792 11 l 785 775 l 140 775 l 140 21 "},"":{"ha":926,"x_min":0,"x_max":0,"o":"m 813 831 b 840 810 828 831 835 821 l 840 21 b 822 1 836 11 829 7 l 465 0 l 107 0 b 89 15 99 4 93 6 l 85 22 l 85 418 l 86 813 b 113 831 92 819 99 831 b 140 810 126 831 135 821 l 140 56 l 785 56 l 785 810 b 813 831 790 821 797 831 "},"":{"ha":1081,"x_min":0,"x_max":0,"o":"m 210 674 b 533 810 289 749 397 810 b 869 674 685 810 788 753 b 1003 347 943 594 1003 489 b 1000 297 1003 328 1001 307 b 869 21 986 186 936 90 b 678 -94 814 -33 753 -71 b 542 -115 633 -108 588 -115 b 329 -65 469 -115 396 -99 b 210 21 283 -42 247 -15 b 78 347 136 100 78 206 b 79 397 78 367 78 388 b 210 674 93 508 143 604 m 513 753 l 506 753 b 388 725 478 751 425 740 b 133 386 247 669 147 536 l 133 375 l 513 375 m 946 386 b 593 750 925 588 772 726 b 572 753 583 751 575 753 l 568 753 l 568 375 l 946 375 l 946 386 m 513 319 l 133 319 l 133 308 b 486 -56 154 107 307 -32 b 508 -58 496 -57 506 -58 l 513 -58 m 946 319 l 568 319 l 568 -58 l 572 -58 b 593 -56 575 -58 583 -57 b 946 308 772 -32 925 107 "},"":{"ha":1081,"x_min":0,"x_max":0,"o":"m 210 674 b 533 810 289 749 397 810 b 869 674 685 810 788 753 b 1003 347 943 594 1003 489 b 1000 297 1003 328 1001 307 b 869 21 986 186 936 90 b 678 -94 814 -33 753 -71 b 542 -115 633 -108 588 -115 b 329 -65 469 -115 396 -99 b 210 21 283 -42 247 -15 b 78 347 136 100 78 206 b 79 397 78 367 78 388 b 210 674 93 508 143 604 m 946 386 b 593 750 925 588 772 726 b 529 753 582 751 550 753 b 458 746 500 753 478 750 b 133 386 293 713 154 579 l 133 375 l 946 375 l 946 386 m 946 319 l 133 319 l 133 308 b 493 -57 154 104 310 -33 b 539 -58 503 -58 521 -58 b 586 -57 557 -58 576 -58 b 946 308 769 -33 925 104 "},"":{"ha":1081,"x_min":0,"x_max":0,"o":"m 210 674 b 533 810 289 749 397 810 b 869 674 685 810 788 753 b 1003 347 943 594 1003 489 b 1000 297 1003 328 1001 307 b 869 21 986 186 936 90 b 678 -94 814 -33 753 -71 b 542 -115 633 -108 588 -115 b 329 -65 469 -115 396 -99 b 210 21 283 -42 247 -15 b 78 347 136 100 78 206 b 79 397 78 367 78 388 b 210 674 93 508 143 604 m 783 674 b 529 753 713 728 639 753 b 458 746 500 753 478 750 b 272 654 390 732 318 700 l 540 386 l 674 521 l 808 654 b 783 674 800 660 796 665 m 232 614 b 132 347 169 544 132 446 b 232 81 132 232 174 144 l 499 347 l 232 614 m 847 81 b 947 347 910 150 947 249 b 847 614 947 463 906 550 l 581 347 l 847 81 m 539 -58 b 803 36 650 -58 738 -19 l 808 40 l 539 308 l 272 40 b 539 -58 332 -19 429 -58 "},"":{"ha":1081,"x_min":0,"x_max":0,"o":"m 210 674 b 533 810 289 749 397 810 b 869 674 685 810 788 753 b 1003 347 943 594 1003 489 b 1000 297 1003 328 1001 307 b 869 21 986 186 936 90 b 678 -94 814 -33 753 -71 b 542 -115 633 -108 588 -115 b 329 -65 469 -115 396 -99 b 210 21 283 -42 247 -15 b 78 347 136 100 78 206 b 79 397 78 367 78 388 b 210 674 93 508 143 604 m 783 674 b 529 753 713 728 639 753 b 458 746 500 753 478 750 b 132 349 288 711 132 564 b 200 122 132 257 156 189 b 232 81 210 107 231 81 l 808 654 b 783 674 800 660 796 665 m 539 -58 b 947 347 765 -58 947 119 b 847 614 947 463 906 549 l 272 40 b 324 1 283 29 307 14 b 539 -58 386 -37 449 -58 "},"":{"ha":1081,"x_min":0,"x_max":0,"o":"m 210 674 b 533 810 289 749 397 810 b 869 674 685 810 788 753 b 1003 347 943 594 1003 489 b 1000 297 1003 328 1001 307 b 869 21 986 186 936 90 b 678 -94 814 -33 753 -71 b 542 -115 633 -108 588 -115 b 329 -65 469 -115 396 -99 b 210 21 283 -42 247 -15 b 78 347 136 100 78 206 b 79 397 78 367 78 388 b 210 674 93 508 143 604 m 593 750 b 529 753 582 751 550 753 b 458 746 500 753 478 750 b 221 601 364 726 282 676 b 132 347 163 529 132 439 b 167 182 132 292 143 235 b 458 -51 219 63 329 -25 b 540 -58 489 -57 504 -58 b 621 -51 575 -58 590 -57 b 858 93 715 -32 797 18 b 947 347 917 165 947 256 b 935 447 947 381 943 414 b 833 629 917 517 883 576 b 593 750 771 696 686 738 m 432 347 b 521 456 432 404 474 449 b 544 457 525 456 535 457 b 647 347 603 450 647 411 b 540 239 647 285 604 239 b 442 301 489 239 458 265 b 432 347 433 318 432 328 "},"":{"ha":849,"x_min":0,"x_max":0,"o":"m 132 21 b 107 0 126 10 118 1 b 76 22 89 0 83 11 l 76 942 b 107 964 83 953 89 964 b 132 943 118 963 126 954 l 132 510 l 750 510 b 771 482 761 504 771 497 b 750 454 771 467 761 460 l 132 454 l 132 21 "},"":{"ha":849,"x_min":0,"x_max":0,"o":"m 771 21 b 746 0 765 10 757 1 b 715 22 728 0 722 11 l 715 454 l 99 454 b 76 482 89 460 76 467 b 99 510 76 497 89 504 l 715 510 l 715 942 b 746 964 722 953 728 964 b 771 943 757 963 765 954 l 771 21 "},"":{"ha":1081,"x_min":0,"x_max":0,"o":"m 568 21 b 543 0 563 10 554 1 b 513 22 525 0 519 11 l 513 872 l 99 872 b 76 900 89 878 76 885 b 99 928 76 915 89 922 l 983 928 b 1004 900 994 922 1004 915 b 983 872 1004 885 994 878 l 568 872 l 568 21 "},"":{"ha":1081,"x_min":0,"x_max":0,"o":"m 1004 28 b 983 0 1004 13 994 6 l 99 0 b 76 28 89 6 76 13 b 99 56 76 43 89 50 l 513 56 l 513 906 b 543 928 519 917 525 928 b 568 907 554 926 563 918 l 568 56 l 983 56 b 1004 28 994 50 1004 43 "},"":{"ha":1204,"x_min":0,"x_max":0,"o":"m 193 -346 b 165 -326 178 -346 171 -337 l 165 349 l 167 1024 b 193 1042 172 1031 179 1042 b 221 1021 207 1042 215 1032 l 221 510 l 1106 510 b 1126 482 1117 504 1126 497 b 1107 456 1126 467 1117 461 l 665 454 l 224 454 b 221 456 222 454 222 456 l 221 239 b 224 240 222 239 222 240 l 1107 240 b 1126 213 1115 233 1126 229 b 1106 185 1126 197 1117 190 l 221 185 l 221 -326 b 193 -346 215 -337 208 -346 "},"":{"ha":694,"x_min":0,"x_max":0,"o":"m 336 675 b 347 678 340 678 343 678 b 358 675 351 678 356 678 b 675 358 367 671 672 365 b 678 347 676 356 678 351 b 675 336 678 343 676 339 b 358 19 672 329 367 24 b 347 17 356 17 351 17 b 336 19 343 17 340 17 b 19 336 326 24 25 325 b 17 347 17 340 17 344 b 19 358 17 350 17 354 b 336 675 24 368 325 669 m 347 610 l 85 347 l 347 85 l 610 347 "},"":{"ha":386,"x_min":0,"x_max":0,"o":"m 108 347 b 192 431 108 394 144 431 b 276 349 242 431 276 392 b 193 264 276 299 236 264 b 108 347 143 264 108 304 "},"":{"ha":694,"x_min":0,"x_max":0,"o":"m 292 392 b 335 667 292 393 332 663 b 340 672 335 669 338 672 b 349 675 343 674 346 675 b 361 665 354 675 360 671 b 403 392 364 663 403 401 l 539 415 b 676 436 610 426 668 436 l 678 436 b 690 419 685 436 690 426 b 561 349 690 411 679 407 l 438 286 l 501 164 b 565 39 536 97 564 40 b 549 22 565 31 560 22 b 542 24 546 22 543 24 l 347 221 l 153 24 b 146 22 151 24 149 22 b 129 39 135 22 129 31 b 193 164 131 40 158 97 l 257 286 l 133 349 b 4 419 15 407 4 411 b 17 436 4 426 10 436 l 18 436 b 156 415 26 436 85 426 l 292 392 "},"":{"ha":1250,"x_min":0,"x_max":0,"o":"m 1157 347 b 1156 625 1157 500 1157 625 b 676 347 1154 625 676 349 b 1156 69 676 346 1151 71 b 1157 347 1157 69 1157 194 m 1213 14 b 1186 -7 1207 3 1200 -7 b 1174 -4 1182 -7 1178 -6 l 624 314 l 361 160 b 60 -7 114 18 72 -7 b 51 -3 56 -7 56 -4 b 36 15 42 1 40 7 l 36 679 b 51 697 40 688 42 693 b 60 701 56 699 56 701 b 361 535 72 701 114 676 l 624 381 l 1174 699 b 1185 701 1178 700 1181 701 b 1213 681 1199 701 1207 693 l 1213 14 m 93 625 b 92 347 92 625 92 500 b 93 69 92 194 92 69 b 572 347 97 71 572 346 "},"":{"ha":386,"x_min":0,"x_max":0,"o":"m 108 42 b 192 125 108 89 144 125 b 276 43 242 125 276 86 b 193 -42 276 -7 236 -42 b 108 42 143 -42 108 -1 m 108 611 b 192 694 108 658 144 694 b 276 613 242 694 276 656 b 193 528 276 563 236 528 b 108 611 143 528 108 568 m 108 1167 b 192 1250 108 1214 144 1250 b 276 1168 242 1250 276 1211 b 193 1083 276 1118 236 1083 b 108 1167 143 1083 108 1124 "},"":{"ha":1628,"x_min":0,"x_max":0,"o":"m 108 347 b 192 431 108 394 144 431 b 276 349 242 431 276 392 b 193 264 276 299 236 264 b 108 347 143 264 108 304 m 729 347 b 813 431 729 394 765 431 b 897 349 863 431 897 392 b 814 264 897 299 857 264 b 729 347 764 264 729 304 m 1350 347 b 1433 431 1350 394 1386 431 b 1518 349 1483 431 1518 392 b 1435 264 1518 299 1478 264 b 1350 347 1385 264 1350 304 "},"":{"ha":1781,"x_min":0,"x_max":0,"o":"m 185 1056 b 268 1139 185 1103 221 1139 b 353 1057 318 1139 353 1100 b 269 972 353 1007 313 972 b 185 1056 219 972 185 1013 m 806 639 b 889 722 806 686 842 722 b 974 640 939 722 974 683 b 890 556 974 590 933 556 b 806 639 840 556 806 596 m 1426 222 b 1510 306 1426 269 1463 306 b 1594 224 1560 306 1594 267 b 1511 139 1594 174 1554 139 b 1426 222 1461 139 1426 179 "},"":{"ha":617,"x_min":0,"x_max":0,"o":"m 297 -326 b 272 -347 292 -337 283 -346 b 242 -325 254 -347 249 -336 l 242 1019 b 257 1038 246 1028 247 1033 l 264 1042 l 414 1042 b 569 1039 556 1042 564 1042 b 586 1014 578 1035 586 1026 b 569 989 586 1001 578 993 b 431 986 564 986 556 986 l 297 986 l 297 -326 "},"":{"ha":617,"x_min":0,"x_max":0,"o":"m 374 -326 b 349 -347 368 -337 360 -346 b 318 -325 331 -347 325 -336 l 318 986 l 185 986 b 47 989 60 986 51 986 b 29 1014 38 993 29 1001 b 47 1039 29 1026 38 1035 b 204 1042 51 1042 58 1042 l 356 1042 b 374 1021 363 1036 369 1031 l 374 -326 "},"":{"ha":617,"x_min":0,"x_max":0,"o":"m 272 1042 b 297 1021 283 1040 292 1032 l 297 -292 l 431 -292 b 569 -294 556 -292 564 -292 b 586 -319 578 -299 586 -307 b 569 -344 586 -332 578 -340 b 414 -347 564 -347 556 -347 l 264 -347 b 246 -332 256 -343 250 -342 l 242 -325 l 242 1019 b 272 1042 249 1031 254 1042 "},"":{"ha":617,"x_min":0,"x_max":0,"o":"m 349 1042 b 374 1021 360 1040 368 1032 l 374 -326 b 356 -346 369 -336 363 -340 l 204 -347 b 38 -339 38 -347 47 -347 b 29 -319 33 -335 29 -328 b 47 -294 29 -307 38 -299 b 185 -292 51 -292 60 -292 l 318 -292 l 318 1019 b 349 1042 325 1031 331 1042 "},"":{"ha":1389,"x_min":0,"x_max":0,"o":"m 104 169 b 76 196 88 174 76 181 b 90 225 76 206 78 208 b 250 393 131 288 188 346 b 664 539 368 481 517 533 l 731 539 b 1063 443 839 535 960 500 b 1297 225 1154 390 1240 311 b 1311 196 1310 208 1311 206 b 1283 169 1311 183 1300 169 b 1253 193 1265 174 1267 174 b 1101 342 1211 251 1163 300 b 694 456 989 415 869 456 b 135 193 428 456 247 351 b 104 169 122 176 121 169 "},"":{"ha":1389,"x_min":0,"x_max":0,"o":"m 1282 525 b 1311 497 1299 525 1311 513 b 1310 488 1311 494 1311 490 b 1193 360 1301 467 1233 394 b 854 200 1097 279 982 226 b 694 186 797 189 760 186 b 535 200 628 186 590 189 b 194 360 406 226 290 279 b 78 488 154 394 86 467 b 76 497 76 490 76 494 b 103 525 76 511 86 525 b 133 504 119 525 122 521 b 368 328 193 426 271 369 b 694 268 464 289 579 268 b 1019 328 810 268 924 289 b 1254 504 1117 369 1194 426 b 1282 525 1267 521 1272 525 "},"":{"ha":572,"x_min":0,"x_max":0,"o":"m 496 1029 l 496 1017 b 485 993 496 1000 496 999 b 336 749 406 939 353 851 b 331 347 329 699 333 378 b 332 172 332 333 332 293 b 331 -17 332 61 332 -10 b 279 -181 326 -76 306 -136 b 108 -339 239 -247 182 -303 l 96 -339 l 89 -339 b 78 -321 76 -339 78 -337 l 78 -310 b 88 -299 78 -304 79 -303 b 236 -54 167 -244 221 -157 b 242 347 243 -4 239 317 b 240 522 240 361 240 401 b 242 711 240 633 240 704 b 454 1029 251 864 346 968 l 464 1033 l 492 1033 "},"":{"ha":572,"x_min":0,"x_max":0,"o":"m 331 351 b 332 310 332 349 332 338 l 332 165 b 333 -32 333 -3 332 -21 b 485 -299 349 -153 403 -243 b 496 -322 496 -304 496 -306 l 496 -335 l 492 -339 l 464 -339 b 279 -153 382 -297 319 -233 b 242 -17 257 -108 244 -65 b 240 132 240 -8 240 57 b 242 347 240 222 242 325 b 240 531 240 358 240 407 b 239 726 239 697 240 715 b 88 993 224 849 171 936 b 78 1004 79 997 78 999 l 78 1015 l 78 1022 b 85 1033 78 1032 79 1033 l 96 1033 l 108 1033 b 279 876 182 997 239 943 b 332 683 308 822 332 760 l 332 522 b 331 351 332 413 331 368 "},"":{"ha":1235,"x_min":0,"x_max":0,"o":"m 1150 28 b 1131 0 1150 11 1142 6 l 104 0 b 82 28 94 6 82 13 b 86 42 82 32 83 36 b 594 982 92 54 590 976 b 617 994 597 989 608 994 b 632 989 622 994 628 993 b 894 511 638 986 656 953 l 1150 38 l 1150 28 m 617 907 b 157 56 615 907 157 57 l 1076 56 b 847 482 1076 57 974 249 "},"":{"ha":694,"x_min":0,"x_max":0,"o":"m 36 679 b 51 697 40 688 42 693 b 60 701 56 699 56 701 b 361 535 72 701 114 676 b 657 347 683 347 657 365 b 361 160 657 329 683 347 b 60 -7 114 18 72 -7 b 51 -3 56 -7 56 -4 b 36 15 42 1 40 7 l 36 679 m 93 625 b 92 347 92 625 92 500 b 93 69 92 194 92 69 b 572 347 97 71 572 346 "},"":{"ha":1235,"x_min":0,"x_max":0,"o":"m 1131 694 b 1150 667 1142 689 1150 683 l 1150 658 l 894 183 b 632 -294 653 -262 638 -292 b 617 -299 626 -299 625 -299 b 601 -294 608 -299 607 -299 b 89 647 589 -289 119 597 b 82 667 85 657 82 663 b 104 694 82 682 94 689 l 1131 694 m 157 639 b 617 -212 157 638 615 -212 b 1076 639 618 -212 1076 638 "},"":{"ha":694,"x_min":0,"x_max":0,"o":"m 657 14 b 631 -7 651 3 644 -7 b 618 -4 626 -7 622 -6 b 49 325 611 0 60 317 b 36 347 42 329 36 340 b 49 369 36 354 42 365 b 618 699 58 376 610 694 b 629 701 622 700 625 701 b 657 681 643 701 651 693 l 657 14 m 601 347 b 600 625 601 500 601 625 b 121 347 599 625 121 349 b 600 69 121 346 596 71 b 601 347 601 69 601 194 "},"":{"ha":1389,"x_min":0,"x_max":0,"o":"m 506 963 b 682 993 560 981 611 993 b 882 963 769 993 818 986 b 1308 415 1107 886 1276 683 b 1311 347 1310 400 1311 374 b 1278 140 1311 261 1299 204 b 838 -282 1208 -72 1046 -229 b 694 -299 789 -294 749 -299 b 596 -292 650 -299 635 -299 b 192 -29 435 -264 286 -168 b 79 279 129 63 93 164 b 78 347 78 294 78 321 b 110 554 78 433 89 490 b 506 963 174 750 318 900 m 1256 347 b 754 936 1256 661 1033 901 b 685 938 742 938 708 938 b 563 922 635 938 599 932 b 140 453 346 867 179 682 b 133 347 135 414 133 393 b 150 200 133 290 138 251 b 488 -203 194 18 319 -132 b 694 -244 550 -229 611 -244 b 747 -242 717 -244 736 -243 b 1125 -32 897 -225 1028 -153 b 1253 283 1196 57 1239 164 b 1256 347 1254 297 1256 322 "},"":{"ha":1081,"x_min":0,"x_max":0,"o":"m 1004 283 b 819 -29 1004 106 953 -29 b 640 75 724 -29 653 13 b 638 92 639 81 638 89 l 638 97 l 568 97 l 568 86 b 600 -124 568 25 581 -60 b 607 -156 604 -139 607 -149 b 592 -178 607 -168 600 -172 b 540 -181 586 -181 585 -181 b 489 -178 496 -181 494 -181 b 474 -154 481 -172 474 -165 b 481 -124 474 -147 476 -137 b 513 86 500 -60 513 25 l 513 97 l 443 97 l 443 92 b 408 18 443 63 425 33 b 265 -29 376 -11 329 -29 l 251 -29 b 204 -21 231 -29 222 -26 b 133 38 178 -10 150 11 b 76 268 99 90 79 167 b 83 353 76 306 78 324 b 325 692 110 492 214 593 b 508 978 404 765 464 863 b 540 1010 518 1000 521 1010 b 572 978 561 1010 564 996 b 756 692 617 863 676 765 b 931 506 849 610 893 561 b 1003 319 974 442 996 383 b 1004 283 1004 311 1004 299 "},"":{"ha":1081,"x_min":0,"x_max":0,"o":"m 308 994 b 540 840 418 994 499 922 b 599 921 557 867 576 900 b 771 994 644 965 700 994 b 900 956 825 994 867 981 b 1004 681 967 906 1004 808 b 1003 643 1004 665 1003 651 b 836 315 993 533 940 432 b 703 182 817 294 760 238 b 572 -11 636 115 608 74 b 540 -46 563 -37 561 -46 b 508 -11 519 -46 515 -32 b 378 182 472 74 444 115 b 244 315 321 238 264 294 b 78 643 140 432 88 533 b 76 681 78 651 76 665 b 207 971 76 825 124 929 b 308 994 235 986 265 994 m 275 936 b 132 682 175 918 132 822 b 190 481 132 608 149 549 b 399 239 231 411 285 350 b 540 54 475 168 496 135 b 547 67 540 54 544 60 b 600 151 560 93 581 126 b 682 239 618 176 636 196 b 851 421 768 322 811 369 b 949 676 918 510 949 590 b 901 876 949 760 931 833 b 772 939 869 917 836 939 b 638 882 708 939 674 917 b 569 747 600 844 578 800 b 543 714 567 731 558 714 b 511 749 522 714 517 725 b 443 882 501 801 479 844 b 301 938 404 919 371 938 l 289 938 b 275 936 288 938 281 936 "},"":{"ha":1081,"x_min":0,"x_max":0,"o":"m 514 992 b 539 1010 514 999 528 1010 b 564 996 549 1010 558 1004 b 985 422 675 774 817 578 b 1004 392 1000 408 1004 401 b 985 361 1004 382 1000 375 b 564 -212 817 204 675 10 b 540 -225 560 -221 551 -225 b 517 -212 529 -225 521 -221 b 124 335 411 -1 279 186 l 89 368 b 76 392 82 374 76 385 b 89 415 76 399 82 410 b 176 501 101 426 156 479 b 496 957 303 635 404 779 b 514 992 506 975 514 990 m 547 907 b 540 919 544 914 540 919 b 533 907 540 919 536 914 b 171 415 433 719 307 549 l 146 392 l 171 368 b 533 -124 307 235 433 64 b 540 -136 536 -131 540 -136 b 547 -124 540 -136 544 -131 b 910 368 647 64 774 235 l 935 392 l 910 415 b 547 907 774 549 647 719 "},"":{"ha":1081,"x_min":0,"x_max":0,"o":"m 443 88 b 274 -31 435 14 358 -31 b 135 22 214 -31 174 -10 b 42 196 86 61 56 121 b 39 242 40 207 39 224 b 186 501 39 374 103 474 b 243 511 204 508 224 511 b 358 464 286 511 328 494 b 371 453 365 458 369 453 l 400 515 b 343 578 378 538 360 553 b 296 739 313 624 296 668 b 299 788 296 757 296 775 b 510 1007 319 899 393 989 b 540 1008 518 1008 529 1008 b 642 985 583 1008 611 1001 b 782 788 715 949 765 876 b 785 739 785 772 785 765 b 782 690 785 713 785 706 b 688 522 769 621 738 565 l 681 515 l 710 453 b 722 464 711 453 715 458 b 842 511 754 496 796 511 b 917 492 871 511 893 506 b 1042 242 990 456 1042 363 b 1011 108 1042 182 1031 147 b 804 -31 975 32 904 -31 b 638 88 719 -31 647 10 l 638 97 l 568 97 l 568 86 b 600 -124 568 25 581 -60 b 607 -156 604 -139 607 -149 b 592 -178 607 -168 600 -172 b 540 -181 586 -181 585 -181 b 489 -178 496 -181 494 -181 b 474 -154 481 -172 474 -165 b 481 -124 474 -147 476 -137 b 513 86 500 -60 513 25 l 513 97 l 443 97 l 443 88 "},"":{"ha":540,"x_min":0,"x_max":0,"o":"m 106 1042 b 132 1033 128 1042 122 1040 l 132 603 l 144 611 b 278 649 178 633 224 649 b 460 488 376 649 440 575 b 461 446 461 479 461 463 b 460 397 461 429 461 410 b 144 -15 439 251 336 118 l 122 -31 l 104 -31 b 78 -22 82 -31 86 -31 l 76 503 b 78 1032 76 904 76 1029 b 106 1042 83 1042 86 1042 m 329 447 b 254 579 329 517 310 579 b 140 525 208 579 157 557 b 132 274 132 510 132 521 l 132 47 b 293 278 203 118 261 207 b 329 447 317 332 329 394 "},"":{"ha":540,"x_min":0,"x_max":0,"o":"m 90 1001 b 131 1019 96 1007 118 1019 b 144 1010 138 1019 142 1014 l 144 617 b 289 675 146 617 210 643 b 436 732 371 707 433 732 b 450 724 440 732 446 726 l 450 -292 b 408 -310 443 -297 419 -310 b 394 -300 403 -310 397 -304 l 394 -18 b 250 -75 393 -18 329 -44 b 103 -133 168 -108 106 -133 b 90 -125 99 -133 93 -128 l 90 1001 m 144 18 b 393 118 144 18 392 117 b 394 350 394 118 394 165 b 393 581 394 476 394 581 l 319 550 b 194 500 278 535 222 511 l 144 481 l 144 18 "},"":{"ha":540,"x_min":0,"x_max":0,"o":"m 450 132 b 463 125 456 132 458 128 l 463 8 l 458 6 b 433 -6 457 3 447 -1 l 413 -14 l 413 -108 b 410 -207 413 -199 413 -203 b 392 -217 408 -210 404 -212 b 364 -221 376 -224 371 -224 b 357 -124 357 -217 357 -218 l 357 -35 l 182 -100 l 182 -292 b 140 -310 176 -296 147 -310 b 136 -308 139 -310 138 -308 b 126 -210 126 -304 126 -307 b 125 -122 126 -161 126 -122 b 89 -132 117 -122 100 -132 b 78 -125 83 -132 81 -128 l 76 -69 b 86 -1 76 -6 76 -7 b 108 7 89 0 99 4 l 126 14 l 126 246 b 125 476 126 372 126 476 b 89 467 117 476 100 467 b 78 474 83 467 81 471 l 76 529 b 86 597 76 593 76 592 b 108 606 89 599 99 603 l 126 613 l 126 754 b 129 901 126 892 126 897 b 147 911 131 904 135 907 b 175 915 163 918 168 918 b 182 769 182 911 182 917 l 182 633 l 357 699 l 357 843 l 358 986 l 361 989 b 397 1004 364 996 389 1004 b 403 1003 399 1004 400 1003 b 413 857 413 999 413 1007 b 414 721 413 782 413 721 b 450 731 422 721 439 731 b 463 724 456 731 458 726 l 463 607 l 458 604 b 433 593 457 601 447 597 l 413 585 l 413 353 b 414 122 413 226 413 122 b 450 132 422 122 439 132 m 357 564 l 182 499 l 182 35 l 357 100 "},"":{"ha":540,"x_min":0,"x_max":0,"o":"m 463 -322 b 435 -347 461 -333 450 -347 b 411 -333 425 -347 417 -342 b 153 347 407 -325 153 338 b 411 1028 153 357 407 1019 b 425 1040 414 1033 419 1038 b 435 1042 426 1040 432 1042 b 463 1017 449 1042 461 1031 b 338 679 463 1010 456 992 b 211 347 268 499 211 349 b 338 15 211 346 268 196 b 463 -322 456 -297 463 -315 "},"":{"ha":540,"x_min":0,"x_max":0,"o":"m 76 1017 b 104 1042 78 1028 89 1042 b 128 1028 114 1042 122 1036 b 386 347 132 1019 386 357 b 128 -333 386 338 132 -325 b 104 -347 122 -342 114 -347 b 76 -322 89 -347 78 -333 b 201 15 76 -315 83 -297 b 328 347 271 196 328 346 b 201 679 328 349 271 499 b 76 1017 83 992 76 1010 "},"":{"ha":572,"x_min":0,"x_max":0,"o":"m 492 -339 l 464 -339 b 279 -153 382 -297 319 -233 b 242 -17 257 -108 244 -65 b 240 132 240 -8 240 57 b 242 347 240 222 242 326 b 240 522 240 361 240 401 b 242 711 240 633 240 704 b 454 1029 251 864 346 968 l 464 1033 l 492 1033 l 496 1029 l 496 1017 b 485 993 496 1000 496 999 b 336 749 406 939 353 851 b 331 347 329 700 332 382 b 332 165 332 336 332 286 b 333 -32 333 -3 332 -21 b 485 -299 349 -153 403 -243 b 496 -322 496 -304 496 -306 l 496 -335 "},"":{"ha":572,"x_min":0,"x_max":0,"o":"m 78 1022 b 85 1033 78 1032 79 1033 l 96 1033 l 108 1033 b 279 876 182 997 239 943 b 332 683 308 822 332 760 l 332 522 b 331 350 332 407 331 365 b 333 172 332 339 333 301 b 332 -17 333 61 333 -10 b 281 -181 328 -76 307 -136 b 110 -339 240 -247 183 -303 l 97 -339 l 90 -339 b 78 -321 78 -339 78 -337 b 89 -299 78 -306 78 -304 b 236 -54 168 -244 221 -157 b 242 165 240 -25 240 -35 l 242 347 b 240 531 240 358 240 408 b 239 726 239 697 240 715 b 88 993 224 849 171 936 b 78 1004 79 997 78 999 l 78 1015 "},"":{"ha":2235,"x_min":0,"x_max":0,"o":"m 2097 375 b 2118 347 2108 369 2118 363 b 2097 319 2118 332 2108 325 l 229 319 l 233 315 b 421 35 329 242 389 158 b 429 0 425 19 429 8 b 400 -15 429 -11 421 -15 b 371 6 378 -15 375 -12 b 365 29 369 10 367 21 b 101 328 332 164 232 276 b 76 343 83 335 79 338 b 101 367 76 360 85 363 b 365 665 232 418 332 531 b 400 710 371 693 368 710 b 429 694 421 710 429 706 b 421 660 429 686 425 675 b 233 379 390 539 325 451 l 229 375 "},"":{"ha":2275,"x_min":0,"x_max":0,"o":"m 117 347 b 136 375 117 363 125 369 l 2006 375 b 1853 553 1935 428 1889 483 b 1807 685 1831 596 1814 646 b 1806 694 1807 689 1806 692 b 1833 710 1806 708 1815 710 b 1863 690 1856 710 1858 707 b 1878 633 1865 674 1872 649 b 2144 363 1918 513 2015 406 b 2157 347 2153 360 2157 356 b 2144 332 2157 339 2153 335 b 1878 61 2017 289 1918 182 b 1863 6 1872 46 1865 21 b 1833 -15 1858 -12 1856 -15 b 1804 0 1813 -15 1804 -11 b 1813 35 1804 8 1808 19 b 2006 319 1843 157 1910 249 l 136 319 b 117 347 125 325 117 332 "},"":{"ha":2582,"x_min":0,"x_max":0,"o":"m 2353 375 b 2200 553 2282 428 2236 483 b 2154 685 2178 596 2161 646 b 2153 694 2154 689 2153 692 b 2181 710 2153 708 2163 710 b 2210 690 2203 710 2206 707 b 2225 633 2213 674 2219 649 b 2492 363 2265 513 2363 406 b 2504 347 2500 360 2504 356 b 2492 332 2504 339 2500 335 b 2225 61 2364 289 2265 182 b 2210 6 2219 46 2213 21 b 2181 -15 2206 -12 2203 -15 b 2151 0 2160 -15 2151 -11 b 2160 35 2151 8 2156 19 b 2353 319 2190 157 2257 249 l 229 319 l 233 315 b 421 35 329 242 389 158 b 429 0 425 19 429 8 b 400 -15 429 -11 421 -15 b 371 6 378 -15 375 -12 b 365 29 369 10 367 21 b 101 328 332 164 232 276 b 76 343 83 335 79 338 b 101 367 76 360 85 363 b 365 665 232 418 332 531 b 400 710 371 693 368 710 b 429 694 421 710 429 706 b 421 660 429 686 425 675 b 233 379 390 539 325 451 l 229 375 "},"":{"ha":2235,"x_min":0,"x_max":0,"o":"m 2138 240 b 2157 213 2146 233 2157 229 b 2136 185 2157 197 2147 190 l 442 185 l 456 171 b 575 0 499 125 544 60 b 582 -22 579 -10 582 -17 b 554 -33 582 -31 574 -33 b 524 -17 533 -33 532 -33 b 222 283 458 113 350 221 b 100 329 183 303 138 319 b 78 347 81 335 78 338 b 100 365 78 357 81 360 b 524 711 293 415 440 546 b 549 729 533 728 532 729 l 557 729 b 582 715 575 728 582 724 b 575 694 582 710 579 704 b 456 524 544 635 499 569 l 442 510 l 2136 510 b 2157 482 2147 504 2157 497 b 2138 456 2157 467 2147 461 l 1696 454 l 1254 454 b 1250 456 1253 454 1251 456 l 836 454 l 381 454 l 367 443 b 204 347 319 407 257 374 b 218 340 204 347 210 343 b 367 251 265 319 325 283 l 381 240 "},"":{"ha":2275,"x_min":0,"x_max":0,"o":"m 1692 714 b 1714 729 1692 724 1701 729 b 1750 711 1742 729 1740 728 b 2090 394 1821 569 1943 456 b 2174 365 2113 385 2151 371 b 2197 347 2193 360 2197 357 b 2174 329 2197 338 2193 335 b 1750 -17 1981 279 1833 147 b 1719 -33 1742 -33 1740 -33 b 1692 -22 1700 -33 1692 -31 b 1699 0 1692 -17 1694 -10 b 1818 171 1729 60 1775 125 l 1832 185 l 97 185 b 78 213 86 190 78 197 b 100 240 78 229 86 236 l 1893 240 l 1907 251 b 2069 347 1954 288 2017 321 b 2056 354 2069 347 2064 351 b 1907 443 2008 375 1949 411 l 1893 454 l 986 454 b 982 456 985 454 983 456 l 542 454 l 100 454 b 78 482 86 458 78 465 b 97 510 78 497 86 504 l 1832 510 l 1818 524 b 1699 694 1775 569 1729 635 b 1692 714 1694 703 1692 711 "},"":{"ha":2581,"x_min":0,"x_max":0,"o":"m 1997 714 b 2019 729 1997 724 2007 729 b 2056 711 2047 729 2046 728 b 2396 394 2126 569 2249 456 b 2479 365 2418 385 2457 371 b 2503 347 2499 360 2503 357 b 2479 329 2503 338 2499 335 b 2056 -17 2286 279 2139 147 b 2025 -33 2047 -33 2046 -33 b 1997 -22 2006 -33 1997 -31 b 2004 0 1997 -17 2000 -10 b 2124 171 2035 60 2081 125 l 2138 185 l 442 185 l 456 171 b 575 0 499 125 544 60 b 582 -22 579 -10 582 -17 b 554 -33 582 -31 574 -33 b 524 -17 533 -33 532 -33 b 222 283 458 113 350 221 b 100 329 183 303 138 319 b 78 347 81 335 78 338 b 100 365 78 357 81 360 b 524 711 293 415 440 546 b 549 729 533 728 532 729 l 557 729 b 582 715 575 728 582 724 b 575 694 582 710 579 704 b 456 524 544 635 499 569 l 442 510 l 2138 510 l 2124 524 b 2004 694 2081 569 2035 635 b 1997 714 2000 703 1997 711 m 2199 240 l 2213 251 b 2375 347 2260 288 2322 321 b 2361 354 2375 347 2369 351 b 2213 443 2314 375 2254 411 l 2199 454 l 1292 454 b 1288 456 1290 454 1289 456 l 836 454 l 381 454 l 367 443 b 204 347 319 407 257 374 b 218 340 204 347 210 343 b 367 251 265 319 325 283 l 381 240 "},"":{"ha":2275,"x_min":0,"x_max":0,"o":"m 79 590 b 104 607 83 599 92 607 b 124 599 113 607 119 603 b 132 479 132 589 132 594 l 132 375 l 2006 375 b 1853 553 1935 428 1889 483 b 1807 685 1831 596 1814 646 b 1806 694 1807 689 1806 692 b 1833 710 1806 708 1815 710 b 1863 690 1856 710 1858 707 b 1878 633 1865 674 1872 649 b 2144 363 1918 513 2015 406 b 2157 347 2153 360 2157 356 b 2144 332 2157 339 2153 335 b 1878 61 2017 289 1918 182 b 1863 6 1872 46 1865 21 b 1833 -15 1858 -12 1856 -15 b 1804 0 1813 -15 1804 -11 b 1813 35 1804 8 1808 19 b 2006 319 1843 157 1910 249 l 132 319 l 132 215 b 124 96 132 100 132 106 b 104 88 119 92 113 88 b 85 96 96 88 89 92 b 76 347 76 106 76 86 b 79 590 76 575 76 585 "},"":{"ha":1042,"x_min":0,"x_max":0,"o":"m 1001 908 b 963 885 1001 886 1000 885 l 933 885 b 861 869 901 885 872 883 b 860 475 860 865 860 847 b 861 79 860 101 860 83 b 933 64 872 65 901 64 l 963 64 b 999 56 992 64 996 63 b 1001 32 1001 51 1001 46 b 993 1 1001 11 1000 6 b 519 0 990 0 754 0 b 47 1 285 0 50 0 b 39 32 40 6 39 11 b 42 56 39 46 39 51 b 78 64 44 63 49 64 l 107 64 b 179 79 139 64 168 65 b 182 475 181 83 182 101 b 179 869 182 847 181 865 b 107 885 168 883 139 885 l 78 885 b 42 893 49 885 44 886 b 39 917 39 897 39 903 b 69 949 39 949 39 949 b 253 946 121 946 186 946 b 438 947 319 946 379 947 b 461 917 463 947 461 940 l 461 908 b 422 885 461 886 460 885 l 393 885 b 321 869 361 885 332 883 b 318 464 319 865 318 847 l 318 64 l 722 64 l 722 464 b 719 869 722 847 721 865 b 647 885 708 883 679 885 l 618 885 b 579 908 581 885 579 886 l 579 917 l 579 928 b 604 947 579 943 581 947 b 790 946 656 947 707 946 b 976 947 874 946 925 947 b 1001 928 1000 947 1001 943 l 1001 917 "},"":{"ha":1081,"x_min":0,"x_max":0,"o":"m 964 111 b 936 79 964 90 954 79 b 907 115 914 79 911 89 b 842 265 899 175 878 221 b 390 442 763 361 613 419 b 190 453 328 447 269 451 b 131 456 138 453 136 453 b 117 481 122 461 117 468 b 131 506 117 493 122 500 b 190 508 136 508 138 508 b 390 519 269 510 328 514 b 842 696 613 542 763 600 b 907 846 878 740 899 786 b 939 883 910 872 917 883 b 964 850 954 881 964 871 b 888 663 957 779 926 708 b 518 481 814 575 682 514 b 656 444 561 471 614 458 b 740 411 689 433 711 424 b 951 176 851 356 921 279 b 964 111 957 157 963 126 m 117 -164 b 136 -136 117 -149 125 -142 l 943 -136 b 964 -164 954 -142 964 -149 b 943 -192 964 -179 954 -186 l 136 -192 b 117 -164 125 -186 117 -179 "},"":{"ha":1081,"x_min":0,"x_max":0,"o":"m 936 510 b 964 481 949 510 964 500 b 949 456 964 467 957 461 b 889 453 943 453 942 453 b 326 340 624 447 444 413 b 172 115 236 286 186 213 b 143 79 168 89 165 79 b 115 111 125 79 115 90 b 192 299 122 182 153 253 b 561 481 265 386 397 447 b 424 517 518 490 465 503 b 340 550 390 528 368 538 b 128 785 228 606 158 682 b 117 853 122 808 117 838 b 142 883 117 871 125 883 b 156 879 146 883 150 882 b 172 846 167 874 169 868 b 238 696 181 786 201 740 b 690 519 317 600 467 542 b 889 508 751 514 810 510 b 936 510 914 508 928 510 m 117 -164 b 136 -136 117 -149 125 -142 l 943 -136 b 964 -164 954 -142 964 -149 b 943 -192 964 -179 954 -186 l 136 -192 b 117 -164 125 -186 117 -179 "},"":{"ha":417,"x_min":0,"x_max":0,"o":"m 0 139 l 139 139 l 139 0 l 0 0 m 278 139 l 417 139 l 417 0 l 278 0 "},"":{"ha":694,"x_min":0,"x_max":0,"o":"m 0 139 l 139 139 l 139 0 l 0 0 m 556 139 l 694 139 l 694 0 l 556 0 "},"":{"ha":139,"x_min":0,"x_max":0,"o":"m 0 139 l 139 139 l 139 0 l 0 0 "}}}
